<svg xmlns="http://www.w3.org/2000/svg" width="200.2" height="90.44" viewBox="0 0 715 323">
  <defs>
    <style>
      .cls-1 {
        fill: #db3f2a;
        fill-rule: evenodd;
      }
    </style>
  </defs>
  <path id="Text._Marke._Social." data-name="Text. Marke. Social." class="cls-1" d="M256.958,286.954v3.7h9.55V321.8h4.55v-31.15h9.5v-3.7h-23.6Zm54.2,20.1a13.8,13.8,0,0,0-1.625-6.725,11.776,11.776,0,0,0-4.625-4.675,13.755,13.755,0,0,0-6.9-1.7,14.213,14.213,0,0,0-7.075,1.725,11.934,11.934,0,0,0-4.775,4.925,15.656,15.656,0,0,0-1.7,7.45,15.423,15.423,0,0,0,1.75,7.475,12.385,12.385,0,0,0,4.825,4.975,13.847,13.847,0,0,0,6.975,1.75,13.28,13.28,0,0,0,8.2-2.475,11.775,11.775,0,0,0,4.4-6.425h-4.9a7.269,7.269,0,0,1-2.775,3.675,8.412,8.412,0,0,1-4.925,1.375,8.612,8.612,0,0,1-8.9-8.6h21.9a26.762,26.762,0,0,0,.15-2.75h0Zm-4.7-.95h-17.3a8.962,8.962,0,0,1,2.775-6.1,8.437,8.437,0,0,1,5.875-2.2,9.748,9.748,0,0,1,4.375.975,7.478,7.478,0,0,1,3.125,2.85,8.391,8.391,0,0,1,1.15,4.475h0Zm30.15,15.7-8.85-13.85,8.8-13.55h-4.75l-6.2,10.15-6.5-10.15h-5.15l8.85,13.8-8.85,13.6h4.75l6.25-10.2,6.5,10.2h5.15Zm17.2-23.65V294.4h-7.15v-6.9h-4.55v6.9h-3.55v3.75h3.55V314.3q0,4,1.9,5.75t5.7,1.75h4.1v-3.85h-3.35a4.19,4.19,0,0,1-2.95-.825,3.84,3.84,0,0,1-.85-2.825v-16.15h7.15Zm6.95,23.95a2.853,2.853,0,0,0,2.125-.9,3.2,3.2,0,0,0,0-4.4,2.853,2.853,0,0,0-2.125-.9,3.1,3.1,0,1,0,0,6.2h0Zm52.9-34.9-12.8,28.6-12.8-28.6h-4.9v34.6h4.55v-25.85l11.55,25.85h3.2l11.5-25.8v25.8h4.55V287.2h-4.85ZM424.505,308a15.728,15.728,0,0,0,1.7,7.4,12.618,12.618,0,0,0,4.65,5.05,12.422,12.422,0,0,0,6.6,1.8,12.039,12.039,0,0,0,6.225-1.575,10.722,10.722,0,0,0,4.025-3.975v5.1h4.6V294.4h-4.6v5a10.337,10.337,0,0,0-3.95-3.9,12.162,12.162,0,0,0-6.25-1.55,12.829,12.829,0,0,0-6.625,1.75,12.341,12.341,0,0,0-4.675,4.925,15.4,15.4,0,0,0-1.7,7.375h0Zm23.2,0.05a11.289,11.289,0,0,1-1.25,5.425,8.78,8.78,0,0,1-3.375,3.55,9.192,9.192,0,0,1-4.675,1.225,9.057,9.057,0,0,1-4.65-1.225,8.836,8.836,0,0,1-3.35-3.55,11.4,11.4,0,0,1-1.25-5.475,11.147,11.147,0,0,1,1.25-5.4,8.706,8.706,0,0,1,3.35-3.5,9.571,9.571,0,0,1,9.325.025,8.827,8.827,0,0,1,3.375,3.525,11.147,11.147,0,0,1,1.25,5.4h0Zm16.85-9.2V294.4h-4.55v27.4h4.55V306.9q0-8.3,7.65-8.3h1.2v-4.7a10.593,10.593,0,0,0-5.425,1.3,8.736,8.736,0,0,0-3.425,3.65h0Zm35.6,22.95-12.95-13.75,12.9-13.65h-6.35l-10.55,12.15V284.8h-4.55v37h4.55V309.7l10.75,12.1h6.2Zm29.25-14.75a13.8,13.8,0,0,0-1.625-6.725,11.776,11.776,0,0,0-4.625-4.675,13.755,13.755,0,0,0-6.9-1.7,14.213,14.213,0,0,0-7.075,1.725A11.934,11.934,0,0,0,504.4,300.6a15.656,15.656,0,0,0-1.7,7.45,15.423,15.423,0,0,0,1.75,7.475,12.385,12.385,0,0,0,4.825,4.975,13.847,13.847,0,0,0,6.975,1.75,13.28,13.28,0,0,0,8.2-2.475,11.775,11.775,0,0,0,4.4-6.425h-4.9a7.269,7.269,0,0,1-2.775,3.675,8.412,8.412,0,0,1-4.925,1.375,8.612,8.612,0,0,1-8.9-8.6h21.9a26.762,26.762,0,0,0,.15-2.75h0Zm-4.7-.95H507.4a8.962,8.962,0,0,1,2.775-6.1,8.437,8.437,0,0,1,5.875-2.2,9.748,9.748,0,0,1,4.375.975,7.478,7.478,0,0,1,3.125,2.85,8.391,8.391,0,0,1,1.15,4.475h0Zm12.15,16a2.853,2.853,0,0,0,2.125-.9,3.2,3.2,0,0,0,0-4.4,2.853,2.853,0,0,0-2.125-.9,3.1,3.1,0,1,0,0,6.2h0Zm33.45,0.05a13.193,13.193,0,0,0,6.25-1.4,9.925,9.925,0,0,0,4-3.65,9.175,9.175,0,0,0,1.35-4.8,8.289,8.289,0,0,0-1.5-5.225,9.263,9.263,0,0,0-3.6-2.85,41.753,41.753,0,0,0-5.55-1.875q-2.85-.8-4.425-1.425a6.918,6.918,0,0,1-2.65-1.825A4.463,4.463,0,0,1,563.1,296a5.038,5.038,0,0,1,1.8-4.125,7.1,7.1,0,0,1,4.65-1.475,7.467,7.467,0,0,1,4.9,1.525,5.4,5.4,0,0,1,2.1,3.525h5a9.054,9.054,0,0,0-3.525-6.5A12.624,12.624,0,0,0,570,286.5a14.346,14.346,0,0,0-6.025,1.2,9.447,9.447,0,0,0-4.075,3.4,8.965,8.965,0,0,0-1.45,5.05,8.293,8.293,0,0,0,1.475,5.175,8.885,8.885,0,0,0,3.55,2.825,39.176,39.176,0,0,0,5.525,1.8,43.1,43.1,0,0,1,4.45,1.4,7.043,7.043,0,0,1,2.75,1.9,4.742,4.742,0,0,1,1.1,3.25,5.273,5.273,0,0,1-1.875,4.175A7.56,7.56,0,0,1,570.3,318.3a7.265,7.265,0,0,1-5.175-1.675A6.377,6.377,0,0,1,563.1,312.5h-4.85a8.7,8.7,0,0,0,1.6,5.025,10.28,10.28,0,0,0,4.275,3.4,14.9,14.9,0,0,0,6.175,1.225h0Zm30.249,0.1a14.547,14.547,0,0,0,7.1-1.75,12.993,12.993,0,0,0,5.075-4.975,14.6,14.6,0,0,0,1.875-7.475,14.777,14.777,0,0,0-1.825-7.45,12.624,12.624,0,0,0-4.975-4.925,15.269,15.269,0,0,0-14.1,0,12.577,12.577,0,0,0-4.975,4.95,14.81,14.81,0,0,0-1.825,7.425,15.255,15.255,0,0,0,1.775,7.475,12.454,12.454,0,0,0,4.9,4.975,14.023,14.023,0,0,0,6.975,1.75h0Zm0-4a9.2,9.2,0,0,1-4.5-1.125,8.138,8.138,0,0,1-3.275-3.425,11.892,11.892,0,0,1-1.225-5.65,11.592,11.592,0,0,1,1.25-5.6,8.25,8.25,0,0,1,3.325-3.425,9.814,9.814,0,0,1,9.125,0,8.517,8.517,0,0,1,3.4,3.425,11.22,11.22,0,0,1,1.3,5.6,11.053,11.053,0,0,1-1.325,5.6,8.742,8.742,0,0,1-3.475,3.45,9.6,9.6,0,0,1-4.6,1.15h0Zm18.35-10.2a15.763,15.763,0,0,0,1.7,7.5,12.179,12.179,0,0,0,4.725,4.95,13.574,13.574,0,0,0,6.925,1.75,13.175,13.175,0,0,0,8.25-2.525A12.049,12.049,0,0,0,644.9,313H640a7.1,7.1,0,0,1-2.75,4,8.5,8.5,0,0,1-5,1.4,8.025,8.025,0,0,1-6.3-2.7q-2.4-2.7-2.4-7.65,0-4.9,2.4-7.575a8.061,8.061,0,0,1,6.3-2.675,8.414,8.414,0,0,1,5.025,1.45A7.041,7.041,0,0,1,640,303.2h4.9a11.568,11.568,0,0,0-4.325-6.8,15,15,0,0,0-15.25-.7,12.233,12.233,0,0,0-4.725,4.925,15.507,15.507,0,0,0-1.7,7.425h0Zm34.4-18.1a2.855,2.855,0,0,0,2.125-.9,3.2,3.2,0,0,0,0-4.4,2.855,2.855,0,0,0-2.125-.9,3.1,3.1,0,1,0,0,6.2h0Zm-2.35,4.45v27.4h4.55V294.4h-4.55Zm10.6,13.6a15.728,15.728,0,0,0,1.7,7.4,12.618,12.618,0,0,0,4.65,5.05,12.422,12.422,0,0,0,6.6,1.8,12.039,12.039,0,0,0,6.225-1.575,10.722,10.722,0,0,0,4.025-3.975v5.1h4.6V294.4h-4.6v5a10.337,10.337,0,0,0-3.95-3.9,12.162,12.162,0,0,0-6.25-1.55,12.829,12.829,0,0,0-6.625,1.75,12.341,12.341,0,0,0-4.675,4.925,15.4,15.4,0,0,0-1.7,7.375h0Zm23.2,0.05a11.289,11.289,0,0,1-1.25,5.425,8.78,8.78,0,0,1-3.375,3.55,9.192,9.192,0,0,1-4.675,1.225,9.057,9.057,0,0,1-4.65-1.225,8.836,8.836,0,0,1-3.35-3.55A11.4,11.4,0,0,1,666.2,308a11.147,11.147,0,0,1,1.25-5.4,8.706,8.706,0,0,1,3.35-3.5,9.571,9.571,0,0,1,9.325.025,8.827,8.827,0,0,1,3.375,3.525,11.147,11.147,0,0,1,1.25,5.4h0Zm12.3-23.25v37h4.55v-37h-4.55ZM710.8,322.1a2.853,2.853,0,0,0,2.125-.9,3.2,3.2,0,0,0,0-4.4,2.853,2.853,0,0,0-2.125-.9,3.1,3.1,0,1,0,0,6.2h0Z"/>
  <path id="inhalt_" data-name="inhalt " class="cls-1" d="M373.132,157.5a8.679,8.679,0,0,0,6.375-2.625,9.36,9.36,0,0,0,0-13,8.679,8.679,0,0,0-6.375-2.625,9.125,9.125,0,1,0,0,18.25h0Zm-7.25,9.125V235.5h14.25V166.624h-14.25Zm67.749-1.125a28.593,28.593,0,0,0-11.563,2.375,23.6,23.6,0,0,0-8.937,6.625v-7.875h-14.25V235.5h14.25V197q0-9.249,4.687-14.188t12.688-4.937q8,0,12.625,4.937T447.756,197v38.5h14.125V194.874a32.907,32.907,0,0,0-3.625-16,24.018,24.018,0,0,0-10.063-10,30.89,30.89,0,0,0-14.562-3.375h0Zm82,0a30.733,30.733,0,0,0-12.188,2.375,23.9,23.9,0,0,0-9.187,6.75V143H480v92.5h14.25V197q0-9.249,4.687-14.188t12.688-4.937q8,0,12.625,4.937T528.879,197v38.5H543V194.874a33.373,33.373,0,0,0-3.563-16,24.026,24.026,0,0,0-9.75-10,28.884,28.884,0,0,0-14.062-3.375h0Zm40.748,35.25a39.213,39.213,0,0,0,4.313,18.562,32.337,32.337,0,0,0,11.687,12.75,31.956,31.956,0,0,0,30.5,1.313,28.311,28.311,0,0,0,9.875-8.125V235.5h14.375V166.624H612.752v10a28.818,28.818,0,0,0-9.687-7.938,30.074,30.074,0,0,0-14.188-3.187,31.417,31.417,0,0,0-28.187,16.875,38.121,38.121,0,0,0-4.313,18.375h0ZM612.752,201a25.307,25.307,0,0,1-2.937,12.437,20.51,20.51,0,0,1-7.688,8.063,20.111,20.111,0,0,1-10.25,2.75,19.871,19.871,0,0,1-10.187-2.813,20.705,20.705,0,0,1-7.75-8.187,25.646,25.646,0,0,1-2.938-12.5,24.583,24.583,0,0,1,2.938-12.313,20.266,20.266,0,0,1,7.687-7.875,20.474,20.474,0,0,1,10.25-2.687,20.131,20.131,0,0,1,10.25,2.75,20.635,20.635,0,0,1,7.688,8A24.954,24.954,0,0,1,612.752,201h0Zm33.124-58v92.5h14.25V143h-14.25Zm66.374,35.25V166.624H695.5V149.5H681.125v17.125H673v11.625h8.125v38.125q0,10.125,5.125,14.625T701,235.5h11.25V223.624H703.5q-4.377,0-6.187-1.688t-1.813-5.562V178.249h16.75Z"/>
  <path id="mehr" class="cls-1" d="M472.631,22.5a28.842,28.842,0,0,0-14.25,3.688,23.092,23.092,0,0,0-9.75,9.938,23.943,23.943,0,0,0-10-10.125,30.63,30.63,0,0,0-14.75-3.5,28.147,28.147,0,0,0-11.5,2.375,23.7,23.7,0,0,0-8.875,6.625V23.624h-14.25V92.5h14.25V54q0-9.249,4.688-14.187t12.687-4.937q8,0,12.625,4.938T438.131,54V92.5h14.125V54q0-9.249,4.688-14.187t12.687-4.937q8,0,12.625,4.938T486.881,54V92.5h14.125V51.874a32.457,32.457,0,0,0-3.687-16,24.394,24.394,0,0,0-10.125-10A30.894,30.894,0,0,0,472.631,22.5h0ZM582.254,56.374A35.969,35.969,0,0,0,578,38.686a30.048,30.048,0,0,0-11.875-11.938,35.093,35.093,0,0,0-17.375-4.25,36.086,36.086,0,0,0-17.937,4.375,30.332,30.332,0,0,0-12.125,12.438A39.031,39.031,0,0,0,514.379,58a38.123,38.123,0,0,0,4.438,18.688,31.551,31.551,0,0,0,12.25,12.5,35.162,35.162,0,0,0,17.687,4.438q12.123,0,20.313-6.062A31.03,31.03,0,0,0,580.379,72H565q-4.752,9.627-16.25,9.625a19.329,19.329,0,0,1-13.5-5,19.1,19.1,0,0,1-6.125-13.25h52.625a44.7,44.7,0,0,0,.5-7h0Zm-53-4.5a19.589,19.589,0,0,1,6.25-12.687A18.3,18.3,0,0,1,548.129,34.5a20.118,20.118,0,0,1,13.625,4.75,16.222,16.222,0,0,1,5.625,12.625H529.254ZM631.878,22.5a30.735,30.735,0,0,0-12.188,2.375,23.9,23.9,0,0,0-9.187,6.75V0h-14.25V92.5H610.5V54q0-9.249,4.687-14.187t12.688-4.937q8,0,12.625,4.938T645.128,54V92.5h14.125V51.874a33.372,33.372,0,0,0-3.563-16,24.026,24.026,0,0,0-9.75-10A28.884,28.884,0,0,0,631.878,22.5h0Zm59.748,11.125v-10h-14.25V92.5h14.25V56.249q0-10.5,4.313-14.75t12.687-4.25h3.625V22.5a24.594,24.594,0,0,0-12.312,2.938,22.371,22.371,0,0,0-8.313,8.188h0Z"/>
  <path id="bubble_herz_1" data-name="bubble+herz 1" class="cls-1" d="M118.769,321.662q-4.368-10.369-8.739-20.741l-0.187.119a10.483,10.483,0,0,1-1.225,2.623l0.051,0.493-0.375.239c0.017,0.164.035,0.329,0.052,0.493l-0.63.665,0.051,0.493-0.375.239c0.017,0.164.034,0.329,0.052,0.494l-0.375.238,0.051,0.494a4.39,4.39,0,0,1-.953,1.4l-0.988-2.79,0.187-.12-0.477-.748,0.187-.119-0.357-.562,0.187-.119q-0.178-.281-0.358-0.561l0.188-.12-0.648-1.429,0.188-.119-0.477-.749,0.187-.119q-0.178-.28-0.358-0.561l0.188-.12-0.477-.748,0.187-.12q-0.178-.281-0.358-0.561l0.188-.119c-0.12-.187-0.239-0.375-0.358-0.562l0.187-.119q-0.324-.714-0.647-1.429l0.187-.12q-0.324-.714-0.647-1.429l0.187-.119q-0.408-1.055-.818-2.11l0.188-.119-0.648-1.429,0.188-.12-0.477-.748,0.187-.12q-0.178-.281-0.358-0.561l0.188-.119-0.477-.749,0.187-.119q-0.178-.281-0.358-0.561l0.188-.12-0.358-.561,0.187-.12-0.647-1.429,0.187-.119-0.647-1.429,0.187-.12-0.477-.748,0.187-.119-0.358-.562,0.187-.119-0.477-.749a16.622,16.622,0,0,0-1.38-4.645,14.3,14.3,0,0,1-5.329,1.554l-0.562.358-0.119-.188-0.868.291-0.119-.188-0.868.291-0.119-.188-1.362.342-0.119-.187-0.681.171-0.426-.255-0.374.239L85.78,279.8l-0.681.171-0.426-.255-0.375.239-1.039-.391-0.375.239-2.878-.8-1.72-.22-0.238-.374-1.107-.084-0.545-.443-0.494.052-0.239-.374-0.494.051-0.238-.374-0.494.052-0.239-.375-0.494.052-0.664-.629-0.494.051-1.09-.884-0.187.119-0.238-.374-0.187.119-1.09-.884-0.187.12-0.358-.562-0.187.12-0.239-.375-0.187.12-0.358-.562-0.187.12-0.238-.375-0.187.12-0.358-.562-0.187.12-0.358-.562-0.187.119-1.022-1.19-0.187.119-0.477-.748c-0.856-.707-1.926-1.947-2.776-2.7l-1.431-2.246-0.187.12L58.432,262.5l0.187-.119-1.431-2.245-36.08-85.142-2.3-4.849c-0.326-1.158-1.068-2.688-1.4-3.846L16.7,165.176l0.187-.12-0.715-1.122,0.187-.12-0.715-1.123,0.187-.119-0.715-1.123c-1.049-3.72-3.507-7.578-4.565-11.3L2.029,130.585l-1.653-6.314,0.187-.119-0.341-1.361,0.187-.12L0.172,122.3l0.187-.119L0.121,121.8l0.187-.119-0.341-1.361,0.255-.426-0.29-.868,0.255-.426-0.238-.374,0.323-.732-0.238-.374L0.29,116.7l-0.238-.374,0.391-1.039L0.2,114.91l0.868-3.184,0.221-1.719,0.375-.239,0.085-1.106,0.375-.239,0.017-.8,0.375-.239-0.051-.493,0.443-.545-0.119-.188,0.63-.664a23.044,23.044,0,0,1,8.954-9.914,1.75,1.75,0,0,1-.1-0.987l0.187-.119L12.221,94.1l0.391-1.039-0.239-.374L13.242,89.5,13.4,88.089l0.443-.545,0.085-1.106L14.3,86.2q0.008-.4.017-0.8l0.374-.239-0.051-.494,0.443-.545-0.119-.187,0.375-.239L15.284,83.2l0.374-.239,0.136-.613,0.374-.239-0.119-.187,0.375-.239L16.305,81.5l0.375-.239-0.119-.187,0.374-.239-0.119-.187,0.885-1.09-0.119-.187,0.562-.358-0.119-.187,0.375-.239L18.28,78.4l0.562-.358-0.119-.187,0.749-.477-0.119-.187,0.562-.358-0.119-.187,0.749-.477-0.119-.187,0.936-.6L21.242,75.2l1.124-.716A28.619,28.619,0,0,1,28.052,70.6l0.119,0.187,1.124-.716,0.119,0.187,0.749-.477,0.119,0.187,0.749-.477,0.119,0.187L31.9,69.2c7.148-1.614,14.529-4.048,21.674-5.654l0.749-.477,0.119,0.187L55,62.894l0.119,0.187,0.562-.358L55.8,62.911l0.562-.358,0.119,0.187,0.562-.358,0.119,0.187,2.792-.99,0.119,0.187,0.749-.477,0.119,0.187,0.562-.358,0.119,0.187,0.562-.358,0.119,0.187,0.562-.358,0.119,0.187,0.562-.358,0.119,0.187,0.749-.477c7.376-1.637,14.99-4.172,22.355-5.824l3.66-1.28L90.554,53.4l0.562-.358,0.119,0.187L91.8,52.87l0.119,0.187,0.562-.358L92.6,52.886l0.562-.358,0.119,0.187,2.792-.99,0.119,0.187,0.749-.477,0.119,0.187,0.562-.358,0.119,0.187,0.562-.358,0.119,0.187,0.562-.358L99.1,51.11l0.562-.358,0.119,0.187,3.66-1.28,0.12,0.187,0.561-.358,0.12,0.187,0.562-.358c0.039,0.062.079,0.125,0.119,0.187l0.562-.358,0.119,0.187,0.562-.358c0.039,0.062.079,0.125,0.119,0.187l2.792-.99L109.2,48.36l0.749-.477,0.12,0.187,0.561-.358,0.12,0.187,0.561-.358,0.12,0.187,0.561-.358,0.12,0.187,0.562-.358,0.119,0.187,0.749-.477,0.119,0.187,0.562-.358,0.119,0.187,0.562-.358,0.119,0.187,0.562-.358,0.119,0.187,0.562-.358,0.119,0.187,2.792-.99,0.12,0.187,0.749-.477c0.039,0.062.079,0.125,0.119,0.187l0.562-.358,0.119,0.187,0.562-.358,0.119,0.187,0.562-.358,0.119,0.187,0.562-.358,0.119,0.187,0.749-.477c0.04,0.062.08,0.125,0.119,0.187l0.562-.358c0.04,0.062.08,0.125,0.119,0.187L125,43.818l0.12,0.187,0.749-.477,0.119,0.187,7.406-3.666c1.418-.413,3.159-1.455,4.6-1.876l1.311-.835c0.039,0.062.079,0.125,0.119,0.187l1.5-.955,0.119,0.187,1.311-.835,0.119,0.187,1.5-.954c3.438-1,7.066-3.576,10.5-4.588l1.5-.955,0.12,0.187,1.311-.835c0.039,0.062.079,0.125,0.119,0.187l9.023-4.434c1.905-.556,4.115-1.961,6.027-2.525l1.5-.955c1.418-.415,3.16-1.455,4.6-1.876l1.311-.835,0.119,0.187,1.5-.954,0.12,0.187,1.311-.835c0.039,0.062.079,0.125,0.119,0.187l1.311-.835c0.039,0.062.079,0.125,0.119,0.187l1.5-.954c0.04,0.062.08,0.125,0.119,0.187l1.311-.835c2.486-.725,5.18-2.566,7.645-3.292l2.928-1.6,0.119,0.187,5.976-3.018c0.04,0.062.08,0.125,0.119,0.187l1.311-.835c0.04,0.062.08,0.125,0.119,0.187l1.5-.955c0.039,0.062.079,0.125,0.119,0.187l1.123-.716,0.12,0.187,2.485-1.058,0.12,0.187,0.561-.358,0.12,0.187,0.374-.239c0.04,0.062.08,0.125,0.119,0.187l0.562-.358c0.04,0.062.08,0.125,0.119,0.187l0.375-.239,0.119,0.187,0.562-.358c0.04,0.062.08,0.125,0.119,0.187l1.362-.342,0.12,0.187,0.868-.29,0.426,0.255,0.868-.29,0.119,0.187,0.681-.171L219.08,3.87l0.374-.239,0.426,0.255,0.681-.171,1.345,0.458,0.375-.239,2.571,0.73,1.107,0.084L226.2,5.123l1.414,0.152,0.238,0.374,0.494-.052,0.238,0.374,0.8,0.016,0.238,0.374,0.494-.052,0.238,0.374,0.494-.052,0.664,0.629L232,7.211l1.09,0.884,0.187-.119L233.52,8.35l0.187-.119,1.09,0.884L234.984,9q0.179,0.281.358,0.561l0.187-.119,0.238,0.374,0.188-.119,0.357,0.561,0.188-.119,0.238,0.374,0.187-.119q0.18,0.281.358,0.561l0.187-.119,0.358,0.561,0.187-.119,1.022,1.191,0.187-.119,1.261,1.565,0.187-.119,0.732,0.323,0.375-.239,3.184,0.865,1.72,0.22,0.238,0.374,1.107,0.084,0.238,0.374,0.494-.051L249,16.115l0.493-.051,0.239,0.374,0.494-.052,0.544,0.442,0.188-.119,0.238,0.374,0.613,0.136,0.239,0.374,0.187-.119,0.238,0.374,0.188-.119L252.9,18.1l0.187-.119,0.239,0.374,0.187-.119,1.09,0.884L254.788,19l0.9,1,0.187-.119,0.239,0.374,0.187-.119q0.179,0.281.358,0.561l0.187-.119,0.357,0.561,0.188-.119,0.477,0.749,0.187-.119,0.477,0.749,0.187-.119,0.477,0.749,0.187-.119L261,25.04l0.187-.119q0.657,1.029,1.312,2.058l0.187-.119a14.048,14.048,0,0,1,2.317,4.049L266.2,32.78l-0.187.119,0.834,1.31-0.187.119,0.6,0.936-0.187.119,0.6,0.936c0.717,2.756,1.662,5.807,2.283,8.543l0.477,0.749-0.187.119q0.178,0.281.358,0.561l-0.188.119,0.477,0.749-0.187.119q0.178,0.281.358,0.561l-0.188.119,0.358,0.561-0.187.119q0.322,0.715.647,1.429l-0.187.119q0.323,0.714.647,1.429l-0.187.119,0.647,1.429-0.187.119,0.477,0.749-0.188.119q0.18,0.281.358,0.561l-0.187.119q0.179,0.281.358,0.561l-0.188.119,0.648,1.429-0.188.119,0.648,1.429-0.188.119,0.818,2.11-0.187.119q0.323,0.714.647,1.429l-0.187.119,0.477,0.749-0.188.119q0.18,0.281.358,0.561l-0.187.119L276,64.686c1.906,8.574,5.333,17.307,7.275,25.883l0.477,0.749-0.187.119q0.179,0.281.358,0.561l-0.188.119,0.477,0.748-0.187.119q0.178,0.281.358,0.561l-0.188.119q0.18,0.281.358,0.561l-0.187.119,0.647,1.429-0.187.119,0.647,1.429-0.187.119q0.408,1.055.818,2.11l-0.188.119,0.767,1.616-0.187.119q1.1,1.932,2.2,3.862l-0.188.12q0.6,0.934,1.193,1.871l-0.188.119q0.6,0.936,1.193,1.871l-0.188.12,1.193,1.871-0.188.119,1.193,1.872-0.188.119q0.6,0.936,1.193,1.871l-0.188.12q0.537,0.841,1.073,1.684l-0.187.119,1.192,1.871-0.187.12,1.192,1.871-0.187.119L297.614,123l-0.187.12,1.192,1.871-0.187.119,1.192,1.872-0.187.119,1.192,1.871-0.187.119,1.192,1.872-0.187.119,1.192,1.871-0.187.12,1.192,1.871-0.187.119q3.048,5.819,6.1,11.637c0.306,1.049.9,2.442,1.158,3.472l0.477,0.748-0.187.119q0.324,0.715.647,1.43l-0.187.119,0.358,0.561-0.188.12q0.18,0.281.358,0.561l-0.187.119,0.238,0.375-0.187.119q0.178,0.28.358,0.561l-0.188.12c0.08,0.124.159,0.249,0.239,0.374l-0.187.119,0.357,0.561-0.187.12,0.341,1.361-0.187.12,0.238,0.374-0.187.119q0.169,0.681.341,1.361-0.129.213-.256,0.426c0.1,0.289.193,0.579,0.29,0.868l-0.255.426,0.238,0.374-0.255.426,0.238,0.374-0.323.732,0.238,0.375-0.323.732,0.238,0.374q-0.264.825-.527,1.652l0.238,0.374q-0.264.825-.527,1.651l0.051,0.494-0.375.239q-0.109.859-.221,1.719l-0.374.239c-0.006.266-.011,0.533-0.017,0.8l-0.375.238c0,0.267-.011.534-0.016,0.8l-0.375.239,0.051,0.493-0.63.665,0.051,0.493-0.374.239-0.136.613-0.375.239,0.12,0.187-0.375.238,0.119,0.187-0.63.665a4.113,4.113,0,0,0,.222,1.174l-0.255.426c0.1,0.289.193,0.578,0.289,0.868l-0.255.425q0.144,0.435.29,0.868l-0.324.732,0.239,0.375-0.256.425,0.239,0.375-0.392,1.038,0.239,0.375q-0.229.672-.46,1.345c0.08,0.124.159,0.249,0.239,0.374q-0.332,1.132-.664,2.264-0.007.4-.017,0.8l-0.374.239q-0.111.859-.221,1.719c-0.148.182-.295,0.364-0.443,0.545l0.051,0.494-0.374.239,0.051,0.493c-0.148.182-.3,0.364-0.443,0.545l0.12,0.187-0.375.239,0.051,0.494-0.374.238,0.051,0.494-0.885,1.09,0.119,0.187-0.375.239,0.12,0.187-0.886,1.09,0.12,0.187-0.562.358,0.119,0.187-0.374.239,0.119,0.187-0.562.358,0.119,0.187-0.562.358,0.12,0.187-0.562.358c0.039,0.063.079,0.125,0.119,0.187l-0.562.358,0.119,0.187-0.749.478,0.12,0.187-2.129,1.619a25.879,25.879,0,0,1-5.311,3.647l-0.119-.187-1.311.835-0.12-.187-0.749.477-0.119-.187-0.749.477-0.119-.187-0.749.478c-0.04-.063-0.08-0.125-0.119-0.188l-2.112.819-0.119-.187-0.562.358-0.119-.187-0.562.358-0.119-.187-0.562.358-0.119-.187-0.562.358-0.119-.187-0.749.477-0.119-.187-0.562.358-0.119-.187-0.562.358c-0.04-.063-0.08-0.125-0.119-0.188l-0.562.358c-0.04-.062-0.08-0.124-0.119-0.187l-0.562.358-0.12-.187-3.66,1.28-0.119-.187-0.562.358-0.119-.187-0.562.358c-0.04-.063-0.08-0.125-0.119-0.188l-0.562.358c-0.04-.062-0.08-0.124-0.119-0.187l-3.916,1.706c-3.513.913-7.276,2.8-10.795,3.72q-0.995.5-1.991,1.006c-2.494.648-5.323,1.957-7.815,2.612l-1.992,1.006-0.119-.187-0.75.477-0.119-.187-0.936.6c-0.04-.062-0.08-0.124-0.119-0.187l-0.937.6c-0.039-.063-0.079-0.125-0.119-0.187l-0.749.477-0.119-.187-1.805.887-0.119-.188-1.992,1.007c-0.04-.063-0.08-0.125-0.119-0.188l-1.8.887-0.119-.187-0.749.477-0.12-.187-0.936.6-0.119-.187-1.805.886-0.119-.187-1.992,1.006-0.119-.187-1.805.887-0.119-.187-0.749.477-0.119-.187-0.937.6c-0.039-.063-0.079-0.125-0.119-0.188l-0.936.6-0.12-.187-1.8.887c-0.04-.063-0.08-0.125-0.119-0.188l-0.75.478c-0.039-.063-0.079-0.125-0.119-0.187l-0.936.6-0.119-.187-0.937.6c-4.535,1.177-9.24,3.639-13.774,4.829l-1.991,1.006c-2.494.648-5.323,1.957-7.815,2.611l-1.992,1.007c-0.04-.063-0.08-0.125-0.119-0.188l-0.75.478c-0.039-.063-0.079-0.125-0.119-0.187l-0.936.6-0.119-.187-0.937.6c-0.039-.063-0.079-0.125-0.119-0.188l-0.749.478-0.119-.187-0.937.6c-4.535,1.178-9.24,3.638-13.773,4.83l-1.992,1.006-0.12-.187-1.8.886c-0.04-.062-0.08-0.124-0.119-0.187l-0.75.477-0.119-.187-0.936.6-0.119-.187-0.937.6c-3.5.915-7.292,2.8-10.794,3.721l-1.992,1.006-0.119-.187-1.805.886-0.119-.187-0.749.478c-0.04-.063-0.08-0.125-0.119-0.188l-0.937.6-0.119-.187-0.936.6a11.182,11.182,0,0,0-2.793.989l-0.357,2.333-0.374.238q-0.145,1.013-.289,2.026l-0.375.239q-0.144,1.013-.289,2.025l-0.374.239-0.357,2.332-0.375.239q-0.246,1.473-.493,2.945l-0.375.239q-0.246,1.471-.493,2.945l-0.187.119,0.051,0.494-0.375.238q-0.348,1.932-.7,3.865l-0.374.238q-0.35,1.932-.7,3.865l-0.374.238q-0.315,1.779-.63,3.558l-0.374.239,0.119,0.187-0.391,1.039-0.426,2.639-0.374.238q-0.35,1.932-.7,3.865l-0.375.238,0.119,0.187c-0.108.244-.215,0.489-0.323,0.733q-0.213,1.318-.425,2.638l-0.375.239,0.051,0.494-0.391,1.038a42.958,42.958,0,0,1-1.8,6.674q-0.314,1.779-.629,3.558l-0.374.239q-0.35,1.932-.7,3.864l-0.562.358-0.119-.187c0.138-1.011-1.65-2.776-2.01-3.981l0.188-.119-1.193-1.872,0.188-.119q-0.6-.936-1.193-1.871l0.188-.12q-0.6-.935-1.193-1.871l0.188-.119q-0.6-.936-1.193-1.871l0.188-.12-1.073-1.684a20.1,20.1,0,0,1-.937-2.3l-0.188.119,0.12,0.188c-0.148.181-.3,0.363-0.443,0.545-0.028.368-.057,0.737-0.085,1.106l-0.374.239c-0.029.369-.057,0.737-0.085,1.106l-0.375.239q-0.042.554-.085,1.106L125,303.75l0.051,0.494c-0.063.039-.125,0.079-0.187,0.119l0.051,0.493-0.375.239q-0.042.553-.085,1.106l-0.374.239,0.051,0.494c-0.063.039-.125,0.079-0.187,0.119l0.051,0.494-0.375.238q-0.042.553-.085,1.107l-0.374.238c-0.028.369-.057,0.738-0.085,1.107l-0.375.238q-0.042.553-.085,1.107l-0.374.239c-0.028.368-.057,0.737-0.085,1.106l-0.375.239-0.084,1.106-0.375.239c-0.028.368-.057,0.737-0.085,1.106l-0.374.239c-0.029.369-.057,0.737-0.085,1.106l-0.375.239c-0.028.369-.057,0.738-0.085,1.106l-0.374.239c-0.006.267-.012,0.533-0.017,0.8l-0.443.545,0.119,0.187A3.275,3.275,0,0,1,118.769,321.662ZM24.171,76.488l0.119,0.187-1.124.716-2.775,3.083,0.119,0.187-0.375.239,0.119,0.187-0.562.358,0.119,0.187-0.885,1.09,0.119,0.187-0.63.664,0.051,0.494-0.63.664,0.051,0.494-0.375.239,0.051,0.494-0.374.239,0.051,0.494-0.442.545q-0.009.4-.017,0.8l-0.375.239-0.357,2.332a9.738,9.738,0,0,0-.629,3.558,18.249,18.249,0,0,1,5.091-1.928l0.936-.6c1.318-.352,3-1.069,4.342-1.451l4.358-2.251,0.119,0.187,1.5-.955,0.119,0.187,1.311-.835,0.119,0.187,1.5-.954c3.439-1,7.066-3.58,10.5-4.588l9.023-4.434c1.407-.41,3.19-1.464,4.6-1.876l1.5-.955c1.9-.556,4.115-1.963,6.027-2.525l1.5-.955,0.119,0.187,1.311-.835,0.119,0.187,1.311-.835,0.119,0.187,1.5-.955,0.119,0.187,1.311-.835L73.99,67.9l1.5-.954c3.439-1.006,7.067-3.578,10.5-4.588l4.546-2.37c3.438-1.011,7.067-3.573,10.5-4.588l1.5-.955,0.119,0.187,1.311-.835c0.04,0.062.08,0.125,0.119,0.187l1.5-.955c0.039,0.062.079,0.125,0.119,0.187l3.8-1.893c-0.039-.062-0.079-0.125-0.119-0.187a5.712,5.712,0,0,1-2.043.512l-1.43.648c-0.04-.062-0.08-0.125-0.119-0.187l-0.562.358c-0.04-.062-0.08-0.125-0.119-0.187l-0.562.358-0.119-.187-0.562.358-0.119-.187L103,53.1c-0.039-.062-0.079-0.125-0.119-0.187l-0.562.358c-0.039-.062-0.079-0.125-0.119-0.187l-0.562.358c-0.039-.062-0.079-0.125-0.119-0.187l-0.562.358-0.119-.187-0.562.358c-0.039-.062-0.079-0.125-0.119-0.187l-0.749.477-0.119-.187-0.562.358-0.119-.187-0.562.358-0.119-.187-0.562.358L97.246,54.4l-0.749.477-0.119-.187-0.562.358L95.7,54.858l-0.562.358-0.119-.187-0.562.358L94.334,55.2l-0.562.358-0.119-.187-2.792.99-0.119-.187-0.749.477-0.119-.187-0.562.358-0.119-.187-0.562.358L88.511,56.8l-0.562.358-0.119-.187-0.562.358-0.119-.187-2.792.99-0.119-.187-0.749.477C76.126,60.05,68.5,62.61,61.134,64.251l-0.749.477-0.119-.187L59.7,64.9l-0.119-.187-0.562.358L58.9,64.882l-0.562.358-0.119-.187-0.562.358-0.119-.187-2.792.99-0.119-.187-0.749.477-0.119-.187-0.562.358-0.119-.187-0.562.358L52.4,66.658l-0.562.358-0.119-.187-0.562.358L51.037,67l-2.792.99L48.126,67.8l-0.749.477-0.119-.187-0.562.358-0.119-.187-0.562.358L45.9,68.434l-0.562.358-0.119-.187-0.562.358-0.119-.187-0.749.477-0.119-.187-0.562.358-0.119-.187-0.562.358L42.3,69.408l-0.562.358-0.119-.187-0.562.358-0.119-.187-0.749.477-0.119-.187-0.562.358-0.119-.187-0.562.358-0.119-.187-0.562.358-0.119-.187-0.749.477-0.119-.187L36.6,71.2l-0.119-.187-0.562.358L35.8,71.184l-0.562.358-0.119-.187-0.562.358-0.119-.187-2.111.819-0.119-.187-0.749.477-0.119-.187-0.749.477-0.119-.187-1.124.716-0.119-.187ZM101.256,273.1q8.686,20.246,17.376,40.5c0.062-.04.124-0.08,0.187-0.119q0.007-.4.017-0.8l0.374-.239q0.044-.553.085-1.106l0.375-.239q0.042-.554.085-1.107l0.374-.238c0.028-.369.057-0.738,0.085-1.107l0.375-.238q0.042-.554.085-1.107l0.374-.238c0.028-.369.057-0.738,0.085-1.107l0.375-.238,0.084-1.107,0.375-.239c0.028-.368.057-0.737,0.085-1.106l0.374-.239q0.043-.552.085-1.106l0.375-.239c0.028-.369.057-0.737,0.085-1.106l0.374-.239q0.043-.553.085-1.106l0.375-.239q0.042-.554.085-1.106l0.374-.239q0.044-.553.085-1.106l0.375-.239q0.042-.554.085-1.107c2.955-7.35,4.97-14.848,7.981-22.185,0.006-.267.011-0.534,0.017-0.8l0.374-.238q0.009-.4.017-0.8l0.375-.239q0.007-.4.017-0.8l0.374-.238c0.028-.369.057-0.738,0.085-1.107l0.375-.239c0-.266.011-0.533,0.016-0.8l0.375-.238c0.006-.267.011-0.534,0.017-0.8l0.374-.239q0.009-.4.017-0.8l0.375-.238q0.007-.4.017-0.8l0.374-.238c0.006-.267.011-0.534,0.017-0.8l0.375-.239q0.007-.4.017-0.8l0.374-.238c0.006-.267.011-0.534,0.017-0.8l0.374-.239-0.051-.494a2.742,2.742,0,0,1,.954-1.4c0.658,0.086,1.191-.516,1.923-0.7l0.12,0.187,0.936-.6,0.119,0.187,0.749-.477,0.12,0.187,0.936-.6,0.119,0.187,0.936-.6,0.12,0.187,0.749-.478,0.119,0.188,1.805-.887,0.119,0.187,1.992-1.006c5.186-1.343,10.521-4.172,15.7-5.529l1.991-1.006,0.12,0.187,0.749-.477,0.119,0.187,0.936-.6,0.12,0.187,0.936-.6,0.119,0.187,0.749-.477,0.12,0.187,0.936-.6,0.119,0.187,0.749-.477,0.119,0.187,0.937-.6c0.039,0.063.079,0.125,0.119,0.188l0.936-.6,0.12,0.187,0.749-.477,0.119,0.187,0.936-.6c4.535-1.174,9.253-3.643,13.774-4.829l4.971-2.115c4.524-1.174,9.241-3.642,13.774-4.83l3.916-1.7c3.5-.91,7.291-2.8,10.794-3.721L225.645,227c2.2-.572,4.725-1.721,6.947-2.321l0.936-.6c0.04,0.063.08,0.125,0.119,0.188l0.749-.478,0.12,0.187,0.936-.6,0.119,0.187,0.749-.477,0.12,0.187,0.936-.6,0.119,0.187,0.937-.6,0.119,0.187,0.749-.477,0.119,0.187,1.8-.887,0.119,0.187,1.992-1.006,0.119,0.187,0.749-.477,0.119,0.187,0.937-.6,0.119,0.187,0.936-.6,0.12,0.187,0.749-.477,0.119,0.187,1.805-.887c0.039,0.063.079,0.125,0.119,0.187l1.992-1.006,0.119,0.187,1.805-.886,0.119,0.187,0.749-.477c0.04,0.062.08,0.124,0.119,0.187l0.937-.6c0.039,0.063.079,0.125,0.119,0.187l0.936-.6c4.535-1.183,9.241-3.635,13.774-4.83l1.992-1.006c3.511-.922,7.277-2.789,10.794-3.72l3.916-1.706c2.6-.689,7.6-2.35,9.96-5.03l1.123-.716,3.03-3.509c-0.039-.063-0.079-0.125-0.119-0.187l0.885-1.09c-0.039-.063-0.079-0.125-0.119-0.188l0.375-.238-0.119-.187,0.885-1.091-0.051-.493,0.374-.239-0.051-.493,0.374-.239c0.006-.267.012-0.533,0.017-0.8l0.375-.239q0.007-.4.017-0.8l0.374-.238,0.357-2.332q0.333-1.132.664-2.265l-0.238-.374q0.195-.519.391-1.039l-0.239-.374q0.129-.213.256-0.426l-0.171-.681,0.188-.119-0.239-.374q0.127-.213.256-0.426l-0.239-.374,0.255-.426q-0.169-.681-0.34-1.361l0.255-.426c-0.08-.125-0.159-0.25-0.239-0.374l0.188-.12c-0.08-.124-0.159-0.249-0.239-0.374l0.188-.119q-0.18-.281-0.358-0.562l0.187-.119c-0.1-.289-0.193-0.578-0.289-0.868l0.187-.119q-0.2-.528-0.409-1.055l0.187-.119-0.357-.562,0.187-.119-0.358-.561,0.187-.12-0.357-.561,0.187-.119-0.477-.749,0.187-.119-0.477-.749,0.188-.119-0.477-.748,0.187-.12-5.349-12.114c-0.931-3.3-3.1-6.76-4.037-10.056l-1.363-2.552c-1.065-3.719-3.507-7.578-4.565-11.3q-0.358-.561-0.715-1.123l0.187-.119-0.716-1.123,0.188-.119L286.02,129.6l0.188-.119-0.716-1.123c-0.326-1.158-1.067-2.688-1.4-3.845q-0.357-.562-0.715-1.123c-0.449-1.593-1.472-3.5-1.925-5.088q-0.358-.561-0.715-1.123c-0.57-2.021-1.879-4.309-2.454-6.329q-2.733-6.15-5.468-12.3c-1.049-3.721-3.507-7.578-4.565-11.3l-1.243-2.365,0.187-.119-0.835-1.31c-0.331-1.156-1.068-2.689-1.4-3.846l-2.3-4.849c-1.173-4.144-3.912-8.4-5.094-12.54L255.8,58.611c-0.7-2.446-2.281-5.126-2.982-7.572l-1.243-2.365c-0.332-1.156-1.065-2.69-1.4-3.846l-0.715-1.123c-0.865-3-3.563-8.232-6.183-10.531q-0.358-.561-0.715-1.123l-0.188.119-0.6-.936-0.187.119-0.477-.748-0.187.119-0.477-.748-0.188.119-0.357-.561-0.187.119-0.477-.748-0.188.119-0.238-.374-0.187.119-0.9-1-0.187.119-0.239-.374-0.187.119q-0.179-.281-0.358-0.561l-0.187.119-1.09-.884-0.187.119-0.239-.374-0.187.119-0.664-.629-0.494.052-0.664-.629-0.187.119-0.545-.442-0.494.052-0.238-.374-0.494.052-0.545-.442-0.8-.016-0.239-.374-2.333-.355-2.571-.73a34.58,34.58,0,0,0-9.994.843l-0.749.477-0.12-.187-0.749.477-0.119-.187-0.936.6-0.12-.187-0.749.477-0.119-.187-0.936.6-0.119-.187-1.8.887c-0.04-.062-0.08-0.125-0.119-0.187l-0.937.6c-0.039-.062-0.079-0.125-0.119-0.187l-0.749.477c-0.04-.062-0.08-0.125-0.119-0.187l-0.937.6c-0.039-.062-0.079-0.125-0.119-0.187l-0.936.6c-0.04-.062-0.08-0.125-0.119-0.187l-0.749.477-0.12-.187-1.8.887-0.12-.187L199.146,29.2l-0.119-.187-0.749.477-0.119-.187-0.936.6-0.12-.187-0.936.6c-0.04-.062-0.08-0.125-0.119-0.187L195.3,30.6l-0.12-.187-0.936.6c-4.527,1.177-9.253,3.642-13.774,4.83l-1.992,1.006-0.119-.187-1.805.887-0.119-.187-0.749.477-0.119-.187-0.936.6-0.12-.187-0.936.6c-0.04-.062-0.08-0.125-0.119-0.187l-0.749.477-0.12-.187-0.936.6-0.119-.187-0.937.6c-0.039-.062-0.079-0.125-0.119-0.187l-0.749.477-0.119-.187-0.936.6-0.12-.187-0.749.477c-0.039-.062-0.079-0.125-0.119-0.187l-0.936.6-0.12-.187-0.936.6-0.119-.187-0.749.477c-0.04-.062-0.08-0.125-0.119-0.187l-0.937.6c-4.534,1.175-9.253,3.643-13.774,4.83l-4.971,2.115-0.119-.187-1.8.887-0.119-.187-0.749.477c-0.04-.062-0.08-0.125-0.119-0.187l-0.937.6-0.119-.187-0.936.6c-5.175,1.343-10.528,4.172-15.7,5.529l-4.972,2.115c-4.523,1.174-9.24,3.642-13.773,4.829L101.76,65.2c-3.5.91-7.291,2.8-10.794,3.72l-1.992,1.006c-3.5.91-7.291,2.8-10.794,3.72l-1.992,1.006-0.119-.187-1.8.887-0.119-.187-0.749.477-0.119-.187-0.936.6-0.119-.187-1.8.887L70.3,76.566,68.3,77.572l-0.119-.187-1.8.887-0.119-.187-0.749.477-0.119-.187-0.936.6-0.119-.187-1.8.887-0.119-.187-0.936.6-0.119-.187-0.749.477-0.119-.187-0.936.6-0.119-.187-0.936.6L58.379,81l-0.749.477-0.119-.187-0.936.6c-4.534,1.179-9.254,3.64-13.774,4.83l-2.86,1.3-0.119-.187-1.992,1.006c-3.511.921-7.277,2.789-10.794,3.72L25.042,93.56l-0.119-.187-1.8.887L23,94.072l-0.749.477-0.119-.187-0.936.6-0.119-.187-0.936.6c-2.836.754-7.07,2.523-9.347,5.166L9.226,101.8l0.119,0.187-0.562.358L8.9,102.527l-0.562.358,0.119,0.187L7.9,103.43l0.119,0.188-0.562.358,0.119,0.187-0.885,1.09,0.119,0.187-0.375.239,0.119,0.187-0.375.238L6.3,106.291l-0.63.665,0.119,0.187-0.443.545L5.4,108.182l-0.375.238,0.051,0.494-0.375.238-0.017.8-0.375.239-0.561,3.252-0.664,2.264,0.238,0.374L3,116.814l0.238,0.374-0.323.732,0.238,0.374L2.9,118.72l0.29,0.868-0.255.426,0.341,1.361-0.255.426,0.358,0.561-0.187.119,0.238,0.375-0.187.119,0.341,1.361-0.187.12L3.918,125.7l-0.187.119,0.238,0.374-0.187.12L4.43,127.74l-0.187.119L4.6,128.421l-0.187.119,0.477,0.748-0.187.12,0.6,0.935-0.187.12,1.772,3.607c0.328,1.157,1.067,2.688,1.4,3.845L9,139.038c0.327,1.158,1.067,2.688,1.4,3.845l0.715,1.123c1.051,3.721,3.507,7.579,4.565,11.3l1.243,2.365-0.187.119,3.356,7.333c0.326,1.159,1.068,2.688,1.4,3.846L22.2,170.09c0.326,1.158,1.068,2.688,1.4,3.845l0.715,1.123c1.048,3.721,3.508,7.578,4.565,11.3l1.243,2.365-0.187.119,0.715,1.123c0.465,1.65,1.578,3.634,2.044,5.275l0.715,1.122c0.57,2.022,1.878,4.309,2.453,6.33l0.715,1.123c0.449,1.593,1.472,3.5,1.925,5.088l0.715,1.122c0.327,1.158,1.068,2.688,1.4,3.846l0.715,1.123c1.051,3.72,3.507,7.578,4.565,11.3l1.244,2.364-0.187.12,2.828,6.091-0.187.119,0.715,1.123-0.187.119,0.715,1.123-0.187.119,0.715,1.123c1.06,3.72,3.5,7.579,4.565,11.3l1.243,2.365c0.612,2.109,1.953,4.436,2.572,6.517l1.55,2.432-0.187.12,1.55,2.432,0.187-.119,1.431,2.245,0.187-.119,1.618,2.126,0.187-.119,0.477,0.749,0.187-.12,0.477,0.749,0.187-.12,0.477,0.749,0.187-.119,0.358,0.561L68.8,270.1l0.9,1,0.187-.119,0.783,0.816,0.187-.119,0.664,0.629,0.187-.119,0.358,0.561,0.187-.119,0.238,0.374,0.187-.119,0.239,0.374,0.494-.052,1.09,0.884L75,274.042l0.664,0.629,0.494-.051,0.239,0.374,0.8,0.016,0.238,0.374,1.107,0.085,0.238,0.374,6.011,1.169,0.375-.239L85.9,277.1l0.374-.239,0.119,0.187,0.374-.238,0.426,0.255,0.868-.29,0.426,0.255,0.374-.239,0.119,0.187,0.375-.239,0.119,0.187,0.562-.357,0.119,0.187,0.868-.29,0.119,0.187,2.792-.99A58.289,58.289,0,0,0,101.256,273.1ZM59.808,77.46c0.658,0.087,1.192-.516,1.924-0.7l0.119,0.187,0.936-.6,0.119,0.187,0.749-.477,0.119,0.187,0.936-.6,0.119,0.187,0.936-.6,0.119,0.187,0.749-.477,0.119,0.187,1.8-.887,0.119,0.187,1.992-1.006,0.119,0.187,0.749-.477,0.119,0.187,0.936-.6,0.119,0.187,0.936-.6,0.119,0.187,0.749-.477,0.119,0.187,0.936-.6,0.119,0.187,0.749-.477,0.119,0.187,0.936-.6,0.119,0.187,0.936-.6L78.673,70.7l0.749-.477,0.119,0.187,0.936-.6c4.534-1.174,9.253-3.644,13.774-4.829l4.971-2.115c4.524-1.174,9.241-3.642,13.774-4.83l3.916-1.706c3.5-.91,7.291-2.8,10.794-3.72l3.916-1.706c2.861-.742,6.021-2.273,8.871-3.021l1.992-1.006c2.2-.572,4.724-1.721,6.946-2.321l0.936-.6,0.12,0.187,0.749-.477,0.119,0.187,0.936-.6,0.12,0.187,0.749-.477c0.039,0.062.079,0.125,0.119,0.187l0.936-.6c0.04,0.062.08,0.125,0.119,0.187l0.937-.6c0.039,0.062.079,0.125,0.119,0.187l0.749-.477c0.04,0.062.08,0.125,0.119,0.187l1.8-.887,0.119,0.187,1.992-1.006c0.04,0.062.08,0.125,0.119,0.187l0.749-.477,0.12,0.187,0.936-.6,0.119,0.187,0.937-.6,0.119,0.187,0.749-.477,0.119,0.187,0.937-.6c0.039,0.062.079,0.125,0.119,0.187l0.749-.477,0.119,0.187,0.936-.6,0.12,0.187,0.936-.6,0.119,0.187,0.749-.477,0.12,0.187,0.936-.6c4.528-1.175,9.253-3.641,13.774-4.829l3.916-1.706c0.039,0.062.079,0.125,0.119,0.187l0.749-.477,0.119,0.187,0.936-.6,0.12,0.187,0.936-.6,0.119,0.187,0.749-.477,0.12,0.187,1.991-1.006c4.523-1.181,9.242-3.634,13.774-4.829l0.937-.6c0.039,0.062.079,0.125,0.119,0.187l0.749-.477,0.119,0.187,0.937-.6c0.039,0.062.079,0.125,0.119,0.187l0.936-.6c0.04,0.062.08,0.125,0.119,0.187l0.749-.477,0.12,0.187,0.936-.6,0.119,0.187,0.562-.358c0.04,0.062.08,0.125,0.119,0.187l1.43-.648,0.12,0.187,0.374-.239c0.04,0.062.08,0.125,0.119,0.187l0.562-.358,0.119,0.187,0.869-.29c0.039,0.062.079,0.125,0.119,0.187l0.562-.358,0.119,0.187,0.375-.239,0.119,0.187,0.374-.239,0.426,0.255,1.362-.342,0.426,0.255,0.374-.239,0.426,0.255,0.375-.239,0.732,0.323,0.374-.239,1.039,0.391c5.722,0.324,11.2,3.16,16.177,6.794l0.477,0.749,0.187-.119,0.358,0.561,0.187-.119,0.477,0.749,0.187-.119,0.477,0.749,0.187-.119,0.477,0.749,0.188-.119,0.715,1.123,0.187-.119L245.954,32l0.187-.119,1.55,2.433,0.187-.119,1.55,2.433-0.187.119,1.55,2.433c0.875,2.963,2.788,6.059,3.628,9l0.716,1.123c0.572,2.021,1.877,4.309,2.453,6.33l0.715,1.123c0.45,1.593,1.472,3.5,1.925,5.088l0.716,1.123c0.326,1.158,1.067,2.688,1.4,3.846l0.715,1.123-0.187.119,0.715,1.123-0.187.119,0.715,1.123-0.187.119,0.715,1.123c1.169,4.144,3.915,8.4,5.094,12.54q1.737,3.76,3.475,7.52c0.326,1.158,1.067,2.688,1.4,3.846l0.715,1.123-0.187.119,0.715,1.123-0.187.119,0.715,1.123-0.187.119,0.715,1.123c1.049,3.721,3.508,7.578,4.566,11.3l2.3,4.849-0.187.119L284.3,117.8l-0.187.119,0.715,1.123c-0.062.04-.124,0.08-0.187,0.119l0.715,1.123c1.049,3.721,3.507,7.579,4.566,11.3l1.771,3.607c1.17,4.144,3.914,8.4,5.094,12.54l1.363,2.552c0.823,2.871,2.69,5.942,3.509,8.814q0.621,1.182,1.243,2.365c0.451,1.593,1.485,3.492,1.925,5.087q0.3,0.468.6,0.936,0.836,2.757,1.67,5.513c0.063-.039.125-0.079,0.187-0.119a3.411,3.411,0,0,1,.647-1.464c0.006-.267.011-0.534,0.017-0.8l0.375-.239q0.042-.554.085-1.107l0.374-.238c0.028-.369.057-0.738,0.085-1.107l0.732-2.57-0.239-.375,0.392-1.038-0.171-.681,0.255-.426-0.238-.374,0.255-.426q-0.084-.341-0.17-0.681l0.187-.119-0.238-.374,0.255-.426q-0.169-.681-0.341-1.361l0.188-.12c-0.08-.124-0.159-0.249-0.239-0.374l0.255-.426-0.357-.561,0.187-.119-0.238-.375,0.187-.119c-0.1-.289-0.193-0.578-0.29-0.868,0.063-.039.125-0.079,0.187-0.119l-0.357-.561,0.187-.12-0.238-.374c0.062-.04.124-0.08,0.187-0.119l-0.358-.562,0.188-.119q-0.18-.281-0.358-0.561l0.187-.12q-0.179-.28-0.358-0.561l0.188-.119-0.477-.749,0.187-.119-0.358-.562,0.188-.119q-0.3-.468-0.6-0.936l0.187-.119-0.6-.935,0.187-.12q-0.357-.561-0.715-1.123l0.187-.119-1.073-1.684,0.187-.119L304.8,144.2l0.187-.119L303.8,142.21l0.187-.119-1.192-1.872,0.187-.119-1.192-1.871,0.187-.12-1.192-1.871,0.187-.119-1.192-1.871,0.187-.12-1.192-1.871,0.187-.119-3.2-5.853,0.187-.119-1.192-1.871,0.187-.12-1.192-1.871c-0.758-2.553-2.946-5.329-3.713-7.894l-1.193-1.872,0.188-.119-2.2-3.862,0.188-.119q-0.6-.936-1.193-1.871l0.188-.12q-0.6-.935-1.192-1.871c0.062-.04.124-0.08,0.187-0.119q-0.6-.936-1.192-1.872l0.187-.119-1.192-1.871,0.187-.12q-0.6-.935-1.192-1.871L282,98.485l-2.2-3.862c-0.763-2.566-2.951-5.343-3.714-7.894l-1.192-1.871,0.187-.119-1.192-1.871,0.187-.119-1.192-1.871,0.187-.119-1.192-1.871,0.187-.119L270.873,76.9l0.187-.119L269.868,74.9l0.187-.119-1.192-1.871,0.187-.119-1.192-1.871,0.187-.119q-0.6-.936-1.192-1.871l0.187-.119q-0.6-.935-1.192-1.871l0.187-.119q-0.6-.936-1.192-1.871l0.187-.119q-0.6-.936-1.192-1.871l0.187-.119q-0.6-.936-1.192-1.871l0.187-.119q-0.6-.936-1.192-1.871l0.187-.119q-0.6-.935-1.192-1.871l0.188-.119-1.074-1.684,0.188-.119q-0.6-.936-1.192-1.871l0.187-.119q-0.6-.936-1.192-1.871l0.187-.119q-0.6-.936-1.192-1.871l0.187-.119q-0.6-.936-1.192-1.871l0.187-.119q-0.6-.936-1.192-1.871l0.187-.119-6.217-11.824,0.187-.119L247.878,31.3l0.187-.119-1.192-1.871,0.187-.119-1.192-1.871,0.187-.119-1.192-1.871,0.187-.119-1.311-2.058,0.187-.119c-0.424-1.4-3.183-4.7-3.951-5.375l-0.716-1.123-0.187.119-0.6-.936-0.187.119-0.477-.748-0.188.119-0.477-.748-0.187.119-0.477-.749-0.187.119L234.848,12.5l-0.187.119-0.238-.374-0.188.119-0.357-.561-0.187.119-1.09-.884-0.188.119-0.238-.374-0.187.119-0.239-.374-0.187.119-0.239-.374-0.187.119-1.09-.884-0.187.119-0.545-.442-0.494.052-0.238-.374-0.494.052-0.238-.374-0.8-.016-0.238-.374L225.7,8.068l-0.238-.374-1.414-.152-2.571-.73-0.374.239-1.039-.391-0.681.171-0.426-.255-0.374.239-0.426-.255-0.868.29-0.426-.255L216,6.885l-0.12-.187-0.374.239c-0.04-.062-0.08-0.125-0.119-0.187l-1.362.342L213.9,6.9l-0.561.358-0.12-.187-0.374.239c-0.04-.062-0.08-0.125-0.119-0.187l-2.112.819c-0.039-.062-0.079-0.125-0.119-0.187l-0.936.6c-0.04-.062-0.08-0.125-0.119-0.187l-0.937.6-0.119-.187-1.5.955c-0.04-.062-0.08-0.125-0.119-0.187l-1.311.835-0.12-.187-1.5.955c-1.9.56-4.116,1.959-6.027,2.525l-1.5.954-0.119-.187-1.311.835c-0.04-.062-0.08-0.125-0.119-0.187l-1.311.835c-0.04-.062-0.08-0.125-0.119-0.187l-1.5.955c-0.039-.062-0.079-0.125-0.119-0.187l-1.311.835c-0.039-.062-0.079-0.125-0.119-0.187l-1.5.955c-3.439,1.007-7.067,3.574-10.5,4.588l-9.023,4.434c-1.912.559-4.124,1.963-6.027,2.525l-1.5.955-0.12-.187-1.31.835-0.12-.187-1.5.954-0.119-.187-1.311.835c-0.04-.062-0.08-0.125-0.119-0.187l-1.5.955-0.12-.187-1.311.835-0.119-.187-1.311.835-0.119-.187-1.5.955c-0.04-.062-0.08-0.125-0.119-0.187l-1.311.835c-0.04-.062-0.08-0.125-0.119-0.187l-1.5.955c-3.438,1-7.066,3.575-10.5,4.588l-1.5.955L136,42.072l-1.311.835-0.119-.187-9.023,4.434-0.119-.187-1.311.835-0.12-.187-1.31.835-0.12-.187-1.5.954-0.119-.187-1.311.835-0.119-.187-1.5.954c-2.95.862-6.117,3.068-9.075,3.94l-1.5.955c-0.04-.062-0.08-0.125-0.119-0.187l-2.741,1.483-0.12-.187-4.545,2.37c-2.95.863-6.116,3.074-9.074,3.94l-2.928,1.6L87.8,64.363l-2.928,1.6c-2.95.865-6.116,3.073-9.075,3.94l-2.928,1.6c-1.406.413-3.191,1.464-4.6,1.876l-1.311.835-0.119-.187-1.5.955L65.222,74.8l-1.311.835-0.119-.187-1.5.955A11.161,11.161,0,0,0,59.808,77.46ZM243.431,17.294c2.124,3.239,4.611,6.855,5.519,9.9l1.192,1.871-0.187.119q0.6,0.936,1.192,1.871l-0.187.119q0.6,0.935,1.192,1.871l-0.187.119q0.6,0.936,1.192,1.871l-0.187.119q0.6,0.936,1.192,1.871l-0.187.119q0.6,0.936,1.192,1.871l-0.187.119q0.6,0.936,1.192,1.871l-0.188.119L257.177,43l-0.188.119,1.193,1.871-0.188.119,1.193,1.871L259,47.1l1.193,1.871L260,49.092l2.2,3.862-0.188.119,1.193,1.871-0.188.119,1.193,1.871-0.188.119,1.073,1.684-0.187.119,1.192,1.871-0.187.119,1.192,1.871-0.187.119,1.192,1.871-0.187.119,1.192,1.871-0.187.119,1.192,1.871-0.187.119,2.2,3.862-0.187.119,1.192,1.871-0.187.119,1.192,1.871-0.187.119,1.192,1.871-0.187.119,1.192,1.871-0.187.119,1.192,1.871-0.187.119a14.01,14.01,0,0,0,2.265,3.555l-1.278-3.658,0.188-.119-0.477-.749,0.187-.119q-0.179-.281-0.358-0.561l0.188-.119-0.477-.749,0.187-.119q-0.324-.715-0.647-1.429l0.187-.119q-0.324-.715-0.647-1.429l0.187-.119-0.358-.561,0.187-.119-0.357-.561,0.187-.119-0.647-1.429,0.187-.119-0.477-.749,0.187-.119-0.357-.561,0.187-.119-0.477-.749,0.187-.119-0.357-.561L274.754,71q-0.179-.281-0.358-0.561l0.188-.119-0.648-1.429,0.188-.119-0.648-1.429,0.188-.119q-0.409-1.055-.818-2.11L273.033,65l-0.647-1.429,0.187-.119L272.1,62.7l0.187-.119-0.357-.561,0.187-.119-0.477-.748c-1.614-7.305-4.534-14.794-6.185-22.1l-0.477-.748,0.187-.119-0.477-.748,0.188-.119-0.477-.748,0.187-.119-0.6-.936,0.187-.119-0.834-1.31,0.187-.119q-0.656-1.029-1.312-2.058l0.188-.119L259,26.846l-0.187.119-2.282-2.755-0.187.119-0.358-.561-0.187.119-1.567-1.633-0.187.119L253.8,22l-0.187.119q-0.179-.281-0.358-0.561l-0.187.119-0.238-.374-0.188.119-0.357-.561-0.188.119-0.664-.629-0.187.119-0.664-.629-0.494.051-0.664-.629-0.494.052-0.238-.374-0.188.119-0.545-.442-0.493.052-0.239-.374-0.8-.016-0.239-.374-0.8-.016ZM78.725,161.7l3.184-2.028,0.119,0.187,0.936-.6,0.119,0.188,1.924-.7,0.119,0.187,0.868-.29,0.119,0.187,0.375-.239c3.352-.007,7.785,1.417,9.6,5.983l0.187-.119-0.119-.187a2.85,2.85,0,0,0,.017-0.8l0.187-.12-0.238-.374,0.391-1.038-0.051-.494,0.375-.239-0.051-.493,0.443-.545-0.119-.187,2.4-2.845c1.066-1.2,3.545-1.882,4.478-2.064l0.562-.358,0.119,0.187,0.562-.358,0.119,0.188,1.362-.342,0.12,0.187,0.374-.239,0.426,0.255,0.374-.238,1.039,0.39,2.333,0.356,0.238,0.374,0.494-.052q0.12,0.188.238,0.375l0.188-.12c0.927,0.509,3.412,2.357,3.917,4.082l-0.188.119,0.6,0.936-0.188.119,0.528,1.242c-0.062.04-.124,0.08-0.187,0.119,0.1,0.29.193,0.579,0.29,0.868l-0.188.12c0.08,0.124.159,0.249,0.239,0.374l-0.255.426,0.238,0.374-0.255.426,0.238,0.374-0.255.426,0.238,0.374q-0.263.825-.527,1.651l0.238,0.375-0.255.425-0.153,1.413-0.375.239q-0.144,1.013-.289,2.026l-0.374.238c-0.028.369-.057,0.738-0.085,1.107l-0.375.239c0,0.266-.011.533-0.016,0.8l-0.375.238,0.051,0.494-0.374.238q-0.009.4-.017,0.8l-0.375.239,0.051,0.494-0.442.545,0.119,0.187-0.375.238c0.018,0.165.035,0.33,0.052,0.494l-0.63.664,0.051,0.494-0.63.664,0.051,0.494-0.63.664c0.017,0.165.035,0.329,0.052,0.494l-0.375.239c0.04,0.062.08,0.124,0.119,0.187l-0.374.238-0.136.613-0.375.239,0.051,0.493-2.162,3.219,0.12,0.188-0.375.238,0.119,0.187-0.374.239,0.119,0.187-0.885,1.09,0.119,0.187-0.562.358,0.12,0.187-0.375.239,0.119,0.187-0.374.239,0.119,0.187-0.63.664L105.8,191.8l-0.562.358,0.12,0.188-0.63.664,0.119,0.187-0.562.358,0.119,0.187-1.77,2.18a32.419,32.419,0,0,0-2.861-1.6l-1.09-.884-0.187.119-0.239-.374-0.187.119-0.358-.561-0.187.119-0.664-.629-0.187.119-0.239-.374-0.187.119-0.358-.561-0.187.119-0.664-.629-0.187.12-0.358-.562-0.187.119-0.238-.374-0.187.12-0.358-.562-0.187.119-0.783-.816-0.187.119-0.239-.374-0.187.12-0.358-.562-0.187.119-0.239-.374-0.187.12-6.9-5.867-1.26-1.564c-2.435-2.027-5.956-6.654-6.625-9.986l-0.358-.561,0.187-.12-0.238-.374,0.187-.119-0.238-.374,0.187-.12-0.29-.868,0.255-.425-0.238-.375,0.459-1.345-0.051-.493,0.374-.239q0.008-.4.017-0.8l0.374-.239L76.7,164.3l0.63-.664-0.119-.187,0.562-.358-0.119-.187,1.192-1.023Zm79.058,12.508-8.872-5.66-0.358-.562-0.187.119c-0.08-.124-0.159-0.249-0.239-0.374l-0.187.12q-0.178-.282-0.358-0.562l-0.187.119-0.238-.374-0.188.12-7.867-6.564-2.163-2.568a18.743,18.743,0,0,1-5.076-7.553q-0.3-.468-0.6-0.935l0.187-.12-0.357-.561,0.187-.119q-0.12-.187-0.238-0.375l0.187-.119-0.358-.561,0.187-.12-0.238-.374,0.255-.426-0.238-.374,0.255-.426-0.238-.374q0.195-.519.391-1.039l-0.051-.493,0.374-.239q0.009-.4.017-0.8l0.885-1.09-0.119-.187,0.375-.239c-0.04-.062-0.08-0.124-0.119-0.187l0.749-.477-0.12-.187a15.694,15.694,0,0,1,4.188-2.932l0.12,0.187,0.749-.477,0.119,0.187,0.562-.358,0.119,0.188,0.562-.358,0.119,0.187,0.375-.239,0.119,0.187,0.562-.358,0.425,0.255,0.869-.29,0.425,0.255,0.375-.239,1.958,0.594,1.107,0.084,0.238,0.375,0.494-.052c0.08,0.125.159,0.25,0.239,0.374l0.493-.051,0.784,0.816,0.187-.119,0.239,0.374,0.187-.119,0.477,0.748,0.187-.119c0.817,0.7,1.1,2.418,1.976,2.688l-0.239-.375c0.337-.7.039-1.393,0.289-2.025a15.406,15.406,0,0,1,2.928-4.5,17.234,17.234,0,0,1,4.92-2.608c0.04,0.062.08,0.124,0.119,0.187l0.375-.239,0.119,0.187,2.043-.512,0.426,0.255,0.375-.239,0.732,0.323,0.374-.239,0.733,0.323,1.413,0.152c1.816,0.728,4.789,2.5,5.552,5.407q0.323,0.715.647,1.43l-0.187.119q0.169,0.681.34,1.361l-0.187.12c0.1,0.289.193,0.578,0.29,0.868l-0.255.425q0.119,0.188.238,0.375-0.162.366-.323,0.732l0.238,0.374q-0.195.519-.391,1.039l0.238,0.374-0.323.732q-0.146,1.013-.289,2.026l-0.375.239q-0.111.859-.221,1.719l-0.374.239q-0.043.552-.085,1.106l-0.443.545,0.051,0.494-0.374.238,0.051,0.494-0.375.238q-0.008.4-.017,0.8l-0.374.238,0.051,0.494-0.374.238,0.051,0.494-0.443.545,0.119,0.187q-0.315.333-.629,0.665l0.051,0.493-0.63.664,0.051,0.494-0.63.664,0.051,0.494-0.374.239,0.119,0.187-0.375.238-0.136.613-0.374.239,0.051,0.494q-1.082,1.608-2.162,3.218c0.04,0.063.08,0.125,0.119,0.188l-0.374.238,0.119,0.187-0.374.239,0.119,0.187-0.885,1.09c0.039,0.063.079,0.125,0.119,0.187l-0.562.358c0.04,0.063.08,0.125,0.119,0.188l-0.374.238c0.039,0.063.079,0.125,0.119,0.187l-0.375.239,0.12,0.187-0.63.664c0.039,0.063.079,0.125,0.119,0.188l-0.562.358c0.04,0.062.08,0.124,0.119,0.187l-0.629.664L160,171.48l-0.562.358,0.119,0.187-0.374.239,0.119,0.187Zm55.146-21.718c-0.923-.985-2.4-1.386-3.406-2.04l-0.358-.561-0.187.119-1.09-.884-0.187.119c-0.08-.124-0.159-0.249-0.239-0.374l-0.187.119-0.358-.561-0.187.119-0.664-.629-0.187.119q-0.18-.28-0.358-0.561l-0.187.119-0.665-.629-0.187.12q-0.179-.282-0.358-0.562c-0.062.04-.124,0.08-0.187,0.119l-0.238-.374-0.188.12-0.357-.562-0.187.119c-0.08-.124-0.159-0.249-0.239-0.374l-0.187.12-7.749-6.376-1.26-1.565-0.187.119-0.477-.748c-0.063.039-.125,0.079-0.187,0.119l-0.716-1.123-0.187.119-0.715-1.122-0.188.119-1.192-1.871-0.187.119-1.908-2.994,0.187-.119q-0.476-.749-0.953-1.5l0.187-.12q-0.384-.807-0.767-1.616l0.188-.119c-0.08-.125-0.159-0.25-0.239-0.374l0.188-.12q-0.18-.281-0.358-0.561l0.187-.119-0.238-.375,0.255-.426q-0.12-.186-0.238-0.374l0.255-.426c-0.08-.124-0.159-0.249-0.239-0.374l0.392-1.038q0.007-.4.017-0.8l0.374-.239-0.051-.494,0.63-.664-0.119-.187,0.63-.665-0.12-.187,0.562-.358a9.386,9.386,0,0,1,6.112-3.631l0.562-.358,0.119,0.187,0.868-.29,0.12,0.187,0.868-.29,0.426,0.255,0.374-.238,0.732,0.322,0.375-.238,0.426,0.255,1.413,0.152,0.238,0.374,0.494-.052,0.239,0.375,0.493-.052c0.08,0.125.159,0.25,0.239,0.374l0.187-.119,0.664,0.629,0.188-.119,0.9,1c0.063-.039.125-0.079,0.187-0.119,0.87,0.722,1.162,2.588,2.095,2.875l-0.238-.375,0.323-.732-0.238-.374,0.391-1.039-0.119-.187,0.375-.238c0-.267.011-0.534,0.016-0.8l0.375-.239-0.119-.187,0.63-.665-0.12-.187,1-.9L208.8,114.6l0.749-.477-0.12-.187a15.708,15.708,0,0,1,4.427-2.558l0.119,0.188,0.562-.358,0.119,0.187,0.562-.358,0.119,0.187,0.562-.358,0.119,0.187,0.375-.238L216.513,111l0.375-.239c2.917-.016,8.661,1.3,9.91,6.051l0.648,1.429-0.188.119q0.171,0.681.341,1.362l-0.187.119q0.144,0.434.29,0.868l-0.256.425,0.239,0.375-0.324.732,0.239,0.374-0.46,1.345c0.08,0.125.159,0.25,0.239,0.374q-0.127.213-.256,0.426-0.109.86-.221,1.72l-0.374.238q-0.144,1.013-.289,2.026l-0.375.239q-0.007.4-.017,0.8l-0.374.238c-0.028.369-.057,0.738-0.085,1.107l-0.375.238c0.017,0.165.035,0.329,0.052,0.494l-0.375.239,0.051,0.493-0.374.239,0.051,0.493-0.375.239c0.017,0.165.034,0.329,0.052,0.494l-0.375.238,0.051,0.494-0.374.238,0.051,0.494-0.63.664,0.051,0.494-0.63.664,0.051,0.494-0.885,1.09,0.051,0.494-0.374.238,0.119,0.187-0.374.239,0.119,0.187-0.375.239-0.136.613-0.374.238,0.051,0.494-0.885,1.09,0.119,0.187-0.375.239,0.119,0.187-0.885,1.09,0.12,0.187-0.562.358c0.039,0.063.079,0.125,0.119,0.187l-0.375.239,0.12,0.187-0.375.239c0.04,0.062.08,0.124,0.119,0.187l-0.885,1.09,0.119,0.187-0.561.358,0.119,0.187-0.63.665,0.119,0.187-0.562.358,0.12,0.187-0.63.664c0.039,0.063.079,0.125,0.119,0.187l-0.562.358,0.119,0.187Zm-113,125.14q0.408,1.055.818,2.11l-0.188.119q0.409,1.054.818,2.11l-0.187.119,0.477,0.749-0.188.119q0.18,0.281.358,0.562l-0.187.119q0.324,0.714.647,1.429l-0.187.119q0.408,1.056.818,2.11l-0.188.12,0.477,0.748-0.187.119q0.178,0.282.358,0.562l-0.188.119,0.477,0.749c0.548,2.456,1.441,5.22,1.994,7.674l0.477,0.749-0.187.119c0.184,0.891.6,1.6,0.749,2.417l0.375-.239c0.265-1.728,2.075-2.535.714-4.665,0.121-.823-0.786-1.541-1.056-2.484l0.187-.119-0.715-1.123c-0.946-3.295-3.089-6.761-4.038-10.056l-0.715-1.122C101.26,280.156,100.583,277.849,99.929,277.628Zm39.618-15.508a4.849,4.849,0,0,1-.782,2.077c-0.006.267-.012,0.533-0.017,0.8l-0.375.239q-0.007.4-.017,0.8l-0.374.238,0.051,0.494-0.443.545q-0.042.554-.085,1.107l-0.374.238c-0.006.267-.011,0.534-0.017,0.8l-0.375.239c0.018,0.164.035,0.329,0.052,0.493-0.148.182-.295,0.364-0.443,0.545-0.006.267-.011,0.534-0.017,0.8l-0.374.239c-0.006.267-.012,0.533-0.017,0.8l-0.375.239q-0.007.4-.017,0.8l-0.374.238c-0.006.267-.011,0.534-0.017,0.8l-0.375.239c-0.005.267-.011,0.533-0.016,0.8l-0.375.239c-0.028.368-.057,0.737-0.085,1.106l-0.374.239,0.051,0.493-0.188.12c0.017,0.164.035,0.329,0.052,0.493l-0.375.239c-0.028.369-.057,0.738-0.085,1.106l-0.374.239q-0.043.554-.085,1.106l-0.375.239q-0.042.553-.085,1.107l-0.374.238q-0.043.554-.085,1.107l-0.375.238,0.051,0.494-0.187.119,0.051,0.494-0.374.238q-0.044.554-.085,1.107l-0.375.238q-0.042.553-.085,1.107l-0.374.239c-0.028.368-.057,0.737-0.085,1.106l-0.375.239c0,0.266-.011.533-0.016,0.8l-0.375.238c-0.028.369-.057,0.738-0.085,1.107l-0.374.238q-0.043.554-.085,1.107l-0.375.239c-0.028.368-.057,0.737-0.085,1.106l-0.442.545q0.3,0.468.6,0.936c-0.144.994,1.649,2.787,2.01,3.981l-0.188.119q0.6,0.936,1.193,1.871l-0.188.12q0.6,0.935,1.193,1.871l-0.188.119,1.84,3.3,0.187-.12c-0.06-1.651.835-3.152,1.208-4.716q0.248-1.471.493-2.945l0.375-.238-0.051-.494,0.459-1.345q0.144-1.013.289-2.026l0.375-.238q0.348-1.932.7-3.865l0.375-.238q0.314-1.779.629-3.558l0.374-.239q0.35-1.932.7-3.865l0.374-.238q0.35-1.932.7-3.865l0.374-.238,0.63-3.558,0.374-.239q0.213-1.319.425-2.639l0.392-1.038-0.12-.187,0.375-.239,0.561-3.252,0.375-.238,0.357-2.332,0.374-.239,0.153-1.413,0.188-.119c-0.017-.165-0.035-0.329-0.052-0.494l0.375-.239c0.006-.266.011-0.533,0.017-0.8q0.424-1.191.851-2.383c-0.349-.077-0.048-0.074-0.494.051-0.745-.128-1.1.48-1.924,0.7l-0.119-.187Z"/>
</svg>
