<svg xmlns="http://www.w3.org/2000/svg" width="280" height="126.84" viewBox="0 0 1000 453">
  <defs>
    <style>
      .cls-1 {
        fill: #dd4a36;
        fill-rule: evenodd;
      }
    </style>
  </defs>
  <path id="mehrinhalt_1" data-name="mehrinhalt 1" class="cls-1" d="M385.936,9.027v2.8c4.1,0.959,4.591,1.561,5.608,5.609h2.8v2.8l4.206,2.8v1.4h2.8v1.4h4.206v1.4c2.763,2.006,4.387,3.283,8.412,4.207v2.8c3.873,1.014,3.136.391,4.206,4.207h2.8q0.7,2.1,1.4,4.207h1.4v2.8h1.4v2.8l2.8,1.4q2.1,7.01,4.206,14.022-0.7,2.1-1.4,4.207h1.4V74.93h1.4q-0.7,1.4-1.4,2.8s1.77,0.09,1.4,2.8h-1.4v1.4h1.4v9.815s1.438-.31,1.4,2.8h-1.4v1.4h1.4V112.79h1.4v14.022h1.4q-0.7,2.1-1.4,4.207a2.369,2.369,0,0,1,1.4,2.8h-1.4v1.4h1.4v7.011h1.4q-0.7,1.4-1.4,2.805s1.766,0.1,1.4,2.8c-0.264,1.965-1.721-.555-1.4,1.4h1.4v14.022c0.52,1.914,1.355-.58,1.4,1.4-1.035,1.453-1.884-.522-1.4,1.4h1.4v7.011h1.4v4.206h1.4V184.3h1.4v4.207h1.4v4.207h1.4c0.4,1.942-.245-0.2-1.4,1.4v1.4h1.4v4.207h1.4v2.8h1.4l-1.4,4.207h1.4v2.8h1.4v4.207h1.4v7.011h1.4v4.206h1.4v7.011h1.4v2.805h1.4v4.206h1.4l-1.4,4.207h1.4V246h1.4v11.218h1.4q-1.4,9.114-2.8,18.229h-1.4q-1.4,4.206-2.8,8.413h-1.4v2.8l-5.608,4.207v5.609h-1.4v1.4c0.65,0.721,2.247-.392,1.4,1.4l-2.8,1.4v4.207h-1.4v2.8h-1.4v2.8l-2.8,2.8v2.805l-9.813,8.413q-0.7,1.4-1.4,2.8h-4.206v2.805l-7.01,1.4v1.4c-4.471,1.719-12.29.265-14.02,0v1.4H385.936v1.4h-7.009v1.4h-1.4s-1.26-1.77-2.8-1.4v1.4h-7.01c-1.908.54,0.532,0.964-1.4,1.4v-1.4h-1.4v1.4H360.7c-1.89.6,0.573,1.232-1.4,1.4l-1.4-1.4v1.4h-8.412v1.4h-1.4l-1.4-1.4v1.4l-14.019,1.4v1.4l-4.206-1.4v1.4h-2.8v1.4l-4.206-1.4v1.4h-7.01c-1.916.51,0.574,1.236-1.4,1.4l-1.4-1.4v1.4H303.22v1.4h-1.4l-1.4-1.4v1.4l-16.823,2.805-1.4-1.4v1.4l-4.206,1.4v-1.4c-2.5-.39-2.22,1.232-2.8,1.4h-7.01v1.4l-4.206-1.4v1.4h-7.01v1.4h-1.4l-1.4-1.4v1.4l-14.02,1.4v1.4l-4.205-1.4v1.4h-7.01v1.4h-7.01v1.4l-4.206-1.4v1.4h-2.8v1.4l-4.206-1.4v1.4l-25.235,2.805c-0.628,5.931-3.467,7.222-5.608,11.218q-0.7,2.8-1.4,5.608h-1.4v4.207l-2.8,1.4q-0.7,2.805-1.4,5.609h-1.4v2.8h-1.4v2.8h-1.4v2.8h-1.4v4.207l-2.8,1.4v2.8h-1.4v4.207l-2.8,1.4v2.805h-1.4v2.8h-1.4v4.207l-2.8,1.4q-0.7,3.505-1.4,7.011l-2.8,1.4q-1.4,4.908-2.8,9.816l-4.206,1.4q-2.8-12.62-5.607-25.24c-1.6,1.6-.559,0-1.4,2.805-3.4,2.26-.9,1.087-2.8,4.206h-1.4v2.805q-1.4.7-2.8,1.4v2.8h-1.4v2.8h-1.4v2.8l-2.8,1.4v2.805h-1.4v2.8h-1.4l-1.4,4.207c-1.6-1.6-.559,0-1.4-2.805-3.363-3.844-1.038-9.562-2.8-15.424q-2.1-7.011-4.206-14.022c-1.591,1.184-.2-0.178-1.4,1.4-2.714,2.248-3.759,5.11-7.01,7.011v-5.609c-2.15-2.461.068-6.67-1.4-14.022h-1.4q0.7-2.1,1.4-4.206c-0.55-3.536-2.785-18.158-2.8-26.642h-1.4v1.4c-3.536,2.127-12.239-1-14.02-1.4v1.4l-8.412-2.8V375l-8.412-2.8-1.4-2.805h-2.8l-1.4-2.8-4.206-2.8V360.98l-2.8-1.4c-1.625-1.762-2.369-4.048-4.206-5.609v-4.206h-2.8l-1.4-7.011h-1.4l1.4-4.207h-1.4v-4.207h-1.4l-1.4-14.022h-1.4v-7.011h-1.4v-7.011h-1.4v-7.011h-1.4V290.87h-1.4l-1.4-9.815h-1.4l1.4-2.805h-1.4v-4.206h-1.4c-0.8-2.606.584-1.938,1.4-2.805l-1.4-4.206h-1.4l1.4-4.207h-1.4v-4.207h-1.4v-1.4h1.4v-1.4h-1.4v-4.207h-1.4l1.4-2.8h-1.4V246h-1.4v-8.413h-1.4v-7.011h-1.4v-7.011h-1.4v-7.011h-1.4v-7.011c-1.607-5.1-7.652-32.663-7.01-33.653l-1.4-5.609h-1.4l1.4-4.206h-1.4l-1.4-5.609h1.4v-1.4H7.4v-4.207H6l1.4-2.8H6v-4.207H4.6v-7.011H3.2l-2.8-16.826H1.8c-0.178-2.467-2.768-8.135-1.4-12.62L6,94.561l2.8-1.4v-2.8h1.4c2.014-2.466,3.194-3.376,4.206-7.011,5.957-1.452,7.749-5.546,14.02-7.011,0.692-8.586,5.3-11.089,7.01-18.229h2.8c0.959-4.1,1.56-4.592,5.608-5.609v-2.8l25.236-8.413h1.4v1.4l4.206-1.4v1.4h1.4v-1.4h14.02v-1.4h1.4c0.991,0.775.064,2.035,2.8,1.4,1.932-.446-0.581-1.387,1.4-1.4,1.425,1.216-.543,1.788,1.4,1.4v-1.4h1.4l2.8,1.4v-1.4c7.048-1.389,19.068-.54,19.628,0,1.977-.153-0.545-1.025,1.4-1.4,7.288-1.412,18.788-.759,19.627,0h1.4v-1.4h9.814v-1.4h1.4v1.4l4.206-1.4v1.4h1.4v-1.4h1.4l2.8,1.4v-1.4h14.02v-1.4h1.4v1.4h1.4s0.231-1.466,2.8-1.4v1.4c1.976-.155-0.544-1.02,1.4-1.4h14.019v-1.4h1.4v1.4l4.206-1.4v1.4h1.4v-1.4h1.4l2.8,1.4v-1.4h7.01v-1.4h7.01v-1.4h2.8v-1.4l4.206,1.4v-1.4h4.206v-1.4h7.009v-1.4h2.8v-1.4l4.206,1.4v-1.4h2.8v-1.4h8.412v-1.4h2.8v-1.4l4.206,1.4v-1.4h2.8v-1.4h7.01v-1.4h4.206v-1.4l2.8,1.4v-1.4h4.2v-1.4l11.216-1.4v-1.4l2.8,1.4v-1.4h4.206v-1.4l11.216-1.4v-1.4l2.8,1.4v-1.4h4.206v-1.4l11.215-1.4v-1.4l2.8,1.4c5.217-1.434,14.945-6.594,23.834-4.207v1.4h1.4v-1.4l2.8,1.4v-1.4h1.4l1.4,2.8h2.8v1.4l2.8-1.4v1.4C379.966,6.6,381.531,8.054,385.936,9.027ZM830.361,4.82h22.432V45.484a11.731,11.731,0,0,0,5.608-2.8v-1.4l16.824-5.609,19.627,1.4v1.4h2.8v1.4h4.206l1.4,2.8h2.8l4.206,5.609,2.8,1.4v2.8l2.8,1.4v2.8h1.4q0.7,4.206,1.4,8.413h1.4v70.11h-21.03v-63.1h-1.4V67.919h-1.4v-2.8l-2.8-1.4c-2.593-3.631,1.511-2.565-4.206-4.207-4.306-6.586-17.255-3.742-25.235-2.8v1.4l-4.206,1.4-7.01,11.218v64.5H830.361V4.82ZM397.152,45.484v4.207h2.8v2.8h2.8c-0.964-4.547-5.131-9.422-5.608-12.62q0.7-2.1,1.4-4.207h-2.8l-4.206-12.62h-2.8v-2.8c-5.684-1.752-1.53-1.023-4.2-4.207h-1.4v-1.4l-4.206-1.4q-0.7-1.4-1.4-2.8l-2.8,1.4v-1.4h-2.8q-0.7-1.4-1.4-2.8l-4.206,1.4-1.4-2.8c-1.883-.622.561,1.123-1.4,1.4l-2.8-1.4v1.4c-1.593.2-3.633-2.354-7.01-1.4v1.4l-11.216,1.4v1.4c-1.627.389-2.492-2.651-5.608-1.4q-0.7,1.4-1.4,2.8h-7.009v1.4H324.25c-1.9.559,0.552,1.066-1.4,1.4-0.63-.234-0.242-2.185-2.8-1.4v1.4h-2.8v1.4l-11.216,1.4v1.4l-4.206-1.4v1.4h-2.8v1.4l-4.206,1.4v-1.4l-7.01,1.4v1.4l-4.2-1.4v1.4h-2.8v1.4l-4.206,1.4c-0.591-.2-0.264-2.174-2.8-1.4v1.4h-2.8v1.4a2.129,2.129,0,0,1-2.8-1.4h-1.4v1.4h-4.206v1.4l-4.206,1.4v-1.4l-5.608,1.4v1.4l-4.206-1.4v1.4h-2.8v1.4h-4.206v1.4l-4.206-1.4v1.4h-2.8v1.4l-4.206-1.4v1.4h-2.8v1.4h-4.206v1.4l-4.206-1.4v1.4h-2.8v1.4h-7.01v1.4h-4.206v1.4h-1.4s-1.276-1.857-2.8-1.4v1.4h-2.8v1.4l-15.421,1.4v1.4h-2.8v1.4h-7.01v1.4h-2.8v1.4l-4.206-1.4v1.4h-4.206v1.4h-7.01v1.4h-2.8v1.4L147.6,53.9v1.4h-2.8v1.4h-7.009v1.4h1.4v1.4h1.4V58.1h7.01V56.7l4.206,1.4V56.7h2.8V55.3c2.8,0.341,6.2,1.526,11.216,0V53.9l4.206,1.4V53.9h2.8V52.5l2.8,1.4V52.5h7.01s-0.311-1.469,2.8-1.4v1.4c2.433,0.384,2.316-1.276,2.8-1.4l15.422-2.8v1.4l4.206-1.4v-1.4l4.206,1.4s0-1.39,2.8-1.4c1.217,1.144-.528,1.856,1.4,1.4v-1.4h2.8v-1.4c1.938-.418-0.056.249,1.4,1.4h1.4v-1.4h8.412v-1.4c1.973-.193-0.215.254,1.4,1.4l8.411-1.4v-1.4h7.01v-1.4h2.8v1.4l5.608-2.8v1.4c2.973-.11,2.8-1.4,2.8-1.4h7.01v-1.4l2.8,1.4v-1.4h8.412s-0.331-1.379,2.8-1.4c1.326,1.111-.528,1.86,1.4,1.4v-1.4l4.206-1.4v1.4h1.4v-1.4h7.01v-1.4l4.206,1.4v-1.4l4.206-1.4v1.4c2.926-.129,2.8-1.4,2.8-1.4h7.01v-1.4l4.206,1.4v-1.4h2.8v-1.4c1.964-.268-0.344.462,1.4,1.4,2.546-.1,2.8-1.4,2.8-1.4l4.206,1.4v-1.4h2.8v-1.4l2.8,1.4v-1.4h7.009v-1.4l4.206,1.4v-1.4h7.01v-1.4c4.827-1.406,11.237,1.158,14.02,1.4l2.8-1.4v1.4h2.8v1.4l2.8-1.4v1.4l5.608,1.4,2.8,4.207h2.8l1.4,2.8C389.187,40.143,392.309,44.135,397.152,45.484ZM53.669,349.763h2.8v4.206h2.8v4.207h2.8v2.8l4.206,1.4v2.805h1.4v1.4h2.8v1.4L78.9,370.8v1.4h9.814v1.4h1.4v-1.4h1.4v1.4l16.824-2.8,1.4,4.206h-1.4v4.207h1.4v2.8h1.4l-1.4,4.207,2.8,1.4q-0.7,2.805-1.4,5.609l2.8,1.4q-0.7,2.805-1.4,5.609h1.4v2.8h1.4l-1.4,4.207h1.4q0.7,2.8,1.4,5.609l-1.4,1.4h1.4v2.8h1.4v7.012h1.4v2.8h1.4v1.4h-1.4q0.7,3.505,1.4,7.011h1.4v-2.8h2.8q0.7-3.505,1.4-7.011h2.8q0.7-3.506,1.4-7.011h2.8c0.507-4.311.958-4.434,2.8-7.011h1.4v-4.207l4.2-2.8v-4.207l4.206-2.8v-4.207l2.8-1.4q0.7-2.805,1.4-5.609l2.8-1.4v-4.207h1.4c1.878-2.619,2.167-2.709,2.8-7.011h2.8c1.07-4.43,3.122-5.119,4.206-9.815,3.949-.775,3.942-2.705,4.206-2.805l5.608,1.4,1.4-2.8h1.4v1.4c2.535,0.518,2.208-1.222,2.8-1.4h7.01v-1.4l2.8,1.4v-1.4c5.334-1.7,8.32-.563,12.618,0v-1.4h2.8v-1.4l2.8,1.4v-1.4h7.01s-0.33-1.489,2.8-1.4v1.4h1.4v-1.4h7.01v-1.4h7.01v-1.4l4.2,1.4v-1.4h2.8v-1.4c1.924-.481-0.556,1.09,1.4,1.4,2.389,0.38,2.38-1.3,2.8-1.4l4.206,1.4v-1.4h2.8v-1.4l2.8,1.4v-1.4c5.068-1.488,8.382-.343,11.216,0v-1.4h4.206v-1.4h1.4l1.4,1.4v-1.4c5.088-1.468,8.365-.359,11.216,0v-1.4h2.8v-1.4c1.925-.478-0.556,1.095,1.4,1.4,2.38,0.373,2.389-1.3,2.8-1.4l4.206,1.4v-1.4h2.8v-1.4l4.206,1.4v-1.4h2.8v-1.4l4.206,1.4s0.226-1.462,2.8-1.4l1.4,1.4v-1.4h2.8v-1.4l2.8,1.4v-1.4c5.07-1.487,8.381-.343,11.216,0v-1.4h2.8v-1.4l4.205,1.4v-1.4c5.072-1.487,8.381-.343,11.216,0v-1.4h2.8v-1.4h1.4v1.4c2.378,0.372,2.391-1.3,2.8-1.4l4.206,1.4v-1.4h2.8v-1.4l4.206,1.4v-1.4h5.608v-1.4l5.608,1.4q0.7-1.4,1.4-2.8l4.206,1.4v-1.4c5.048-1.51,8.4-.324,11.215,0v-1.4h2.8v-1.4l4.206,1.4v-1.4h7.01v-1.4h1.4s1.274,1.819,2.8,1.4v-1.4h2.8v-1.4h1.4v1.4l5.608-1.4v-2.805H428v-2.8h2.8v-2.805h2.8v-2.8h2.8c0.885-4.8.693-3.855,2.8-7.011h1.4v-7.011h1.4v-4.207h1.4c0.461-2.308-1.347-2.525-1.4-2.8-0.477-2.432,1.29-2.351,1.4-2.8v-1.4h-1.4q0.7-1.4,1.4-2.8h-1.4v-2.8h1.4c0.443-1.934-.965.532-1.4-1.4q-1.4-11.215-2.8-22.435c-0.2-.458-2.344-0.644-2.8-2.8h1.4q-0.7-3.506-1.4-7.011h-1.4c-0.451-1.546,2.615-2.524,1.4-5.609l-2.8-1.4c-0.514-1.415,2.6-2.6,1.4-5.609-0.105-.266-2.372-0.721-2.8-2.805h1.4c0.742-2.892-.627-4.1-1.4-5.608h-1.4q0.7-2.805,1.4-5.609c-0.348-1.1-2.77,0-2.8-4.207,0,0,1.965-1.009,1.4-2.8l-2.8-1.4q0.7-2.8,1.4-5.608H428v-2.805h-1.4q0.7-2.1,1.4-4.206h-1.4c-1.688-4.738-.758-3.423,0-7.011h-1.4v-2.805h-1.4V182.9h-1.4v-2.8h-1.4c-0.576-1.9.922,0.522,1.4-1.4,0.622-2.5-1.257-2.288-1.4-2.8v-8.413h-1.4v-7.011h-1.4V157.66h-1.4l1.4-4.206h-1.4v-2.805h-1.4c-0.438-1.566,2.6-2.507,1.4-5.608l-2.8-1.4c-0.5-1.435,2.581-2.579,1.4-5.608l-2.8-1.4c-0.483-1.411,2.4-2.569,1.4-5.608h-1.4v-2.805h-1.4q0.7-2.1,1.4-4.206h-1.4v-2.8h-1.4l1.4-4.206-2.8-1.4q0.7-2.8,1.4-5.609h-1.4v-2.8h-1.4q0.7-2.1,1.4-4.207h-1.4q-0.7-2.8-1.4-5.608l1.4-1.4h-1.4v-2.8h-1.4V86.148h-1.4V79.137h-1.4V70.724h-1.4v-2.8h-1.4l1.4-4.207h-1.4q-0.7-3.505-1.4-7.011h-2.8V52.5h-1.4v-2.8l-4.206-2.8v-2.8h-1.4l-2.8-4.207-5.608-1.4q-0.7-1.4-1.4-2.8h-2.8v-1.4c-3.474-1.786-3.015-.33-5.608,0v-1.4l-8.412-1.4v-1.4l-8.412,2.8v-1.4c-1.941-.4.523,0.926-1.4,1.4-3.305.818-3.657-1.137-5.608-1.4v1.4h-2.8v1.4l-2.8-1.4v1.4c-5.047,1.49-8.394.387-11.215,0v1.4l-4.206,1.4v-1.4l-12.618,2.8-1.4-1.4v1.4h-2.8v1.4h-1.4v-1.4c-2.393-.4-2.38,1.3-2.8,1.4l-4.206-1.4v1.4h-2.8v1.4L292,39.875v1.4l-15.421,2.8v-1.4h-1.4v1.4h-7.01v1.4l-4.206-1.4v1.4h-2.8v1.4h-1.4s-1.3-1.764-2.8-1.4v1.4h-7.01v1.4h-1.4s-1.293-1.793-2.8-1.4v1.4c-4.827,1.615-7.343.608-11.215,0q-0.7,1.4-1.4,2.8l-4.206-1.4v1.4h-7.01v1.4l-4.206-1.4v1.4h-2.8v1.4l-4.206-1.4v1.4c-5.062,1.487-8.385.364-11.216,0v1.4h-2.8v1.4h-1.4V55.3h-1.4v1.4h-8.411v1.4l-4.206-1.4v1.4c-5.107,1.555-7.667.529-11.216,0l-1.4,2.8-4.206-1.4v1.4h-2.8v1.4l-4.206-1.4s-0.218,1.458-2.8,1.4l-1.4-1.4v1.4h-2.8v1.4l-2.8-1.4v1.4h-8.412v1.4l-4.2-1.4v1.4l-15.422,2.8-1.4-1.4v1.4h-2.8v1.4l-4.206-1.4v1.4h-7.01v1.4h-1.4l-1.4-1.4v1.4H92.924v1.4h-2.8v1.4l-2.8-1.4-2.8,1.4-1.4-1.4v1.4H76.1s0.33,1.487-2.8,1.4v-1.4h-1.4v1.4h-7.01v1.4h-7.01v1.4l-4.206-1.4v1.4h-2.8v1.4l-4.206-1.4s-0.215,1.451-2.8,1.4l-1.4-1.4v1.4h-2.8v1.4l-2.8-1.4v1.4H32.64v1.4H28.434v1.4h-2.8v1.4h-2.8l-1.4,2.8h-2.8l-1.4,4.207-4.206,2.8v4.207h-1.4v2.8h-1.4v2.8l-2.8,1.4v9.815H6V121.2H7.4l-1.4,2.8H7.4v2.8h1.4l-1.4,4.207h1.4v2.8h1.4l-1.4,4.207h1.4l1.4,4.206s-1.85,1.3-1.4,2.805h1.4l1.4,5.608a2.273,2.273,0,0,0-1.4,2.805c0.372,1.15,3.025-.074,2.8,4.206a2.472,2.472,0,0,0-1.4,2.805h1.4v2.8h1.4l-1.4,4.207h1.4v2.8h1.4l-1.4,4.207h1.4l1.4,5.609-1.4,1.4h1.4v2.8h1.4l-1.4,4.207h1.4v2.8h1.4v8.414h1.4v7.011h1.4v7.011h1.4v2.8h1.4c0.415,1.6-2.552,2.479-1.4,5.609l2.8,1.4c0.487,1.461-2.533,2.555-1.4,5.609l2.8,1.4c0.613,1.886-1.013-.542-1.4,1.4l1.4,11.218,2.8,1.4-1.4,5.609,2.8,1.4-1.4,5.609h1.4v2.8h1.4l-1.4,4.207h1.4v2.805h1.4l-1.4,4.206h1.4l1.4,5.609-1.4,1.4h1.4v2.805h1.4L43.855,310.5h1.4v2.8h1.4l-1.4,4.207h1.4v2.8h1.4c0.4,1.624-2.537,2.463-1.4,5.609l2.8,1.4c0.479,1.488-2.561,2.545-1.4,5.609l2.8,1.4-1.4,5.609C50.193,342.976,52.882,345.933,53.669,349.763ZM428,126.812h2.8q-0.7-2.1-1.4-4.207a2.425,2.425,0,0,0,1.4-2.8h-1.4v-1.4a2.285,2.285,0,0,0,1.4-2.805h-1.4v-9.815H428q0.7-1.4,1.4-2.8c-0.067-1.981-1.082.555-1.4-1.4v-1.4h1.4v-1.4H428c-0.573-2.762.863-1.841,1.4-2.8-0.151-1.977-.91.519-1.4-1.4V88.952h-1.4c0.082-1.969,2.214-2.255,1.4-5.609h-1.4v-1.4H428v-1.4h-1.4V74.93h-1.4c-0.333-1.955,1.12.561,1.4-1.4a2.319,2.319,0,0,0-1.4-2.8q0.7-2.1,1.4-4.207h-1.4v-2.8h-1.4q0.7-2.1,1.4-4.207h-1.4V56.7h-1.4V51.093l-4.206-2.8V44.082h-1.4v1.4h-1.4V41.277h-2.8v-2.8l-11.216-7.011v1.4c2.716,2.562,2.669,5.908,4.206,9.815h1.4q-0.7,2.8-1.4,5.609l2.8,1.4V53.9h1.4q-0.7,2.8-1.4,5.609h1.4q1.4,4.206,2.8,8.413h1.4c0.415,1.587-2.452,2.467-1.4,5.609h1.4q0.7,2.8,1.4,5.609h1.4c0.415,1.6-2.648,2.506-1.4,5.609l2.8,1.4v4.207h1.4q-0.7,2.8-1.4,5.609h1.4q0.7,2.8,1.4,5.609h1.4v8.413l2.8,1.4v4.206c0.544,1.907,1.374-.58,1.4,1.4h-1.4V121.2h1.4C427.708,123.25,427.6,123.574,428,126.812Zm270.58,8.413H677.547V88.952c0-7,.691-14.437-1.4-19.631h-1.4V65.115h-1.4L667.733,58.1c-2.353-1.619-3.175-.033-5.608-2.8H646.7v1.4l-7.01,1.4-4.206,5.609h-1.4q-2.1,6.309-4.205,12.62v58.892H608.85v-63.1h-1.4V67.919h-1.4v-2.8l-2.8-1.4c-2.593-3.631,1.511-2.565-4.206-4.207-4.306-6.586-17.255-3.742-25.235-2.8v1.4l-4.206,1.4-7.01,11.218v64.5H540.153V37.071h22.432v8.413h1.4c1.224-1.542,8.015-6.233,9.814-7.011h4.206c18.171-6.817,39.932,1.575,46.265,15.424l9.813-11.218h2.8q0.7-1.4,1.4-2.8H642.5v-1.4h2.8v-1.4l19.628-1.4v1.4h7.01v1.4h4.206v1.4h2.8l11.215,8.413C702.68,65.858,698.9,105.514,698.576,135.225Zm113.56-40.664h-74.3c1.432,8.824,7.108,19.086,15.422,21.033,5.964,5.985,22.912,2.309,28.039-1.4q2.8-4.206,5.608-8.413h22.432c-0.783,8.684-5.168,12.157-9.814,16.826l-5.608,7.011h-2.8q-0.7,1.4-1.4,2.8H785.5v1.4h-2.8v1.4h-5.607c-16.808,5.292-35.334-1.623-44.864-8.413q-2.1-2.8-4.2-5.609h-1.4v-2.8l-2.8-1.4v-2.805h-1.4v-2.8h-1.4v-2.805h-1.4v-2.8h-1.4V100.17h-1.4V87.55h-1.4v-1.4h1.4V72.126h1.4q0.7-4.206,1.4-8.413h1.4q0.7-2.8,1.4-5.609h1.4V55.3h1.4c2-2.516,3.163-3.352,4.2-7.011a11.514,11.514,0,0,0,5.608-2.8v-1.4h2.8q0.7-1.4,1.4-2.8c3.176-1.947,7.363-1.424,11.216-2.8v-1.4l21.03-1.4v1.4l12.617,1.4v1.4h2.8v1.4h2.8v1.4h2.8l1.4,2.8h2.8l4.206,5.609h1.4v2.8l2.8,1.4v2.8l2.8,1.4v2.8h1.4q0.7,4.907,1.4,9.815h1.4V94.561ZM994.392,35.669V58.1c-8.75-.144-13.443,1.513-19.627,2.8q-2.1,2.8-4.206,5.609h-1.4q-0.7,3.505-1.4,7.011h-1.4v61.7H943.921V37.071h22.432V48.289h1.4C972.324,40.233,982.267,36.107,994.392,35.669ZM182.651,39.875c-1.6,1.6-.005.559-2.8,1.4v1.4h2.8c1.6-1.6,0-.559,2.8-1.4v-1.4h-2.8ZM46.659,55.3v2.8h-2.8l-1.4,4.207-5.608,4.207v4.207h-1.4l-1.4,4.207h2.8v-1.4l4.206,1.4v-1.4l5.608-1.4,1.4,1.4v-1.4h2.8v-1.4l5.608,1.4v-1.4h2.8v-1.4h7.01v-1.4h2.8v-1.4l5.608,1.4,1.4-2.8h7.01v-1.4l7.01-1.4a2.215,2.215,0,0,0,2.8,1.4l1.4-2.8h7.01v-1.4l7.01-1.4,1.4,1.4V58.1h2.8V56.7h7.01V55.3l7.01-1.4,1.4,1.4V53.9h2.8V52.5h8.411v-1.4h2.8v-1.4H149v-1.4h2.8v-1.4c1.606-.4,2.451,2.42,5.608,1.4v-1.4h2.8v-1.4h7.01v-1.4h2.8v-1.4h1.4v1.4l5.608-1.4v-1.4c-6.694.027-7.985,1.289-11.216,1.4l-2.8-1.4v1.4l-4.206-1.4v1.4h-5.608v1.4L149,42.68c-0.014,0-5.11,2.353-9.814,1.4v-1.4h-1.4v1.4H132.18v1.4l-4.206-1.4v1.4l-2.8-1.4v1.4a2.448,2.448,0,0,1-2.8-1.4c-1.972-.208.558,1.1-1.4,1.4a2.525,2.525,0,0,1-2.8-1.4l-2.8,1.4-2.8-1.4-1.4,2.8-2.8-1.4c-1.974.2-3.4,2.1-7.01,1.4-1.946-.377.568-1.627-1.4-1.4a2.475,2.475,0,0,1-2.8,1.4c-1.96-.3.565-1.653-1.4-1.4s0.58,1.358-1.4,1.4l-2.8-1.4v1.4h-2.8v1.4l-2.8-1.4v1.4l-2.8-1.4h-1.4v1.4h-1.4v-1.4l-4.206,1.4c-1.706-1.01.533-1.834-1.4-1.4v1.4h-2.8v1.4c-1.951.352,0.568-1.175-1.4-1.4-2.3-.265-2.8,1.4-2.8,1.4h-1.4v-1.4c-1.974-.191.57,1.194-1.4,1.4l-4.206-1.4v1.4h-2.8v1.4H53.669v1.4h-2.8v1.4Zm356.1-1.4h-2.8a107.964,107.964,0,0,1,7.01,22.435h1.4V70.724c-3-3.2-.933-7.08-2.8-11.218h-1.4C403,57.5,403.138,57.115,402.76,53.9ZM789.7,77.735q-0.7-5.608-1.4-11.218l-8.412-7.011V58.1c-2.337-1.621-3.212.02-5.607-2.8-9.46-.606-17.917-2.113-25.236,2.8l-2.8,4.207-4.206,2.8-4.206,12.62H789.7ZM129.376,58.1v1.4c-2.92,1.765-8.038-.184-11.216,2.8,5.4-.025,10.4-0.916,12.618-4.207h-1.4Zm4.206,0v2.8h1.4v-1.4h1.4C134.788,57.91,136.381,58.948,133.582,58.1ZM412.574,88.952c-0.77-4.478-2.591-7.7-4.206-11.218h-1.4v2.8c5.661,4.367-1.906,1.018,1.4,7.011h1.4C411.367,89.147,409.775,88.109,412.574,88.952Zm-1.4,1.4c-2.11,5.765,1.1,4,1.4,9.815l-1.4,1.4h1.4v2.8h1.4q-0.7,2.1-1.4,4.206h1.4v2.805h1.4V118.4h1.4v7.011h1.4v2.8h1.4c0.56,1.9-.416.272-1.4,1.4q0.7,5.608,1.4,11.218h1.4q0.7,2.1,1.4,4.207h-1.4c-0.357,3.5,2.356,4.326,2.8,7.011h-1.4q0.7,2.8,1.4,5.608h1.4c0.423,1.589-2.611,2.5-1.4,5.609l2.8,1.4c0.5,1.444-2.625,2.584-1.4,5.608,0.614,1.52,2.7-.175,2.8,4.207,0,0-1.828,1.245-1.4,2.8H428q0.7,2.1,1.4,4.207c-0.341.671-2.359,0.263-1.4,2.8l2.8,1.4q-0.7,2.8-1.4,5.608h1.4v2.805h1.4q-0.7,2.1-1.4,4.206h1.4q0.7,2.8,1.4,5.609l-1.4,1.4h1.4v2.8h1.4v7.011h1.4v2.8h1.4q-0.7,2.1-1.4,4.207h1.4v2.8h1.4c0.376,1.6-2.261,2.442-1.4,5.609h1.4v7.011h1.4v2.8h1.4q-0.7,2.1-1.4,4.206h1.4v2.8h1.4q-0.7,2.1-1.4,4.206h1.4v2.805h1.4c0.376,1.649-2.591,2.463-1.4,5.608l2.8,1.4q-0.7,2.8-1.4,5.609,1.4,0.7,2.8,1.4-0.7,2.8-1.4,5.609h1.4v2.8h1.4c0.265,1.329-2.955,3.994-1.4,7.011h1.4v-2.8c3.677-3.054,9.138-18.3,7.01-26.642h-1.4a2.29,2.29,0,0,1,1.4-2.805q-0.7-2.8-1.4-5.609h-1.4q0.7-2.1,1.4-4.206h-1.4v-2.805h-1.4v-4.206h-1.4v-7.011h-1.4v-2.8h-1.4v-9.815l-2.8-1.4v-4.207c-0.594-1.892-1.051.55-1.4-1.4,0.232-.625,2.2-0.246,1.4-2.8h-1.4q-1.4-4.206-2.8-8.413h1.4v-1.4h-1.4q-0.7-3.506-1.4-7.011h-1.4V180.1h-1.4v-2.805h-1.4v-4.206h-1.4l1.4-4.207h-1.4q-0.7-2.8-1.4-5.609h-1.4q0.7-2.1,1.4-4.206h-1.4v-4.207h-1.4v-2.8H428v-8.414h-1.4v-2.8h-1.4v-8.413h-1.4q-0.7-2.805-1.4-5.609h-1.4q0.7-2.1,1.4-4.207h-1.4V118.4h-1.4v-2.805h-1.4v-8.413h-1.4q-0.7-2.8-1.4-5.609h-1.4c-0.514-1.915,1.061.552,1.4-1.4,0.985-5.641-1.865-3.9-2.8-5.609V90.355h-1.4ZM428,128.214q1.4,4.206,2.8,8.413h1.4v-2.8c-1.3-1.51-.93.107-1.4-2.8h1.4c0.939-1.747-.869-0.79-1.4-1.4C429.2,128.02,430.8,129.058,428,128.214Zm2.8,9.816v2.8h1.4v-2.8h-1.4ZM311.632,168.878v4.207h1.4v-1.4c1.6-1.6.558,0,1.4-2.805h2.8v-2.8c3.386-.74,11.4-5.9,15.422-4.207q0.7,1.4,1.4,2.805l4.2,1.4v-1.4h1.4c2.632,2.472-1.512,2.57,4.206,4.206v5.609c0.4,1.11,2.9.546,2.8,2.8h-1.4V181.5h-1.4q0.7,2.1,1.4,4.207l-2.8,1.4q-0.7,3.505-1.4,7.011-2.1,1.4-4.206,2.8c-2.634,4.32,2.525,3.648-4.205,5.609v4.207h-1.4c-1.6,1.6,0,.558-2.8,1.4-1.222,4.807-2.9,3.61-4.206,8.413l-5.608,1.4,1.4,2.8c-1.822,2.267-2.639-1.533-4.206,4.206-7.539-1.617-7.405-6.552-14.02-8.413q-0.7-2.8-1.4-5.609h-2.8v-2.8c-1.981-.085.206,0.241-1.4,1.4-2.216,1.6-1.305-3.447-1.4-4.207H292q-0.7-2.8-1.4-5.608l-4.206-1.4v-5.608l-2.8,1.4v-4.207h-1.4v-2.8h-1.4V182.9h-1.4q1.4-7.01,2.8-14.022H285v-2.8h2.8v-2.805h7.01v-1.4h1.4v1.4h2.8v-1.4h1.4l1.4,2.805h4.206v1.4C308.235,167.659,308.43,168.015,311.632,168.878Zm-88.324,16.827h2.8q0.7-2.1,1.4-4.207c4.758-.557,5.829-1.424,9.813-2.8v-1.4c2.562-.519.562,2.446,5.608,0v1.4l9.814,5.608v2.805h1.4c1.626,2.84.009,3.14,2.8,5.609-1.108,3.073-5.386,10.7-2.8,12.619h-2.8q-0.7,3.505-1.4,7.011h-2.8v4.207h-2.8c-0.56,2.545-1.149,5.6-2.8,7.011h-2.8q-0.7,2.1-1.4,4.207l-2.8,1.4v2.8c-3.873,1.015-3.137.392-4.206,4.207-4.806,1.221-3.61,2.9-8.412,4.207-1.825-3.345-4.188-5.944-8.412-7.011-1.014-3.874-.391-3.137-4.206-4.207-1.221-4.807-2.9-3.61-4.206-8.413h-2.8c-0.9-3.841-1.835-3.192-2.8-7.011h-2.8V208.14l-4.206-1.4q-0.7-3.505-1.4-7.011h-1.4v-1.4h1.4v-5.608h-1.4c-0.209-1.972,1.013.542,1.4-1.4v-5.608h2.8q0.7-2.1,1.4-4.207c5.2-.572,13.027-4.532,15.422-2.8,4.967,2.041,9.777,4.075,11.216,9.815C223.5,186.911,222.464,188.5,223.308,185.705Zm-92.53,12.619v4.207h1.4c1.6,1.6,0,.559,2.8,1.4,0.9-3.84,1.835-3.192,2.8-7.011l7.009-1.4v-1.4h8.412v1.4l2.8-1.4v1.4a17.783,17.783,0,0,0,7.01,2.8v2.8l2.8,1.4c3.037,7.307-3.518,18.2-4.206,23.838h-2.8l-7.01,12.619H149V243.2c-5.749,1.524-1.557.774-4.206,4.207l-4.206,2.8v1.4l-4.205,1.4v2.805c-10.862-1.144-6.807-7.363-15.422-9.816-1.014-3.873-.391-3.136-4.206-4.206v-2.805h-2.8c-0.439-4.221-.9-4.581-2.8-7.011h-1.4q-0.7-2.1-1.4-4.206-1.4-.7-2.8-1.4v-4.207h-1.4v-2.8h-1.4c-1.752-3.855.422-4.236-2.8-7.012q0.7-4.206,1.4-8.413h1.4v-2.8h1.4l1.4-4.207,7.01-1.4v-1.4a3.61,3.61,0,0,1,4.206,1.4h1.4v-1.4l2.8,1.4v-1.4h1.4v1.4l2.8-1.4v2.8C126.716,198.421,127.887,197.946,130.778,198.324Zm398.16,35.056h-2.8q-0.7,1.4-1.4,2.8l-14.02-1.4-2.8-4.207h-1.4v-2.8h-1.4c-2.7-7.584,4.632-16.855,8.412-18.229h9.814v1.4h2.8c2.452,1.608,8.547,11.64,5.608,18.229l-2.8,1.4v2.805Zm138.795-18.229h21.029v42.066h1.4c3.327-5.227,23.472-14.719,35.05-11.218v1.4h5.607v1.4h4.206v1.4l5.608,1.4v1.4h2.8l1.4,2.805,5.608,4.206v2.805h1.4q1.4,4.206,2.8,8.413h1.4q0.7,12.62,1.4,25.24v49.077h-21.03V299.283c0-7,.691-14.437-1.4-19.631h-1.4v-4.206h-1.4q-2.8-3.506-5.607-7.011c-2.353-1.619-3.175-.033-5.608-2.805H705.586v1.4l-7.01,1.4-4.206,5.609h-1.4q-0.7,2.8-1.4,5.608h-1.4v7.011c-4.271,14.186-1.42,41.678-1.4,58.893H667.733v-130.4Zm232.727,0h21.03v130.4H900.46v-130.4Zm49.069,8.413h22.432V247.4h22.431V265.63H971.961v58.893l4.205,1.4c2.875,2.643,12.932,1.543,18.226,1.4v18.229H967.755c-3.112-1.013-5.91-3.33-9.814-4.207q-3.505-4.906-7.01-9.815v-7.011c-4.271-14.186-1.42-41.677-1.4-58.893H938.313V247.4h11.216V223.564ZM643.9,345.556H622.87V285.261c-1.061-3.5-3.337-7.245-4.206-11.217l-5.608-4.207v-1.4c-2.353-1.625-3.214.028-5.608-2.805H590.624v1.4l-5.608,1.4q-2.1,2.8-4.2,5.609h-1.4v2.8h-1.4v2.8h-1.4v5.609h-1.4v60.295h-21.03V247.4H575.2v9.815h1.4c2.725-4.624,3.868-3.165,8.411-5.609v-1.4l5.608-1.4v-1.4h7.01V246c4.473-1.278,21.094,1.6,23.834,2.805v1.4h2.8v1.4h2.8l2.8,4.207h2.8C647.992,268.031,644.283,316.807,643.9,345.556ZM854.2,247.4h21.03v98.154H854.2V334.338h-1.4c-2.162,3.461-1.543.863-4.206,2.8q-1.4,2.1-2.8,4.206c-7.144,4.7-16.194,5.686-28.039,5.609h-8.412v-1.4h-4.206v-1.4h-2.8v-1.4l-5.608-1.4q-0.7-1.4-1.4-2.8h-2.8l-4.206-5.609-2.8-1.4v-2.8l-2.8-1.4q-1.4-4.206-2.8-8.413h-1.4v-2.8h-1.4q-0.7-7.712-1.4-15.425-0.7-2.8-1.4-5.608h1.4v-12.62h1.4l1.4-8.413h1.4q0.7-2.805,1.4-5.609h1.4V265.63l5.608-4.206q0.7-2.1,1.4-4.207h2.8q1.4-2.1,2.8-4.207l8.412-2.8v-1.4l11.216-1.4V246l19.627,1.4v1.4h4.206v1.4h2.8v1.4h2.8l1.4,2.805h2.8v1.4l5.608,4.206V247.4Zm-346.287,0h21.03v98.154h-21.03V247.4Zm297.218,25.239a11.965,11.965,0,0,1-2.8,5.609h-1.4c-3.585,5.574-5.369,17.768-2.8,25.24V309.1h1.4c2.68,13.419,15.144,19.994,32.245,19.631v-1.4l7.01-1.4,1.4-2.8h2.8v-1.4l4.206-2.805v-2.8l2.8-1.4c1.642-2.525-.012-3.164,2.8-5.608q0.7-9.114,1.4-18.229h-1.4q-0.7-4.907-1.4-9.815c-4.186-2.835-.642-1.3-2.8-4.207l-2.8-1.4c-5.263-5.507-8.645-9.739-19.627-9.816h-8.412v1.4l-7.01,1.4v1.4A11.915,11.915,0,0,1,805.126,272.641ZM164.425,372.2c-0.485,5.471-3.11,7.743-5.608,11.218h-1.4l1.4,2.8-5.608,4.207q0.7,1.4,1.4,2.8l-4.206,2.8v4.207l-4.206,2.8v4.207l-4.206,2.8v2.805h-1.4q0.7,2.1,1.4,4.206h1.4v4.207h1.4v1.4h-1.4c0.365,1.895,2.988,8.6,4.206,9.816l4.206-14.022h2.8q1.4-4.206,2.8-8.414h1.4q0.7-4.206,1.4-8.413h1.4v-2.8l4.206-2.8q3.5-9.815,7.01-19.63h2.8c0.77-4.478,2.591-7.7,4.206-11.218h-1.4c-2.526,2.21-8.015,2.365-9.814,1.4v1.4h-1.4l1.4,2.805h-1.4C165.632,372.392,167.224,371.354,164.425,372.2ZM104.14,383.416v2.8h1.4v-2.8h-1.4Zm1.4,12.619h2.8c-0.672-1.865-.656.435-1.4-1.4v-5.609h-1.4v7.011Zm0,1.4,1.4,4.206h-1.4v1.4h1.4v5.609h1.4l-1.4,4.207h1.4c1.184-1.591-.178-0.2,1.4-1.4l1.4-2.805C106.366,404.07,111.681,401.586,105.542,397.438Zm808.938,8.413V398.84a14.844,14.844,0,0,1,5.608-1.4c1.533,2.914,2.258,2.483,2.8,7.011A21.993,21.993,0,0,1,914.48,405.851ZM677.547,398.84h7.009v28.044h1.4l11.216-14.022h8.412c-1.123,4.46-13.013,16.054-16.824,18.229v1.4h1.4l16.824,19.631h-8.412c-2.327-4.127-9.91-11.661-14.02-14.022v14.022h-7.009V398.84Zm301.423,0h5.608v53.284H978.97V398.84Zm-605.651,2.8h33.647v5.609h-14.02v44.871h-5.608V407.253H373.319v-5.609Zm172.442,0h7.01q1.4,4.206,2.8,8.413h1.4v4.207h1.4v2.8h1.4v2.805h1.4v2.8h1.4v4.207h1.4l5.608,15.424c1.59-1.184.2,0.178,1.4-1.4h1.4V436.7h1.4v-2.8h1.4v-2.8h1.4v-2.805h1.4V424.08h1.4v-2.805h1.4l1.4-5.609h1.4V411.46h1.4v-2.805h1.4c3.07-5.645-.47-6.55,8.412-7.011v50.48h-5.608c0.145-7.006,1.536-31.778-1.4-35.056-0.542,6.23-3.455,8.489-5.608,12.62l-1.4,7.011h-1.4q-2.8,7.711-5.608,15.425h-5.608l-7.01-16.827h-1.4v-4.206h-1.4v-2.805h-1.4v-2.8h-1.4q-0.7-3.506-1.4-7.011h-1.4v33.653h-7.01v-50.48Zm248.149,7.011c-0.622,3.473-1.288,5.147-1.4,9.816,1.737,0.861,2.068,2.352,2.8,2.8h2.8v1.4c8.221,3.773,17.05,1.086,19.628,11.218,3.887,4.1-.432,10.079-1.4,14.022-7.015,3.188-9.8,4.252-21.03,4.207-3.484-3.866-6.7-2.031-8.412-8.414h-1.4V438.1h7.01v4.206c5.71,3.318,5.265,4.309,15.422,4.207,2.4-4.119,4.053-4.014,4.206-11.218-1.6-1.6-.559-0.005-1.4-2.8l-19.628-5.609v-1.4c-2.578-2-3.239-1.715-4.206-5.609h-1.4V411.46h1.4v-4.207c3.521-6.046,13.725-6.116,23.834-5.609,2.766,4.208,3.961,1.32,5.608,7.011h1.4v4.207h1.4v1.4h-7.01q-1.4-2.8-2.8-5.609c-1.14-.991-0.84,1.042-2.8-1.4A56.271,56.271,0,0,0,793.91,408.655Zm-302.826-5.609h5.608v9.816h11.216v5.609H496.692V443.71c3.537,1.878,4.914,2.791,11.216,2.805v5.609H496.692v-1.4c-3.446-.882-2.44-0.57-4.206-2.8h-1.4V418.471h-5.608v-5.609h5.608v-9.816ZM449.025,435.3H418.182q0.7,3.505,1.4,7.011c1.489,0.818,2.251,2.474,2.8,2.805h2.8v1.4h11.215c2.018-3.457,4.4-3.909,5.608-8.413h7.01c-0.915,5.349-3.228,9.925-8.412,11.217-3.963,4.679-15.119,2.619-21.029,1.4l-4.206-5.608h-1.4c-1.624-2.354.028-3.214-2.8-5.609-0.161-9.678,1.385-14.218,2.8-21.033,4.538-2.516,5.54-5.187,12.618-5.609,3.9-3.692,11.311.456,15.421,1.4C446.911,422.569,449.1,420.6,449.025,435.3Zm187.864-22.435H642.5v39.262h-5.608v-5.609h-1.4c-2.116,3.425-13.225,8.608-21.029,5.609v-1.4h-2.8v-1.4l-4.206-1.4-1.4-4.207h-1.4V439.5h-1.4c-3.519-11.04,3.064-23.519,9.814-25.24,1.513-1.612,8.329-4.208,12.618-2.8v1.4h4.206v1.4h2.8v1.4l4.206,2.805v-5.609Zm35.05-1.4v7.011c-4.678.037-6.347,0.737-9.814,1.4q-0.7,2.1-1.4,4.207c-2.732,3.018-1.528,21.816-1.4,28.044h-7.01V412.862h7.01v2.8C663.375,413.508,665.434,411.758,671.939,411.46ZM747.645,435.3H715.4v1.4h1.4v4.207l2.8,1.4q0.7,1.4,1.4,2.805c2.895,1.863,7.962,1.462,12.617,1.4,1.419-1.862,4.274-2.532,5.608-4.207q0.7-2.1,1.4-4.206h5.608c-0.3,6.82-1.5,4.745-2.8,9.815l-4.206,1.4v1.4h-2.8v1.4H721.008v-1.4h-2.8v-1.4l-4.206-1.4-1.4-4.207h-1.4v-2.8h-1.4V433.9c-0.12-10.225,1.887-17.615,9.814-19.631,2.653-2.8.73-.034,4.206-1.4,6.916-2.723,10.489-.007,16.823,1.4,1.7,2.984,3.158,3.052,4.206,7.011C747.786,424.13,747.755,429.33,747.645,435.3Zm92.53-23.837,14.02,1.4c2.158,3.426,1.707.871,4.206,2.8l1.4,2.805h1.4c1.6,2.24,0,3.226,2.8,5.609,0.407,13.008-.448,20.729-8.412,25.239-3.4,3.488-11.224,2.959-18.226,2.805-3.757-4.175-8-2.927-9.813-9.816-3.315-3.228-2.952-10.14-2.8-16.826,2.807-2.408,1.183-3.269,2.8-5.609l5.607-4.207v-1.4l7.01-1.4v-1.4Zm63.089,4.206c1.07,4.431,3.122,5.119,4.206,9.816h-7.01l-1.4-4.207c-2.528-3.1-7.229-3.874-12.618-4.207v1.4h-4.206v1.4h-1.4c-0.771,1.3-2.549,2.378-2.8,2.8v2.805h-1.4c-2.041,5.608,2.17,18.443,4.205,19.631h2.8v1.4h11.216l1.4-2.805h2.8q0.7-2.8,1.4-5.608h7.01c-0.915,5.586-2.876,8.862-7.01,11.217-1.848,2-12.992,4.63-18.226,2.805v-1.4h-4.206v-1.4c-2.9-2.183-4.586-2.747-5.607-7.011-5.854-5.565-1.379-16.21,0-22.435,3.456-2.018,3.908-4.4,8.411-5.609,1.583-1.671,8.238-4.147,12.618-2.8v1.4h5.608q0.7,1.4,1.4,2.8h2.8Zm58.883-2.8h7.01v39.262h-7.01v-5.609h-1.4c-3.918,7.028-18.133,7.617-25.236,2.8v-1.4l-4.206-2.8v-2.805h-1.4q-0.7-7.712-1.4-15.424h1.4q0.7-3.505,1.4-7.011c3.457-2.018,3.909-4.4,8.412-5.609,2.64-2.825.718-.039,4.206-1.4,8.1-3.164,12.569,1,18.226,4.206v-4.206Zm-508.916,0h7.01c1.835,4.5,4.869,11.264,9.814,12.62a15.055,15.055,0,0,1,2.8-7.011h1.4c3.508-5.082.614-5.672,9.813-5.609v1.4l-2.8,1.4q-0.7,2.805-1.4,5.609l-2.8,1.4v2.805l-2.8,1.4v2.8c-0.7,1.3-2.45.544-2.8,2.805l2.8,1.4q0.7,2.8,1.4,5.609l2.8,1.4v2.8l2.8,1.4v2.8h1.4l1.4,4.207h-7.009L468.653,438.1c-1.591,1.183-.2-0.178-1.4,1.4-5.952,5.266-3.723,12.452-15.422,12.62v-1.4c3.043-2.514,10.1-13.821,11.216-18.228C464.26,428.928,454.825,419.447,453.231,412.862Zm461.249,0h7.01v39.262h-7.01V412.862Zm-496.3,16.826h25.235v-1.4h-1.4q-0.7-3.505-1.4-7.011c-5.076-2.439-6.8-4.935-12.617-2.8H423.79v1.4l-5.608,4.207v5.608Zm201.884-12.62v1.4H615.86l-4.206,5.609h-1.4v4.206c-2.246,6.088.128,7.97,1.4,14.022,6.046,3.325,5.248,4.237,15.422,4.207,3.893-4.541,7.966-4.085,8.411-12.62,1.852-2.4-.52-7.194-1.4-11.218C629.365,420.1,627.484,417.456,620.066,417.068Zm95.334,12.62h25.235V424.08c-3.537-2.154-8.124-9.35-15.421-7.012v1.4l-5.608,1.4C718.074,423.329,716.327,425.483,715.4,429.688ZM834.567,443.71h2.8q0.7,1.4,1.4,2.805h11.216v-1.4h2.8l1.4-2.805h1.4c1.981-2.966,2.732-9.134,2.8-14.022H857V424.08l-5.608-4.207v-1.4l-9.814-1.4c-3.484,3.866-6.7,2.031-8.412,8.414C828.791,430.081,833.623,439.818,834.567,443.71Zm112.158-26.642v1.4l-7.01,1.4c-6.76,13.717-6.714,27.2,14.02,26.642,1.862-2.264,3.994-2.9,5.608-5.609C969.558,431.454,957.044,417.715,946.725,417.068Zm-427.6,35.056h-7.01q-0.7-2.805-1.4-5.609c2.913-1.534,2.482-2.259,7.01-2.805A22,22,0,0,1,519.124,452.124Zm234.129-8.414h5.608a17.8,17.8,0,0,1,1.4,7.011,17.8,17.8,0,0,1-7.01,1.4,14.874,14.874,0,0,1-1.4-5.609C753.447,444.917,752.41,446.51,753.253,443.71Zm239.737,0H998.6a17.8,17.8,0,0,1,1.4,7.011,17.8,17.8,0,0,1-7.01,1.4C991.382,447.951,991.462,447.861,992.99,443.71Z"/>
</svg>
