<svg height="201" viewBox="0 0 201 201" width="201" xmlns="http://www.w3.org/2000/svg"><g fill="#2D3552"><rect height="2" rx="1" transform="matrix(0 1 -1 0 7 0)" width="12"/><rect height="2" rx="1" transform="matrix(0 1 -1 0 7 108)" width="12"/><rect height="2" rx="1" transform="matrix(0 1 -1 0 7 54)" width="12"/><rect height="2" rx="1" transform="matrix(0 1 -1 0 7 162)" width="12"/><rect height="2" rx="1" transform="matrix(0 1 -1 0 7 27)" width="12"/><rect height="2" rx="1" transform="matrix(0 1 -1 0 7 135)" width="12"/><rect height="2" rx="1" transform="matrix(0 1 -1 0 7 81)" width="12"/><rect height="2" rx="1" transform="matrix(0 1 -1 0 7 189)" width="12"/><rect height="2" rx="1" transform="matrix(0 1 -1 0 115 0)" width="12"/><rect height="2" rx="1" transform="matrix(0 1 -1 0 115 108)" width="12"/><rect height="2" rx="1" transform="matrix(0 1 -1 0 115 54)" width="12"/><rect height="2" rx="1" transform="matrix(0 1 -1 0 115 162)" width="12"/><rect height="2" rx="1" transform="matrix(0 1 -1 0 115 27)" width="12"/><rect height="2" rx="1" transform="matrix(0 1 -1 0 115 135)" width="12"/><rect height="2" rx="1" transform="matrix(0 1 -1 0 115 81)" width="12"/><rect height="2" rx="1" transform="matrix(0 1 -1 0 115 189)" width="12"/><rect height="2" rx="1" transform="matrix(0 1 -1 0 61 0)" width="12"/><rect height="2" rx="1" transform="matrix(0 1 -1 0 61 108)" width="12"/><rect height="2" rx="1" transform="matrix(0 1 -1 0 61 54)" width="12"/><rect height="2" rx="1" transform="matrix(0 1 -1 0 61 162)" width="12"/><rect height="2" rx="1" transform="matrix(0 1 -1 0 61 27)" width="12"/><rect height="2" rx="1" transform="matrix(0 1 -1 0 61 135)" width="12"/><rect height="2" rx="1" transform="matrix(0 1 -1 0 61 81)" width="12"/><rect height="2" rx="1" transform="matrix(0 1 -1 0 61 189)" width="12"/><rect height="2" rx="1" transform="matrix(0 1 -1 0 169 0)" width="12"/><rect height="2" rx="1" transform="matrix(0 1 -1 0 169 108)" width="12"/><rect height="2" rx="1" transform="matrix(0 1 -1 0 169 54)" width="12"/><rect height="2" rx="1" transform="matrix(0 1 -1 0 169 162)" width="12"/><rect height="2" rx="1" transform="matrix(0 1 -1 0 169 27)" width="12"/><rect height="2" rx="1" transform="matrix(0 1 -1 0 169 135)" width="12"/><rect height="2" rx="1" transform="matrix(0 1 -1 0 169 81)" width="12"/><rect height="2" rx="1" transform="matrix(0 1 -1 0 169 189)" width="12"/><rect height="2" rx="1" transform="matrix(0 1 -1 0 34 0)" width="12"/><rect height="2" rx="1" transform="matrix(0 1 -1 0 34 108)" width="12"/><rect height="2" rx="1" transform="matrix(0 1 -1 0 34 54)" width="12"/><rect height="2" rx="1" transform="matrix(0 1 -1 0 34 162)" width="12"/><rect height="2" rx="1" transform="matrix(0 1 -1 0 34 27)" width="12"/><rect height="2" rx="1" transform="matrix(0 1 -1 0 34 135)" width="12"/><rect height="2" rx="1" transform="matrix(0 1 -1 0 34 81)" width="12"/><rect height="2" rx="1" transform="matrix(0 1 -1 0 34 189)" width="12"/><rect height="2" rx="1" transform="matrix(0 1 -1 0 142 0)" width="12"/><rect height="2" rx="1" transform="matrix(0 1 -1 0 142 108)" width="12"/><rect height="2" rx="1" transform="matrix(0 1 -1 0 142 54)" width="12"/><rect height="2" rx="1" transform="matrix(0 1 -1 0 142 162)" width="12"/><rect height="2" rx="1" transform="matrix(0 1 -1 0 142 27)" width="12"/><rect height="2" rx="1" transform="matrix(0 1 -1 0 142 135)" width="12"/><rect height="2" rx="1" transform="matrix(0 1 -1 0 142 81)" width="12"/><rect height="2" rx="1" transform="matrix(0 1 -1 0 142 189)" width="12"/><rect height="2" rx="1" transform="matrix(0 1 -1 0 88 0)" width="12"/><rect height="2" rx="1" transform="matrix(0 1 -1 0 88 108)" width="12"/><rect height="2" rx="1" transform="matrix(0 1 -1 0 88 54)" width="12"/><rect height="2" rx="1" transform="matrix(0 1 -1 0 88 162)" width="12"/><rect height="2" rx="1" transform="matrix(0 1 -1 0 88 27)" width="12"/><rect height="2" rx="1" transform="matrix(0 1 -1 0 88 135)" width="12"/><rect height="2" rx="1" transform="matrix(0 1 -1 0 88 81)" width="12"/><rect height="2" rx="1" transform="matrix(0 1 -1 0 88 189)" width="12"/><rect height="2" rx="1" transform="matrix(0 1 -1 0 196 0)" width="12"/><rect height="2" rx="1" transform="matrix(0 1 -1 0 196 108)" width="12"/><rect height="2" rx="1" transform="matrix(0 1 -1 0 196 54)" width="12"/><rect height="2" rx="1" transform="matrix(0 1 -1 0 196 162)" width="12"/><rect height="2" rx="1" transform="matrix(0 1 -1 0 196 27)" width="12"/><rect height="2" rx="1" transform="matrix(0 1 -1 0 196 135)" width="12"/><rect height="2" rx="1" transform="matrix(0 1 -1 0 196 81)" width="12"/><rect height="2" rx="1" transform="matrix(0 1 -1 0 196 189)" width="12"/><rect height="2" rx="1" transform="matrix(-1 0 0 -1 12 7)" width="12"/><rect height="2" rx="1" transform="matrix(-1 0 0 -1 12 115)" width="12"/><rect height="2" rx="1" transform="matrix(-1 0 0 -1 12 61)" width="12"/><rect height="2" rx="1" transform="matrix(-1 0 0 -1 12 169)" width="12"/><rect height="2" rx="1" transform="matrix(-1 0 0 -1 12 34)" width="12"/><rect height="2" rx="1" transform="matrix(-1 0 0 -1 12 142)" width="12"/><rect height="2" rx="1" transform="matrix(-1 0 0 -1 12 88)" width="12"/><rect height="2" rx="1" transform="matrix(-1 0 0 -1 12 196)" width="12"/><rect height="2" rx="1" transform="matrix(-1 0 0 -1 120 7)" width="12"/><rect height="2" rx="1" transform="matrix(-1 0 0 -1 120 115)" width="12"/><rect height="2" rx="1" transform="matrix(-1 0 0 -1 120 61)" width="12"/><rect height="2" rx="1" transform="matrix(-1 0 0 -1 120 169)" width="12"/><rect height="2" rx="1" transform="matrix(-1 0 0 -1 120 34)" width="12"/><rect height="2" rx="1" transform="matrix(-1 0 0 -1 120 142)" width="12"/><rect height="2" rx="1" transform="matrix(-1 0 0 -1 120 88)" width="12"/><rect height="2" rx="1" transform="matrix(-1 0 0 -1 120 196)" width="12"/><rect height="2" rx="1" transform="matrix(-1 0 0 -1 66 7)" width="12"/><rect height="2" rx="1" transform="matrix(-1 0 0 -1 66 115)" width="12"/><rect height="2" rx="1" transform="matrix(-1 0 0 -1 66 61)" width="12"/><rect height="2" rx="1" transform="matrix(-1 0 0 -1 66 169)" width="12"/><rect height="2" rx="1" transform="matrix(-1 0 0 -1 66 34)" width="12"/><rect height="2" rx="1" transform="matrix(-1 0 0 -1 66 142)" width="12"/><rect height="2" rx="1" transform="matrix(-1 0 0 -1 66 88)" width="12"/><rect height="2" rx="1" transform="matrix(-1 0 0 -1 66 196)" width="12"/><rect height="2" rx="1" transform="matrix(-1 0 0 -1 174 7)" width="12"/><rect height="2" rx="1" transform="matrix(-1 0 0 -1 174 115)" width="12"/><rect height="2" rx="1" transform="matrix(-1 0 0 -1 174 61)" width="12"/><rect height="2" rx="1" transform="matrix(-1 0 0 -1 174 169)" width="12"/><rect height="2" rx="1" transform="matrix(-1 0 0 -1 174 34)" width="12"/><rect height="2" rx="1" transform="matrix(-1 0 0 -1 174 142)" width="12"/><rect height="2" rx="1" transform="matrix(-1 0 0 -1 174 88)" width="12"/><rect height="2" rx="1" transform="matrix(-1 0 0 -1 174 196)" width="12"/><rect height="2" rx="1" transform="matrix(-1 0 0 -1 39 7)" width="12"/><rect height="2" rx="1" transform="matrix(-1 0 0 -1 39 115)" width="12"/><rect height="2" rx="1" transform="matrix(-1 0 0 -1 39 61)" width="12"/><rect height="2" rx="1" transform="matrix(-1 0 0 -1 39 169)" width="12"/><rect height="2" rx="1" transform="matrix(-1 0 0 -1 39 34)" width="12"/><rect height="2" rx="1" transform="matrix(-1 0 0 -1 39 142)" width="12"/><rect height="2" rx="1" transform="matrix(-1 0 0 -1 39 88)" width="12"/><rect height="2" rx="1" transform="matrix(-1 0 0 -1 39 196)" width="12"/><rect height="2" rx="1" transform="matrix(-1 0 0 -1 147 7)" width="12"/><rect height="2" rx="1" transform="matrix(-1 0 0 -1 147 115)" width="12"/><rect height="2" rx="1" transform="matrix(-1 0 0 -1 147 61)" width="12"/><rect height="2" rx="1" transform="matrix(-1 0 0 -1 147 169)" width="12"/><rect height="2" rx="1" transform="matrix(-1 0 0 -1 147 34)" width="12"/><rect height="2" rx="1" transform="matrix(-1 0 0 -1 147 142)" width="12"/><rect height="2" rx="1" transform="matrix(-1 0 0 -1 147 88)" width="12"/><rect height="2" rx="1" transform="matrix(-1 0 0 -1 147 196)" width="12"/><rect height="2" rx="1" transform="matrix(-1 0 0 -1 93 7)" width="12"/><rect height="2" rx="1" transform="matrix(-1 0 0 -1 93 115)" width="12"/><rect height="2" rx="1" transform="matrix(-1 0 0 -1 93 61)" width="12"/><rect height="2" rx="1" transform="matrix(-1 0 0 -1 93 169)" width="12"/><rect height="2" rx="1" transform="matrix(-1 0 0 -1 93 34)" width="12"/><rect height="2" rx="1" transform="matrix(-1 0 0 -1 93 142)" width="12"/><rect height="2" rx="1" transform="matrix(-1 0 0 -1 93 88)" width="12"/><rect height="2" rx="1" transform="matrix(-1 0 0 -1 93 196)" width="12"/><rect height="2" rx="1" transform="matrix(-1 0 0 -1 201 7)" width="12"/><rect height="2" rx="1" transform="matrix(-1 0 0 -1 201 115)" width="12"/><rect height="2" rx="1" transform="matrix(-1 0 0 -1 201 61)" width="12"/><rect height="2" rx="1" transform="matrix(-1 0 0 -1 201 169)" width="12"/><rect height="2" rx="1" transform="matrix(-1 0 0 -1 201 34)" width="12"/><rect height="2" rx="1" transform="matrix(-1 0 0 -1 201 142)" width="12"/><rect height="2" rx="1" transform="matrix(-1 0 0 -1 201 88)" width="12"/><rect height="2" rx="1" transform="matrix(-1 0 0 -1 201 196)" width="12"/></g></svg>