<svg xmlns="http://www.w3.org/2000/svg" width="200.2" height="90.44" viewBox="0 0 715 323">
  <defs>
    <style>
      .cls-1 {
        fill: #fff;
        fill-rule: evenodd;
      }
    </style>
  </defs>
  <path id="Text._Marke._Social." data-name="Text. Marke. Social." class="cls-1" d="M256.958,286.954v3.7h9.55V321.8h4.55v-31.15h9.5v-3.7h-23.6Zm54.2,20.1a13.8,13.8,0,0,0-1.625-6.725,11.776,11.776,0,0,0-4.625-4.675,13.755,13.755,0,0,0-6.9-1.7,14.213,14.213,0,0,0-7.075,1.725,11.934,11.934,0,0,0-4.775,4.925,15.656,15.656,0,0,0-1.7,7.45,15.423,15.423,0,0,0,1.75,7.475,12.385,12.385,0,0,0,4.825,4.975,13.847,13.847,0,0,0,6.975,1.75,13.28,13.28,0,0,0,8.2-2.475,11.775,11.775,0,0,0,4.4-6.425h-4.9a7.269,7.269,0,0,1-2.775,3.675,8.412,8.412,0,0,1-4.925,1.375,8.612,8.612,0,0,1-8.9-8.6h21.9a26.762,26.762,0,0,0,.15-2.75h0Zm-4.7-.95h-17.3a8.962,8.962,0,0,1,2.775-6.1,8.437,8.437,0,0,1,5.875-2.2,9.748,9.748,0,0,1,4.375.975,7.478,7.478,0,0,1,3.125,2.85,8.391,8.391,0,0,1,1.15,4.475h0Zm30.15,15.7-8.85-13.85,8.8-13.55h-4.75l-6.2,10.15-6.5-10.15h-5.15l8.85,13.8-8.85,13.6h4.75l6.25-10.2,6.5,10.2h5.15Zm17.2-23.65V294.4h-7.15v-6.9h-4.55v6.9h-3.55v3.75h3.55V314.3q0,4,1.9,5.75t5.7,1.75h4.1v-3.85h-3.35a4.19,4.19,0,0,1-2.95-.825,3.84,3.84,0,0,1-.85-2.825v-16.15h7.15Zm6.95,23.95a2.853,2.853,0,0,0,2.125-.9,3.2,3.2,0,0,0,0-4.4,2.853,2.853,0,0,0-2.125-.9,3.1,3.1,0,1,0,0,6.2h0Zm52.9-34.9-12.8,28.6-12.8-28.6h-4.9v34.6h4.55v-25.85l11.55,25.85h3.2l11.5-25.8v25.8h4.55V287.2h-4.85ZM424.505,308a15.728,15.728,0,0,0,1.7,7.4,12.618,12.618,0,0,0,4.65,5.05,12.422,12.422,0,0,0,6.6,1.8,12.039,12.039,0,0,0,6.225-1.575,10.722,10.722,0,0,0,4.025-3.975v5.1h4.6V294.4h-4.6v5a10.337,10.337,0,0,0-3.95-3.9,12.162,12.162,0,0,0-6.25-1.55,12.829,12.829,0,0,0-6.625,1.75,12.341,12.341,0,0,0-4.675,4.925,15.4,15.4,0,0,0-1.7,7.375h0Zm23.2,0.05a11.289,11.289,0,0,1-1.25,5.425,8.78,8.78,0,0,1-3.375,3.55,9.192,9.192,0,0,1-4.675,1.225,9.057,9.057,0,0,1-4.65-1.225,8.836,8.836,0,0,1-3.35-3.55,11.4,11.4,0,0,1-1.25-5.475,11.147,11.147,0,0,1,1.25-5.4,8.706,8.706,0,0,1,3.35-3.5,9.571,9.571,0,0,1,9.325.025,8.827,8.827,0,0,1,3.375,3.525,11.147,11.147,0,0,1,1.25,5.4h0Zm16.85-9.2V294.4h-4.55v27.4h4.55V306.9q0-8.3,7.65-8.3h1.2v-4.7a10.593,10.593,0,0,0-5.425,1.3,8.736,8.736,0,0,0-3.425,3.65h0Zm35.6,22.95-12.95-13.75,12.9-13.65h-6.35l-10.55,12.15V284.8h-4.55v37h4.55V309.7l10.75,12.1h6.2Zm29.25-14.75a13.8,13.8,0,0,0-1.625-6.725,11.776,11.776,0,0,0-4.625-4.675,13.755,13.755,0,0,0-6.9-1.7,14.213,14.213,0,0,0-7.075,1.725A11.934,11.934,0,0,0,504.4,300.6a15.656,15.656,0,0,0-1.7,7.45,15.423,15.423,0,0,0,1.75,7.475,12.385,12.385,0,0,0,4.825,4.975,13.847,13.847,0,0,0,6.975,1.75,13.28,13.28,0,0,0,8.2-2.475,11.775,11.775,0,0,0,4.4-6.425h-4.9a7.269,7.269,0,0,1-2.775,3.675,8.412,8.412,0,0,1-4.925,1.375,8.612,8.612,0,0,1-8.9-8.6h21.9a26.762,26.762,0,0,0,.15-2.75h0Zm-4.7-.95H507.4a8.962,8.962,0,0,1,2.775-6.1,8.437,8.437,0,0,1,5.875-2.2,9.748,9.748,0,0,1,4.375.975,7.478,7.478,0,0,1,3.125,2.85,8.391,8.391,0,0,1,1.15,4.475h0Zm12.15,16a2.853,2.853,0,0,0,2.125-.9,3.2,3.2,0,0,0,0-4.4,2.853,2.853,0,0,0-2.125-.9,3.1,3.1,0,1,0,0,6.2h0Zm33.45,0.05a13.193,13.193,0,0,0,6.25-1.4,9.925,9.925,0,0,0,4-3.65,9.175,9.175,0,0,0,1.35-4.8,8.289,8.289,0,0,0-1.5-5.225,9.263,9.263,0,0,0-3.6-2.85,41.753,41.753,0,0,0-5.55-1.875q-2.85-.8-4.425-1.425a6.918,6.918,0,0,1-2.65-1.825A4.463,4.463,0,0,1,563.1,296a5.038,5.038,0,0,1,1.8-4.125,7.1,7.1,0,0,1,4.65-1.475,7.467,7.467,0,0,1,4.9,1.525,5.4,5.4,0,0,1,2.1,3.525h5a9.054,9.054,0,0,0-3.525-6.5A12.624,12.624,0,0,0,570,286.5a14.346,14.346,0,0,0-6.025,1.2,9.447,9.447,0,0,0-4.075,3.4,8.965,8.965,0,0,0-1.45,5.05,8.293,8.293,0,0,0,1.475,5.175,8.885,8.885,0,0,0,3.55,2.825,39.176,39.176,0,0,0,5.525,1.8,43.1,43.1,0,0,1,4.45,1.4,7.043,7.043,0,0,1,2.75,1.9,4.742,4.742,0,0,1,1.1,3.25,5.273,5.273,0,0,1-1.875,4.175A7.56,7.56,0,0,1,570.3,318.3a7.265,7.265,0,0,1-5.175-1.675A6.377,6.377,0,0,1,563.1,312.5h-4.85a8.7,8.7,0,0,0,1.6,5.025,10.28,10.28,0,0,0,4.275,3.4,14.9,14.9,0,0,0,6.175,1.225h0Zm30.249,0.1a14.547,14.547,0,0,0,7.1-1.75,12.993,12.993,0,0,0,5.075-4.975,14.6,14.6,0,0,0,1.875-7.475,14.777,14.777,0,0,0-1.825-7.45,12.624,12.624,0,0,0-4.975-4.925,15.269,15.269,0,0,0-14.1,0,12.577,12.577,0,0,0-4.975,4.95,14.81,14.81,0,0,0-1.825,7.425,15.255,15.255,0,0,0,1.775,7.475,12.454,12.454,0,0,0,4.9,4.975,14.023,14.023,0,0,0,6.975,1.75h0Zm0-4a9.2,9.2,0,0,1-4.5-1.125,8.138,8.138,0,0,1-3.275-3.425,11.892,11.892,0,0,1-1.225-5.65,11.592,11.592,0,0,1,1.25-5.6,8.25,8.25,0,0,1,3.325-3.425,9.814,9.814,0,0,1,9.125,0,8.517,8.517,0,0,1,3.4,3.425,11.22,11.22,0,0,1,1.3,5.6,11.053,11.053,0,0,1-1.325,5.6,8.742,8.742,0,0,1-3.475,3.45,9.6,9.6,0,0,1-4.6,1.15h0Zm18.35-10.2a15.763,15.763,0,0,0,1.7,7.5,12.179,12.179,0,0,0,4.725,4.95,13.574,13.574,0,0,0,6.925,1.75,13.175,13.175,0,0,0,8.25-2.525A12.049,12.049,0,0,0,644.9,313H640a7.1,7.1,0,0,1-2.75,4,8.5,8.5,0,0,1-5,1.4,8.025,8.025,0,0,1-6.3-2.7q-2.4-2.7-2.4-7.65,0-4.9,2.4-7.575a8.061,8.061,0,0,1,6.3-2.675,8.414,8.414,0,0,1,5.025,1.45A7.041,7.041,0,0,1,640,303.2h4.9a11.568,11.568,0,0,0-4.325-6.8,15,15,0,0,0-15.25-.7,12.233,12.233,0,0,0-4.725,4.925,15.507,15.507,0,0,0-1.7,7.425h0Zm34.4-18.1a2.855,2.855,0,0,0,2.125-.9,3.2,3.2,0,0,0,0-4.4,2.855,2.855,0,0,0-2.125-.9,3.1,3.1,0,1,0,0,6.2h0Zm-2.35,4.45v27.4h4.55V294.4h-4.55Zm10.6,13.6a15.728,15.728,0,0,0,1.7,7.4,12.618,12.618,0,0,0,4.65,5.05,12.422,12.422,0,0,0,6.6,1.8,12.039,12.039,0,0,0,6.225-1.575,10.722,10.722,0,0,0,4.025-3.975v5.1h4.6V294.4h-4.6v5a10.337,10.337,0,0,0-3.95-3.9,12.162,12.162,0,0,0-6.25-1.55,12.829,12.829,0,0,0-6.625,1.75,12.341,12.341,0,0,0-4.675,4.925,15.4,15.4,0,0,0-1.7,7.375h0Zm23.2,0.05a11.289,11.289,0,0,1-1.25,5.425,8.78,8.78,0,0,1-3.375,3.55,9.192,9.192,0,0,1-4.675,1.225,9.057,9.057,0,0,1-4.65-1.225,8.836,8.836,0,0,1-3.35-3.55A11.4,11.4,0,0,1,666.2,308a11.147,11.147,0,0,1,1.25-5.4,8.706,8.706,0,0,1,3.35-3.5,9.571,9.571,0,0,1,9.325.025,8.827,8.827,0,0,1,3.375,3.525,11.147,11.147,0,0,1,1.25,5.4h0Zm12.3-23.25v37h4.55v-37h-4.55ZM710.8,322.1a2.853,2.853,0,0,0,2.125-.9,3.2,3.2,0,0,0,0-4.4,2.853,2.853,0,0,0-2.125-.9,3.1,3.1,0,1,0,0,6.2h0Z"/>
  <path id="inhalt_" data-name="inhalt " class="cls-1" d="M373.132,157.5a8.679,8.679,0,0,0,6.375-2.625,9.36,9.36,0,0,0,0-13,8.679,8.679,0,0,0-6.375-2.625,9.125,9.125,0,1,0,0,18.25h0Zm-7.25,9.125V235.5h14.25V166.624h-14.25Zm67.749-1.125a28.593,28.593,0,0,0-11.563,2.375,23.6,23.6,0,0,0-8.937,6.625v-7.875h-14.25V235.5h14.25V197q0-9.249,4.687-14.188t12.688-4.937q8,0,12.625,4.937T447.756,197v38.5h14.125V194.874a32.907,32.907,0,0,0-3.625-16,24.018,24.018,0,0,0-10.063-10,30.89,30.89,0,0,0-14.562-3.375h0Zm82,0a30.733,30.733,0,0,0-12.188,2.375,23.9,23.9,0,0,0-9.187,6.75V143H480v92.5h14.25V197q0-9.249,4.687-14.188t12.688-4.937q8,0,12.625,4.937T528.879,197v38.5H543V194.874a33.373,33.373,0,0,0-3.563-16,24.026,24.026,0,0,0-9.75-10,28.884,28.884,0,0,0-14.062-3.375h0Zm40.748,35.25a39.213,39.213,0,0,0,4.313,18.562,32.337,32.337,0,0,0,11.687,12.75,31.956,31.956,0,0,0,30.5,1.313,28.311,28.311,0,0,0,9.875-8.125V235.5h14.375V166.624H612.752v10a28.818,28.818,0,0,0-9.687-7.938,30.074,30.074,0,0,0-14.188-3.187,31.417,31.417,0,0,0-28.187,16.875,38.121,38.121,0,0,0-4.313,18.375h0ZM612.752,201a25.307,25.307,0,0,1-2.937,12.437,20.51,20.51,0,0,1-7.688,8.063,20.111,20.111,0,0,1-10.25,2.75,19.871,19.871,0,0,1-10.187-2.813,20.705,20.705,0,0,1-7.75-8.187,25.646,25.646,0,0,1-2.938-12.5,24.583,24.583,0,0,1,2.938-12.313,20.266,20.266,0,0,1,7.687-7.875,20.474,20.474,0,0,1,10.25-2.687,20.131,20.131,0,0,1,10.25,2.75,20.635,20.635,0,0,1,7.688,8A24.954,24.954,0,0,1,612.752,201h0Zm33.124-58v92.5h14.25V143h-14.25Zm66.374,35.25V166.624H695.5V149.5H681.125v17.125H673v11.625h8.125v38.125q0,10.125,5.125,14.625T701,235.5h11.25V223.624H703.5q-4.377,0-6.187-1.688t-1.813-5.562V178.249h16.75Z"/>
  <path id="mehr" class="cls-1" d="M472.631,22.5a28.842,28.842,0,0,0-14.25,3.688,23.092,23.092,0,0,0-9.75,9.938,23.943,23.943,0,0,0-10-10.125,30.63,30.63,0,0,0-14.75-3.5,28.147,28.147,0,0,0-11.5,2.375,23.7,23.7,0,0,0-8.875,6.625V23.624h-14.25V92.5h14.25V54q0-9.249,4.688-14.187t12.687-4.937q8,0,12.625,4.938T438.131,54V92.5h14.125V54q0-9.249,4.688-14.187t12.687-4.937q8,0,12.625,4.938T486.881,54V92.5h14.125V51.874a32.457,32.457,0,0,0-3.687-16,24.394,24.394,0,0,0-10.125-10A30.894,30.894,0,0,0,472.631,22.5h0ZM582.254,56.374A35.969,35.969,0,0,0,578,38.686a30.048,30.048,0,0,0-11.875-11.938,35.093,35.093,0,0,0-17.375-4.25,36.086,36.086,0,0,0-17.937,4.375,30.332,30.332,0,0,0-12.125,12.438A39.031,39.031,0,0,0,514.379,58a38.123,38.123,0,0,0,4.438,18.688,31.551,31.551,0,0,0,12.25,12.5,35.162,35.162,0,0,0,17.687,4.438q12.123,0,20.313-6.062A31.03,31.03,0,0,0,580.379,72H565q-4.752,9.627-16.25,9.625a19.329,19.329,0,0,1-13.5-5,19.1,19.1,0,0,1-6.125-13.25h52.625a44.7,44.7,0,0,0,.5-7h0Zm-53-4.5a19.589,19.589,0,0,1,6.25-12.687A18.3,18.3,0,0,1,548.129,34.5a20.118,20.118,0,0,1,13.625,4.75,16.222,16.222,0,0,1,5.625,12.625H529.254ZM631.878,22.5a30.735,30.735,0,0,0-12.188,2.375,23.9,23.9,0,0,0-9.187,6.75V0h-14.25V92.5H610.5V54q0-9.249,4.687-14.187t12.688-4.937q8,0,12.625,4.938T645.128,54V92.5h14.125V51.874a33.372,33.372,0,0,0-3.563-16,24.026,24.026,0,0,0-9.75-10A28.884,28.884,0,0,0,631.878,22.5h0Zm59.748,11.125v-10h-14.25V92.5h14.25V56.249q0-10.5,4.313-14.75t12.687-4.25h3.625V22.5a24.594,24.594,0,0,0-12.312,2.938,22.371,22.371,0,0,0-8.313,8.188h0Z"/>
  <path id="bubble-5px_1" data-name="bubble-5px 1" class="cls-1" d="M127.079,323.04l-8-21.861-0.2.114a10.829,10.829,0,0,1-1.4,2.648c0.01,0.171.019,0.341,0.028,0.512l-0.4.228c0.009,0.171.019,0.342,0.028,0.513l-0.684.655c0.01,0.17.019,0.341,0.029,0.512l-0.4.228c0.009,0.171.019,0.341,0.028,0.512l-0.4.228c0.01,0.171.019,0.342,0.029,0.513a4.54,4.54,0,0,1-1.055,1.4q-0.44-1.466-.881-2.932l0.2-.114-0.456-.8,0.2-.114-0.342-.6,0.2-.114-0.342-.6,0.2-.114q-0.3-.755-0.6-1.509l0.2-.114-0.455-.8,0.2-.114-0.341-.6,0.2-.114-0.455-.8,0.2-.114-0.341-.6,0.2-.114-0.342-.6,0.2-.113-0.6-1.509,0.2-.114q-0.3-.755-0.6-1.509l0.2-.114q-0.369-1.11-.739-2.22l0.2-.114q-0.3-.755-0.6-1.508l0.2-.114-0.456-.8,0.2-.114-0.342-.6,0.2-.114-0.456-.8,0.2-.114q-0.169-.3-0.341-0.6l0.2-.114-0.341-.6,0.2-.114-0.6-1.509,0.2-.114q-0.3-.753-0.6-1.508l0.2-.114-0.456-.8,0.2-.114-0.342-.6,0.2-.114-0.456-.8a17.175,17.175,0,0,0-1.2-4.867,14.789,14.789,0,0,1-5.582,1.34l-0.6.342-0.114-.2-0.911.257-0.114-.2-0.911.256-0.114-.2-1.424.285-0.114-.2-0.712.143-0.427-.285-0.4.228-0.114-.2-0.712.142-0.427-.284-0.4.228-1.054-.456-0.4.228-2.933-.966-1.766-.313-0.228-.4-1.139-.142-0.541-.484-0.513.028-0.228-.4-0.513.029-0.228-.4L83.492,275l-0.228-.4-0.513.029-0.655-.683-0.513.029-1.082-.968-0.2.114-0.228-.4-0.2.114-1.082-.968-0.2.114-0.342-.6-0.2.114-0.228-.4-0.2.114-0.342-.6-0.2.114-0.228-.4-0.2.114-0.341-.6-0.2.114-0.342-.6-0.2.114-1-1.281-0.2.114-0.455-.8c-0.849-.773-1.892-2.106-2.733-2.931L69.825,262.2l-0.2.114-1.936-3.387,0.2-.114-1.366-2.391L33.487,166.669l-2.134-5.124c-0.28-1.213-.969-2.83-1.252-4.042l-0.683-1.195,0.2-.114L28.934,155l0.2-.114-0.683-1.195,0.2-.114-0.683-1.195c-0.9-3.9-3.246-8-4.154-11.9l-7.826-20.636-1.393-6.6,0.2-.114L14.508,111.7l0.2-.114-0.228-.4,0.2-.114-0.228-.4,0.2-.114-0.284-1.424,0.285-.427L14.4,107.8l0.285-.427-0.228-.4,0.37-.741-0.228-.4,0.285-.427-0.228-.4,0.456-1.053-0.228-.4,1.055-3.245,0.314-1.766,0.4-.228,0.143-1.139,0.4-.228,0.057-.826,0.4-.228q-0.014-.256-0.028-0.512l0.484-.541-0.114-.2,0.684-.655a23.832,23.832,0,0,1,9.743-9.8,1.81,1.81,0,0,1-.057-1.025l0.2-.114-0.228-.4,0.456-1.053-0.228-.4,1.055-3.246,0.228-1.452,0.484-.541,0.143-1.139,0.4-.228,0.057-.826,0.4-.228q-0.014-.256-0.028-0.512l0.484-.541-0.114-.2,0.4-.228-0.028-.512,0.4-.228,0.171-.626,0.4-.228-0.114-.2,0.4-.228-0.114-.2,0.4-.228-0.114-.2,0.4-.228-0.114-.2,0.969-1.082-0.114-.2,0.6-.342-0.114-.2,0.4-.228-0.114-.2,0.6-.342-0.114-.2,0.8-.456-0.114-.2,0.6-.342-0.114-.2,0.8-.456-0.114-.2,1-.57-0.114-.2,1.2-.684a29.6,29.6,0,0,1,6.067-3.732l0.114,0.2,1.2-.684,0.114,0.2,0.8-.456,0.114,0.2,0.8-.456,0.114,0.2,0.8-.456c7.464-1.312,15.21-3.459,22.671-4.762l0.8-.456,0.114,0.2,0.6-.342,0.114,0.2,0.6-.342,0.114,0.2,0.6-.342,0.114,0.2,0.6-.342,0.114,0.2,2.934-.884,0.114,0.2,0.8-.456,0.114,0.2,0.6-.342L81,51.241l0.6-.342,0.114,0.2,0.6-.342,0.114,0.2,0.6-.342,0.114,0.2,0.8-.456c7.7-1.324,15.693-3.565,23.383-4.9l3.845-1.14,0.114,0.2,0.6-.342,0.114,0.2,0.6-.342,0.114,0.2,0.6-.342,0.114,0.2,0.6-.342,0.114,0.2,2.934-.883,0.114,0.2,0.8-.456,0.114,0.2,0.6-.342,0.114,0.2,0.6-.342,0.114,0.2,0.6-.342,0.114,0.2,0.6-.342,0.114,0.2,3.845-1.14,0.114,0.2,0.6-.342,0.114,0.2,0.6-.342,0.114,0.2,0.6-.342,0.114,0.2,0.6-.342,0.114,0.2,2.934-.884,0.114,0.2,0.8-.456,0.114,0.2,0.6-.342,0.114,0.2,0.6-.342,0.114,0.2,0.6-.342,0.114,0.2,0.6-.342,0.114,0.2,0.8-.456,0.114,0.2,0.6-.342,0.114,0.2,0.6-.342,0.114,0.2,0.6-.342,0.114,0.2,0.6-.342,0.114,0.2,2.933-.884,0.114,0.2,0.8-.456,0.114,0.2,0.6-.342,0.114,0.2,0.6-.342,0.114,0.2,0.6-.342,0.114,0.2,0.6-.342,0.114,0.2,0.8-.456,0.114,0.2,0.6-.342,0.114,0.2,0.6-.342,0.114,0.2,0.8-.456,0.114,0.2,7.833-3.419c1.486-.356,3.336-1.346,4.842-1.71l1.395-.8,0.114,0.2,1.595-.912,0.114,0.2,1.4-.8,0.114,0.2,1.595-.912c3.6-.866,7.478-3.342,11.08-4.217l1.595-.912,0.114,0.2,1.4-.8c0.038,0.066.076,0.133,0.113,0.2l9.542-4.131c2-.48,4.349-1.821,6.352-2.308l1.595-.911c1.486-.358,3.337-1.346,4.842-1.71l1.4-.8,0.114,0.2,1.595-.912,0.114,0.2,1.4-.8c0.037,0.066.075,0.133,0.113,0.2l1.4-.8,0.114,0.2,1.595-.912,0.114,0.2,1.4-.8c2.6-.625,5.478-2.393,8.06-3.021l3.1-1.51,0.114,0.2,6.323-2.821,0.114,0.2,1.4-.8,0.114,0.2,1.595-.912,0.114,0.2,1.2-.684,0.114,0.2L238.192,0l0.114,0.2,0.6-.342,0.114,0.2,0.4-.228,0.114,0.2,0.6-.342,0.114,0.2,0.4-.228,0.114,0.2,0.6-.342,0.114,0.2,1.424-.285c0.038,0.066.076,0.133,0.113,0.2l0.912-.257,0.427,0.285L245.255-.6l0.114,0.2,0.712-.143L246.508-.26l0.4-.228L247.334-.2l0.712-.143,1.367,0.54,0.4-.228,2.62,0.882,1.139,0.142,0.228,0.4,1.452,0.227,0.228,0.4,0.512-.029,0.228,0.4,0.826,0.057,0.228,0.4,0.512-.029,0.228,0.4,0.513-.029,0.655,0.683,0.512-.029L260.775,4.8l0.2-.114,0.228,0.4,0.2-.114,1.082,0.968,0.2-.114q0.171,0.3.341,0.6l0.2-.114,0.228,0.4,0.2-.114,0.342,0.6,0.2-.114,0.228,0.4,0.2-.114,0.342,0.6,0.2-.114,0.342,0.6,0.2-.114,1,1.281,0.2-.114,1.224,1.679,0.2-.114,0.741,0.37,0.4-.228,3.247,1.052,1.765,0.313,0.228,0.4,1.139,0.142,0.228,0.4,0.513-.029q0.113,0.2.227,0.4l0.513-.029,0.228,0.4,0.512-.029L278.6,14.7l0.2-.114q0.113,0.2.227,0.4l0.627,0.171q0.114,0.2.227,0.4l0.2-.114,0.228,0.4,0.2-.114,0.228,0.4,0.2-.114,0.228,0.4,0.2-.114,1.082,0.968,0.2-.114,0.883,1.081,0.2-.114,0.228,0.4,0.2-.114q0.169,0.3.341,0.6l0.2-.114,0.342,0.6,0.2-.114,0.456,0.8,0.2-.114,0.456,0.8,0.2-.114q0.228,0.4.455,0.8l0.2-.114,1.566,2.277,0.2-.114,1.252,2.192,0.2-.114a14.52,14.52,0,0,1,2.191,4.3l1.139,1.992-0.2.114,0.8,1.395-0.2.114q0.285,0.5.569,1l-0.2.114q0.285,0.5.569,1c0.6,2.882,1.429,6.081,1.934,8.938l0.456,0.8-0.2.114,0.342,0.6-0.2.114,0.456,0.8-0.2.114,0.342,0.6-0.2.114q0.17,0.3.341,0.6l-0.2.114,0.6,1.509-0.2.114,0.6,1.509-0.2.114,0.6,1.509-0.2.114,0.456,0.8-0.2.114,0.342,0.6-0.2.114q0.169,0.3.341,0.6l-0.2.114,0.6,1.509-0.2.114q0.3,0.754.6,1.509l-0.2.114q0.37,1.11.74,2.22l-0.2.114q0.3,0.754.6,1.509l-0.2.114q0.227,0.4.455,0.8l-0.2.114,0.341,0.6-0.2.114q0.228,0.4.455,0.8c1.543,8.952,4.649,18.144,6.229,27.1q0.228,0.4.455,0.8l-0.2.114,0.342,0.6-0.2.114,0.456,0.8-0.2.114,0.342,0.6-0.2.114,0.342,0.6-0.2.114,0.6,1.509-0.2.114,0.6,1.509-0.2.114q0.369,1.11.74,2.22l-0.2.114q0.355,0.855.712,1.708l-0.2.114,2.078,4.1-0.2.114,1.138,1.992-0.2.114,1.138,1.992-0.2.114,1.139,1.993-0.2.114,1.139,1.992-0.2.114,1.139,1.992-0.2.114,1.024,1.794-0.2.113q0.569,1,1.138,1.993l-0.2.114,1.139,1.992-0.2.114,1.139,1.992-0.2.114,1.139,1.993-0.2.114,1.138,1.992-0.2.114,1.138,1.992-0.2.114,1.138,1.993-0.2.114,1.139,1.992-0.2.114,1.139,1.992-0.2.114,5.721,12.325c0.264,1.1.806,2.567,1.024,3.644l0.455,0.8-0.2.114q0.3,0.754.6,1.509l-0.2.114,0.342,0.6-0.2.114,0.342,0.6-0.2.114,0.227,0.4-0.2.114,0.342,0.6-0.2.114,0.228,0.4-0.2.114,0.342,0.6-0.2.114q0.141,0.712.284,1.424l-0.2.114,0.227,0.4-0.2.114q0.142,0.711.284,1.423l-0.285.428c0.086,0.3.171,0.607,0.256,0.91l-0.285.428,0.228,0.4-0.285.427,0.228,0.4c-0.124.246-.247,0.493-0.371,0.74l0.228,0.4-0.37.741q0.114,0.2.227,0.4l-0.627,1.68,0.228,0.4-0.627,1.68c0.009,0.171.019,0.342,0.028,0.513l-0.4.228q-0.158.882-.314,1.765l-0.4.228-0.057.825-0.4.228-0.057.826-0.4.228c0.009,0.17.019,0.341,0.028,0.512l-0.683.655c0.009,0.171.018,0.342,0.028,0.512l-0.4.228-0.171.627-0.4.228,0.114,0.2-0.4.228,0.114,0.2-0.684.655a4.249,4.249,0,0,0,.171,1.224l-0.285.427c0.085,0.3.171,0.608,0.256,0.911l-0.285.427c0.085,0.3.171,0.608,0.256,0.911-0.123.247-.247,0.494-0.37,0.74l0.227,0.4-0.285.427,0.228,0.4-0.456,1.053,0.228,0.4q-0.272.684-.542,1.367l0.228,0.4-0.8,2.306-0.057.825-0.4.228q-0.158.883-.314,1.765l-0.484.542c0.009,0.17.019,0.341,0.028,0.512l-0.4.228c0.01,0.171.019,0.341,0.029,0.512l-0.485.541,0.114,0.2-0.4.227c0.01,0.171.019,0.342,0.029,0.513l-0.4.228c0.009,0.171.019,0.341,0.028,0.512l-0.968,1.082c0.038,0.067.076,0.133,0.113,0.2l-0.4.227,0.114,0.2-0.969,1.082,0.114,0.2-0.6.342,0.113,0.2-0.4.228,0.113,0.2-0.6.342,0.114,0.2-0.6.342,0.114,0.2-0.6.342,0.114,0.2-0.6.342,0.114,0.2-0.8.455,0.114,0.2-2.279,1.566a26.819,26.819,0,0,1-5.669,3.5l-0.114-.2-1.395.8-0.114-.2-0.8.456-0.114-.2-0.8.456-0.114-.2-0.8.456-0.114-.2-2.221.741-0.114-.2-0.6.342-0.114-.2-0.6.342-0.114-.2-0.6.342-0.114-.2-0.6.342-0.114-.2-0.8.455-0.114-.2-0.6.342-0.114-.2-0.6.342-0.114-.2-0.6.342-0.114-.2-0.6.342-0.114-.2-3.845,1.14-0.114-.2-0.6.342-0.114-.2-0.6.342-0.114-.2-0.6.341-0.114-.2-4.13,1.567c-3.674.769-7.655,2.527-11.336,3.307l-2.107.94c-2.608.545-5.6,1.757-8.2,2.309l-2.108.94-0.114-.2-0.8.456-0.114-.2q-0.5.284-1,.569l-0.114-.2-1,.57-0.114-.2-0.8.456-0.113-.2-1.909.826-0.114-.2-2.107.94-0.114-.2-1.909.826-0.113-.2-0.8.456-0.114-.2-1,.569-0.114-.2-1.908.826-0.114-.2-2.108.94-0.114-.2-1.908.826-0.114-.2-0.8.456-0.114-.2-1,.569-0.114-.2-1,.57-0.114-.2-1.908.826-0.114-.2-0.8.455-0.114-.2-1,.57-0.114-.2-1,.569c-4.744.991-9.727,3.3-14.469,4.3l-2.108.941c-2.608.545-5.6,1.756-8.2,2.308l-2.108.941c-0.038-.067-0.076-0.133-0.113-0.2l-0.8.456-0.114-.2-1,.57-0.114-.2-1,.57-0.114-.2-0.8.456-0.114-.2-1,.57c-4.743.991-9.727,3.3-14.469,4.3l-2.108.94-0.113-.2-1.909.826-0.114-.2-0.8.456-0.114-.2-1,.569-0.114-.2-1,.57c-3.665.77-7.672,2.526-11.336,3.306l-2.108.94-0.113-.2-1.909.826-0.114-.2-0.8.456-0.114-.2-1,.57-0.114-.2-1,.57a11.555,11.555,0,0,0-2.933.884q-0.243,1.2-.485,2.391l-0.4.228q-0.2,1.039-.4,2.078l-0.4.228q-0.2,1.04-.4,2.078l-0.4.228q-0.243,1.2-.485,2.392l-0.4.228q-0.328,1.509-.656,3.018l-0.4.228q-0.328,1.507-.656,3.017l-0.2.114c0.009,0.171.019,0.342,0.028,0.513l-0.4.228-0.912,3.957-0.4.228q-0.456,1.978-.913,3.957l-0.4.228q-0.414,1.822-.827,3.645l-0.4.227,0.114,0.2-0.456,1.053q-0.286,1.353-.571,2.7l-0.4.228-0.912,3.957-0.4.228,0.114,0.2-0.371.741-0.57,2.7-0.4.228c0.01,0.171.019,0.342,0.029,0.513l-0.456,1.053a44.588,44.588,0,0,1-2.2,6.805q-0.413,1.821-.827,3.644l-0.4.228q-0.456,1.979-.913,3.957l-0.6.342-0.114-.2c0.192-1.037-1.566-2.95-1.878-4.213l0.2-.114-1.138-1.992,0.2-.114-1.139-1.992,0.2-.114-1.139-1.993,0.2-.114-1.139-1.992,0.2-.114-1.024-1.793a20.794,20.794,0,0,1-.854-2.42l-0.2.114,0.114,0.2-0.485.541q-0.071.569-.142,1.138l-0.4.228q-0.072.57-.143,1.139l-0.4.228q-0.07.57-.143,1.139l-0.4.228c0.009,0.17.019,0.341,0.028,0.512l-0.2.114c0.009,0.171.018,0.342,0.028,0.512l-0.4.228q-0.071.57-.143,1.139l-0.4.228c0.009,0.171.018,0.342,0.028,0.512l-0.2.114c0.009,0.171.018,0.342,0.028,0.513l-0.4.228q-0.072.568-.143,1.138l-0.4.228q-0.072.57-.143,1.139l-0.4.228q-0.072.57-.143,1.139l-0.4.228q-0.07.569-.142,1.138l-0.4.228q-0.072.57-.143,1.139l-0.4.228q-0.071.57-.142,1.139l-0.4.228q-0.072.568-.143,1.138l-0.4.228q-0.07.57-.142,1.139l-0.4.228-0.057.826-0.485.541,0.114,0.2A3.4,3.4,0,0,1,127.079,323.04ZM33.855,82.146a9.72,9.72,0,0,1,3.133-1l1-.57,0.114,0.2,1.908-.826,0.114,0.2,1.2-.684,0.114,0.2,1-.57,0.114,0.2,1.6-.912,0.114,0.2,1.4-.8,0.114,0.2,3.1-1.51,0.114,0.2,1.4-.8,0.114,0.2,1.6-.912c3.6-.86,7.478-3.349,11.08-4.217l6.323-2.821c1.475-.35,3.368-1.354,4.842-1.71l1.6-.912,0.114,0.2,1.4-.8,0.114,0.2,1.6-.912,0.114,0.2,1.4-.8,0.114,0.2,1.4-.8,0.114,0.2,1.6-.912,0.114,0.2,1.4-.8,0.114,0.2,1.6-.911c3.6-.868,7.478-3.346,11.08-4.217l3.1-1.51,0.114,0.2,1.595-.912,0.114,0.2,1.4-.8c3.1-.747,6.481-2.866,9.57-3.619l1.595-.912,0.114,0.2,1.4-.8,0.114,0.2a8.715,8.715,0,0,0,2.791-1.6,9.161,9.161,0,0,1-3.047.684l-1.51.6-0.114-.2-0.6.342-0.114-.2-0.6.342-0.114-.2-0.6.342-0.114-.2-0.6.342-0.114-.2-3.845,1.14-0.114-.2-0.6.342-0.114-.2-0.6.342-0.114-.2-0.6.342-0.114-.2-0.6.342-0.114-.2-2.934.884-0.114-.2-0.8.456-0.114-.2-0.6.342-0.114-.2-0.6.342-0.114-.2-0.6.342-0.114-.2-0.6.342-0.114-.2-0.8.456-0.114-.2-0.6.342-0.114-.2-0.6.342-0.114-.2-0.6.342-0.114-.2-0.6.342-0.114-.2-3.845,1.14-0.114-.2-0.6.342L90.509,54l-0.6.342-0.114-.2-0.6.342-0.114-.2-0.6.342-0.114-.2-2.934.884-0.114-.2-0.8.456-0.114-.2-0.6.342-0.114-.2-0.6.342-0.114-.2-0.6.342-0.114-.2-0.6.342-0.114-.2-2.934.884-0.114-.2-0.8.456-0.114-.2-0.6.342-0.114-.2-0.6.342-0.114-.2-0.6.342-0.114-.2-0.6.342-0.114-.2-3.845,1.14c-6.978,1.2-14.251,3.122-21.247,4.477L47.36,64.121l-0.114-.2a14.5,14.5,0,0,0-4.073,2.592l-1.4.8,0.114,0.2-0.8.456,0.114,0.2-0.8.456,0.114,0.2-0.8.456-3.248,4.5,0.028,0.512-0.4.228,0.114,0.2-0.484.541,0.028,0.513-0.4.228-0.057.826-0.4.228L34.6,78.815l-0.484.541L33.969,80.5l-0.2.114L34,81.008l-0.37.74Zm-4.246,6.919c-0.245.7-1.958,1.348-2.564,1.994l-3.39,3.788,0.114,0.2-0.4.228,0.114,0.2-0.4.228q0.014,0.256.028,0.512l-0.684.655,0.114,0.2-0.484.541q0.014,0.256.028,0.512l-0.4.228-0.057.826-0.4.228L21,100.855l-0.4.228c0.009,0.17.019,0.341,0.028,0.512l-0.627,1.68,0.228,0.4-0.541,1.367,0.228,0.4-0.37.741,0.228,0.4-0.37.741,0.228,0.4-0.285.427,0.256,0.911-0.285.427,0.284,1.423-0.2.114,0.284,1.424-0.2.114,0.341,0.6-0.2.114,0.228,0.4-0.2.114,0.341,0.6-0.2.114,0.342,0.6-0.2.114,0.342,0.6-0.2.114,0.341,0.6-0.2.114,0.455,0.8-0.2.114,0.455,0.8-0.2.114,0.569,1-0.2.114,0.569,1-0.2.114,0.683,1.2c0.387,1.667,1.345,3.685,1.736,5.351l0.683,1.2c0.281,1.212.968,2.83,1.252,4.042l0.683,1.195c0.386,1.667,1.339,3.686,1.736,5.352l0.8,1.394-0.2.114,0.683,1.2-0.2.113,0.683,1.2-0.2.114,0.683,1.195c0.9,3.9,3.246,8,4.154,11.9l1.167,2.5-0.2.114,1.651,3.814c0.9,3.9,3.246,8,4.154,11.9l1.167,2.5c0.694,3.008,2.486,6.273,3.187,9.28l1.167,2.5c0.488,2.116,1.726,4.544,2.219,6.66l1.167,2.5c0.385,1.667,1.34,3.686,1.736,5.352l0.8,1.394-0.2.114,1.167,2.5c0.9,3.9,3.245,8,4.154,11.9l0.683,1.2c0.281,1.212.969,2.83,1.252,4.042l0.683,1.195c0.282,1.212.968,2.831,1.252,4.042l0.683,1.2c0.494,2.115,1.723,4.545,2.219,6.66l1.167,2.5c0.391,1.666,1.343,3.686,1.736,5.352l0.683,1.195-0.2.114,0.683,1.2-0.2.114,0.683,1.2-0.2.114,0.683,1.2a25.384,25.384,0,0,0,2.732,6.632L74.81,261.2c0.875,0.859,1.867,2.149,2.733,2.931l0.455,0.8,0.2-.114,0.342,0.6,0.2-.114,1,1.281,0.2-.114,0.228,0.4,0.2-.114,0.342,0.6,0.2-.114,0.228,0.4,0.2-.114,0.342,0.6,0.2-.114,1.082,0.968,0.2-.114,0.228,0.4,0.2-.114,0.655,0.683,0.513-.028,0.655,0.683,0.2-.114,0.541,0.484,0.513-.029,0.228,0.4,1.139,0.142,0.228,0.4,1.452,0.227,0.228,0.4,0.513-.028,1.367,0.54,0.4-.228,1.68,0.626,0.4-.228,0.114,0.2,0.712-.142,0.74,0.37,0.911-.257,0.427,0.285,0.911-.257,0.114,0.2,1.424-.285,0.114,0.2,0.6-.342,0.114,0.2,0.4-.228,0.114,0.2,11.734-3.534,0.114,0.2-0.2.114,0.683,1.195-0.2.114,0.684,1.2c0.792,3.452,2.87,7.137,3.67,10.589q0.825,1.906,1.651,3.814c0.6,2.619,2.209,5.557,2.817,8.169l1.167,2.5c0.281,1.212.969,2.83,1.251,4.042l0.684,1.195-0.2.114q1.31,3.216,2.618,6.433l0.2-.114q0.07-.569.142-1.139l0.4-.227q0.072-.57.143-1.139l0.4-.228q0.07-.57.142-1.139l0.4-.228q0.072-.569.143-1.139l0.4-.227q0.071-.57.143-1.139l0.4-.228q0.072-.57.143-1.139l0.4-.228q0.071-.568.143-1.139l0.4-.227q0.072-.57.143-1.139l0.4-.228q0.072-.57.143-1.139l0.4-.228q0.072-.569.143-1.139l0.4-.227q0.072-.57.143-1.139l0.4-.228q0.07-.57.142-1.139l0.4-.228q0.072-.569.143-1.139l0.4-.227q0.071-.57.142-1.139l0.4-.228q0.072-.57.143-1.139l0.4-.228q0.07-.569.142-1.139l0.4-.228q0.072-.569.143-1.138l0.4-.228q0.071-.57.143-1.139l0.4-.228q0.072-.569.143-1.139l0.4-.228q0.07-.568.143-1.138l0.4-.228q0.072-.57.143-1.139l0.4-.228c-0.01-.171-0.019-0.341-0.028-0.512l0.2-.114c-0.009-.171-0.019-0.342-0.028-0.513l0.4-.228q0.072-.569.143-1.138l0.4-.228q0.072-.57.143-1.139l0.4-.228c-0.009-.171-0.018-0.341-0.028-0.512l0.2-.114c-0.01-.171-0.019-0.342-0.029-0.513l0.4-.228,0.057-.825,0.4-.228,0.057-.826,0.4-.228,0.057-.825,0.4-.228,0.057-.826,0.4-.227c-0.009-.171-0.019-0.342-0.028-0.513l0.484-.541,0.057-.826,0.4-.227,0.057-.826,0.4-.228,0.057-.826,0.4-.227q0.072-.57.143-1.139l0.4-.228,0.057-.826,0.4-.228,0.057-.825,0.4-.228,0.057-.826,0.4-.228,0.057-.825,0.4-.228,0.057-.826,0.4-.228c-0.01-.17-0.019-0.341-0.029-0.512a2.839,2.839,0,0,1,1.054-1.395c0.779,0.152,1.146-.438,2.023-0.627l0.114,0.2,1-.57,0.114,0.2,1.909-.826,0.114,0.2,0.8-.455,0.114,0.2,1-.57,0.114,0.2,1.908-.826,0.114,0.2,1-.569,0.114,0.2,0.8-.456,0.114,0.2,1-.569,0.114,0.2,1-.57,0.114,0.2,0.8-.455,0.114,0.2,2.108-.94c5.41-1.128,11.08-3.788,16.491-4.931l2.108-.941,0.114,0.2,1.908-.827,0.114,0.2,0.8-.456,0.114,0.2,1-.57c0.037,0.067.075,0.133,0.113,0.2l1-.57c4.744-.99,9.727-3.3,14.469-4.3l3.019-1.2,0.114,0.2,4.13-1.567c4.731-.987,9.734-3.3,14.469-4.3l4.13-1.567c3.682-.769,7.663-2.53,11.336-3.306l2.108-.941c2.319-.484,4.967-1.543,7.291-2.052l1-.57,0.114,0.2,0.8-.456,0.114,0.2,1-.57c2.3-.48,4.988-1.566,7.291-2.052l1-.57,0.114,0.2,0.8-.456,0.114,0.2,1-.57,0.114,0.2,1-.57,0.114,0.2,0.8-.456,0.114,0.2,1.909-.826,0.113,0.2,2.108-.94c4.731-.991,9.735-3.3,14.469-4.3l1-.569,0.114,0.2,0.8-.456,0.113,0.2,1-.569,0.114,0.2,1-.57,0.114,0.2,0.8-.455,0.113,0.2,1-.57,0.114,0.2,1-.569,0.114,0.2,0.8-.456,0.113,0.2,1.909-.826,0.114,0.2,2.107-.94c2.981-.634,6.324-2.039,9.314-2.679l1-.57,0.114,0.2,0.8-.456c0.037,0.067.075,0.133,0.113,0.2l1-.57,0.114,0.2,1-.57c0.954-.219,4.361-1.5,5.412-2.564l-0.114-.2,1.4-.8-0.114-.2,0.8-.456-0.114-.2,0.8-.456-0.114-.2,0.6-.342-0.114-.2,0.6-.342-0.114-.2,0.6-.342-0.114-.2,0.4-.228-0.114-.2,1.453-1.623c-0.009-.171-0.019-0.342-0.028-0.513l0.684-.655c-0.01-.171-0.019-0.341-0.029-0.512l0.4-.228c-0.009-.171-0.019-0.342-0.028-0.513l0.4-.227,0.057-.826,0.4-.228,0.57-2.705,0.884-2.619-0.228-.4,0.371-.741-0.228-.4,0.285-.427-0.228-.4,0.285-.427-0.228-.4,0.285-.428-0.256-.91,0.285-.428-0.256-.91,0.2-.114q-0.141-.713-0.284-1.424l0.2-.114q-0.17-.3-0.341-0.6l0.2-.114q-0.114-.2-0.227-0.4l0.2-.114q-0.184-.555-0.37-1.11l0.2-.114-0.6-1.508,0.2-.114-0.341-.6,0.2-.114q-0.228-.4-0.455-0.8l0.2-.114q-0.228-.4-0.455-0.8l0.2-.114q-0.825-1.907-1.651-3.814c-1-4.339-3.625-8.869-4.638-13.208l-1.65-3.814,0.2-.114L314.84,153.1l0.2-.114-0.683-1.195,0.2-.114-0.684-1.2c-0.9-3.9-3.246-8-4.154-11.9l-1.65-3.814c-0.912-3.954-3.35-8.152-4.269-12.1q-0.583-1.251-1.166-2.5c-0.694-3.008-2.487-6.273-3.187-9.28l-1.167-2.5c-0.488-2.116-1.727-4.544-2.219-6.66l-1.167-2.505c-0.488-2.117-1.727-4.545-2.22-6.661q-0.34-.6-0.683-1.2c-0.28-1.213-.969-2.83-1.252-4.042q-0.34-.6-0.683-1.2l0.2-.114-0.684-1.2,0.2-.114q-0.342-.6-0.683-1.2l0.2-.114L288.6,82.2c-0.9-3.9-3.246-8-4.154-11.9l-1.167-2.5,0.2-.114q-0.4-.7-0.8-1.395c-0.606-2.561-2.1-5.408-2.7-7.97l-1.167-2.5c-0.5-2.115-1.722-4.545-2.219-6.661q-0.342-.6-0.683-1.2c-0.286-1.21-.967-2.832-1.252-4.042q-0.342-.6-0.683-1.2c-0.926-3.906-3.971-9.462-6.945-12.154l-1.111-1.48-0.2.114-0.342-.6-0.2.114-0.342-.6-0.2.114-0.342-.6-0.2.114-0.882-1.081-0.2.114-1.082-.968-0.2.114-0.228-.4-0.2.114-0.228-.4-0.2.114-0.228-.4-0.2.114-1.082-.968-0.513.029-0.228-.4-0.2.114-0.541-.484-0.513.029q-0.114-.2-0.227-0.4l-0.513.029-0.541-.484-1.766-.312q-0.114-.2-0.227-0.4l-1.14-.142-0.427-.284-0.4.228L250.46,21l-0.712.143-0.427-.285-0.4.228-0.428-.285-0.712.143-0.113-.2-0.912.257-0.427-.285-2.136.428-0.114-.2-0.4.228-0.114-.2-0.6.342-0.114-.2-0.6.342-0.114-.2-0.6.342-0.114-.2-0.8.456-0.114-.2-1.908.826-0.114-.2-1.909.826-0.114-.2-1,.57c-0.037-.066-0.075-0.133-0.113-0.2l-1,.57-0.114-.2-0.8.456-0.114-.2-1,.57-0.113-.2-0.8.456-0.114-.2-1,.57-0.114-.2-1,.57c-0.038-.066-0.076-0.133-0.113-0.2l-0.8.456-0.114-.2-2.108.94c-5.409,1.136-11.08,3.785-16.491,4.931l-2.108.94c-0.038-.066-0.076-0.133-0.113-0.2l-1.909.826-0.114-.2-0.8.456-0.114-.2-1,.57-0.114-.2-1,.57c-4.063.849-8.38,2.786-12.447,3.677l-4.13,1.567c-3.674.767-7.655,2.528-11.335,3.306l-2.108.94c-2.608.544-5.6,1.757-8.2,2.309l-2.108.94-0.114-.2-0.8.456-0.114-.2-1,.57-0.114-.2-1,.57-0.114-.2-0.8.456-0.114-.2-1.909.826-0.113-.2-2.108.94-0.114-.2-1.908.826-0.114-.2-0.8.456-0.114-.2-1,.57-0.114-.2-1.908.826-0.114-.2-2.108.94c-0.037-.066-0.075-0.133-0.113-0.2l-1.909.826-0.114-.2-0.8.456-0.114-.2-1,.57-0.114-.2-1,.57c-5.412,1.13-11.083,3.787-16.491,4.931l-5.241,1.938c-4.731.988-9.727,3.3-14.469,4.3l-4.13,1.567-0.114-.2-1.908.826-0.114-.2-0.8.456-0.114-.2-1,.57-0.114-.2-1.908.826L93.752,68l-2.108.94-0.114-.2-1.908.826-0.114-.2-0.8.456-0.114-.2-1,.57L87.486,70l-1,.57C81.079,71.7,75.409,74.355,70,75.5l-2.108.94-0.114-.2-1.908.826-0.114-.2-0.8.456-0.114-.2-1,.57-0.114-.2-1.908.826-0.114-.2-2.108.94c-3.674.771-7.656,2.524-11.336,3.306l-2.108.94-0.114-.2-1.908.826-0.114-.2-0.8.456-0.114-.2-1,.57L42,84.364l-1.908.826-0.114-.2-1,.57A33.466,33.466,0,0,0,29.609,89.066Zm71.35-28.352c0.765,0.138,1.355-.561,2.222-0.741l0.114,0.2,0.8-.456,0.114,0.2,1-.57,0.114,0.2,1-.57,0.114,0.2,0.8-.456,0.114,0.2,1.909-.826,0.113,0.2,2.108-.94,0.114,0.2,1.908-.826,0.114,0.2,0.8-.456,0.114,0.2,1-.57,0.114,0.2,1-.57c4.743-.988,9.726-3.3,14.468-4.3l2.108-.94,0.114,0.2,1.908-.826,0.114,0.2,0.8-.456,0.114,0.2,1-.57,0.114,0.2,1-.57c4.73-.986,9.733-3.306,14.468-4.3l4.13-1.567c3.682-.768,7.663-2.53,11.336-3.306l2.108-.94c2.319-.484,4.967-1.544,7.291-2.052l1-.57,0.114,0.2,0.8-.456,0.114,0.2,1-.57,0.114,0.2,0.8-.456,0.114,0.2,1-.57,0.114,0.2,1-.57,0.114,0.2,0.8-.456,0.114,0.2,2.108-.94,0.114,0.2L189,32.869l0.114,0.2,0.8-.456,0.114,0.2,1-.57,0.114,0.2,1-.57,0.114,0.2,1.908-.826,0.114,0.2,0.8-.456,0.114,0.2,1-.57,0.113,0.2,1-.57c5.413-1.13,11.083-3.788,16.492-4.931l5.24-1.938c5.41-1.134,11.08-3.784,16.492-4.931l2.107-.94,5.583-1.34a28.01,28.01,0,0,1,14.1,1.988l1.14,0.142q0.113,0.2.227,0.4l0.513-.029,0.541,0.484,0.2-.114,0.228,0.4,0.513-.029,0.227,0.4,0.513-.029,0.541,0.484,0.2-.114,0.228,0.4,0.627,0.171q0.113,0.2.227,0.4l0.2-.114,0.227,0.4,0.2-.114q0.114,0.2.227,0.4l0.2-.114,1.082,0.968,0.2-.114,0.342,0.6,0.2-.114,0.228,0.4,0.2-.114,0.883,1.081,0.2-.114,0.228,0.4,0.2-.114,0.456,0.8,0.2-.114,0.342,0.6,0.2-.114q0.228,0.4.455,0.8l0.2-.114,0.455,0.8,0.2-.114q0.227,0.4.455,0.8l0.2-.114c0.7,0.65,1.118,2.1,1.879,2.362-0.038-.066-0.076-0.133-0.113-0.2,0.14-.673-0.733-1.293-0.94-2.106l0.2-.114-1.139-1.992,0.2-.114L270.139,23.5l0.2-.114L268.631,20.4l0.2-.114A0.406,0.406,0,0,0,268.4,20q-0.285-.5-0.569-1a23.134,23.134,0,0,0-4.755-6q-0.227-.4-0.455-0.8l-0.2.114-0.883-1.082-0.2.114-0.228-.4-0.2.114-0.342-.6-0.2.114-0.228-.4-0.2.114q-0.169-.3-0.341-0.6l-0.2.114-1.082-.968-0.2.114-0.655-.683-0.512.029L256.3,7.622l-0.513.029q-0.114-.2-0.227-0.4l-0.513.029-0.228-.4-0.512.029-0.228-.4-1.139-.142-0.228-.4-2.392-.483-2.307-.8-0.4.228-1.054-.455-0.4.228-0.427-.285-0.712.143-0.114-.2-1.424.285-0.427-.285-0.4.228-0.114-.2-0.4.228-0.114-.2-0.6.342-0.114-.2-0.4.228-0.114-.2-0.6.342-0.114-.2-0.6.342-0.114-.2-0.6.342-0.114-.2-0.8.456c-0.038-.066-0.076-0.133-0.113-0.2l-0.8.456-0.114-.2-1.2.684-0.114-.2-1.595.912-0.114-.2-3.1,1.51-0.114-.2-1.4.8-0.114-.2-1.4.8-0.114-.2L226,10.138l-0.114-.2-1.4.8c-0.038-.066-0.076-0.133-0.113-0.2l-1.6.912c-3.6.87-7.478,3.34-11.079,4.217l-1.6.912c-1.473.355-3.368,1.354-4.842,1.71l-6.323,2.821c-2,.482-4.357,1.823-6.352,2.308l-1.595.912c-1.474.355-3.368,1.355-4.842,1.71l-1.4.8c-0.037-.067-0.075-0.133-0.113-0.2l-1.6.912c-0.037-.066-0.075-0.133-0.113-0.2l-1.4.8-0.114-.2-1.595.912c-3.6.867-7.478,3.342-11.08,4.217l-1.595.911-0.114-.2-1.4.8-0.114-.2-9.541,4.131c-3.6.867-7.479,3.342-11.08,4.217l-1.595.911-0.114-.2-1.4.8-0.114-.2-1.595.911-0.114-.2-1.4.8c-0.038-.066-0.076-0.133-0.113-0.2l-6.324,2.821c-3.106.75-6.465,2.863-9.57,3.619l-3.105,1.51c-2.073.5-4.465,1.916-6.551,2.422l-1.4.8-0.113-.2-1.4.8-0.114-.2-1.595.911-0.114-.2-1.4.8-0.114-.2-1.595.912A19.485,19.485,0,0,0,100.959,60.714Zm171.517-43.3a25.211,25.211,0,0,1,2.9,6.006l1.025,1.793-0.2.114,1.138,1.992-0.2.114,1.138,1.992-0.2.114,1.138,1.992-0.2.114,1.139,1.992-0.2.114L281.1,35.74l-0.2.114q0.57,1,1.139,1.992l-0.2.114,1.138,1.992-0.2.114,1.138,1.992-0.2.114,1.138,1.992-0.2.114,2.078,4.1-0.2.114q0.57,1,1.139,1.992l-0.2.114,1.138,1.992-0.2.114,1.138,1.992-0.2.114q0.569,1,1.139,1.992l-0.2.114,1.025,1.793-0.2.114,1.139,1.992-0.2.114,1.138,1.992-0.2.114,1.138,1.992-0.2.114,1.138,1.992-0.2.114,1.139,1.992-0.2.114,1.139,1.992-0.2.114q0.57,1,1.139,1.992l-0.2.114,1.138,1.992-0.2.114,1.508,3.1,0.2-.114q-0.371-1.11-.74-2.22l0.2-.114-0.455-.8,0.2-.114q-0.171-.3-0.341-0.6l0.2-.114-0.342-.6,0.2-.114-0.6-1.509,0.2-.114-0.456-.8,0.2-.114-0.342-.6,0.2-.114q-0.226-.4-0.455-0.8l0.2-.114q-0.17-.3-0.341-0.6l0.2-.114q-0.171-.3-0.341-0.6l0.2-.114q-0.3-.754-0.6-1.509l0.2-.114-0.6-1.509,0.2-.114q-0.37-1.11-.74-2.22l0.2-.114-0.455-.8,0.2-.114q-0.171-.3-0.341-0.6l0.2-.114q-0.3-.754-0.6-1.509l0.2-.114-0.6-1.509,0.2-.114-0.456-.8c-1.026-5.99-3.051-12.288-4.1-18.275l-0.456-.8,0.2-.114-0.456-.8,0.2-.114-0.57-1,0.2-.114q-0.285-.5-0.569-1l0.2-.114-2.419-4.7a24.573,24.573,0,0,0-6.719-8.054l-0.882-1.081-0.2.114-1.082-.967-0.2.114-0.228-.4-0.2.114-0.228-.4-0.2.114-0.655-.683-0.513.029-0.655-.683L274.9,18.4C274.016,17.971,273.485,17.414,272.476,17.409ZM93.667,155.8l3.39-1.937,0.114,0.2,1-.57,0.114,0.2,2.022-.627,0.114,0.2,0.911-.257,0.114,0.2,0.4-.228c3.463,0.159,7.971,1.851,9.624,6.658l0.2-.113-0.114-.2a2.915,2.915,0,0,0,.058-0.825l0.2-.114-0.228-.4,0.456-1.053c-0.009-.171-0.019-0.342-0.028-0.513l0.4-.228c-0.01-.17-0.019-0.341-0.029-0.512l0.485-.541-0.114-.2,2.621-2.82c1.16-1.191,3.756-1.767,4.728-1.909l0.6-.341,0.114,0.2,0.6-.342,0.114,0.2,1.424-.285,0.114,0.2,0.4-.228,0.427,0.285,0.4-.228,1.053,0.455,2.392,0.483,0.228,0.4,0.513-.029,0.228,0.4,0.2-.113c0.932,0.571,3.408,2.6,3.843,4.411l-0.2.114,0.569,1-0.2.114q0.242,0.654.484,1.309l-0.2.114c0.085,0.3.171,0.607,0.256,0.911l-0.2.114,0.227,0.4c-0.094.143-.189,0.285-0.284,0.428l0.227,0.4-0.285.427,0.228,0.4-0.285.427,0.228,0.4-0.627,1.68q0.114,0.2.227,0.4l-0.284.427q-0.115.726-.229,1.452l-0.4.228-0.4,2.078-0.4.228q-0.071.569-.142,1.139l-0.4.227-0.057.826-0.4.228c0.009,0.171.019,0.342,0.028,0.512l-0.4.228-0.057.826-0.4.228c0.01,0.17.019,0.341,0.029,0.512l-0.485.541,0.114,0.2-0.4.228c0.01,0.171.019,0.342,0.029,0.513l-0.684.655c0.009,0.171.019,0.341,0.028,0.512l-0.683.655c0.009,0.171.019,0.342,0.028,0.513l-0.684.655c0.01,0.17.019,0.341,0.029,0.512l-0.4.228,0.114,0.2-0.4.228-0.171.626-0.4.228c0.009,0.171.019,0.342,0.028,0.513l-2.393,3.217,0.114,0.2-0.4.228,0.114,0.2-0.4.228,0.114,0.2-0.969,1.082,0.114,0.2-0.6.342,0.114,0.2-0.4.228,0.114,0.2-0.4.227,0.114,0.2-0.684.655,0.114,0.2-0.6.342,0.114,0.2-0.684.655,0.114,0.2-0.6.342,0.114,0.2-1.938,2.165a33.184,33.184,0,0,0-2.875-1.793l-1.082-.967-0.2.114q-0.114-.2-0.227-0.4l-0.2.114q-0.171-.3-0.341-0.6l-0.2.114-0.655-.683-0.2.114-0.228-.4-0.2.114-0.342-.6-0.2.114-0.655-.683-0.2.114-0.342-.6-0.2.114-0.228-.4-0.2.114-0.342-.6-0.2.114-0.769-.882-0.2.114-0.228-.4-0.2.114-0.342-.6-0.2.114-0.228-.4-0.2.114-6.833-6.4-1.224-1.679c-2.415-2.215-5.822-7.169-6.348-10.645l-0.342-.6,0.2-.114-0.228-.4,0.2-.114-0.228-.4,0.2-.114-0.256-.911,0.285-.427-0.228-.4,0.542-1.367-0.028-.512,0.4-.228,0.057-.826,0.4-.228-0.114-.2,0.684-.655-0.114-.2,0.6-.342L92.5,157l1.282-1ZM281.779,49.888q0.228,0.4.455,0.8l0.2-.114-0.456-.8Zm0.484,1.309a14.107,14.107,0,0,1,1.451,3.928l0.683,1.2c0.277,1.214.971,2.829,1.252,4.042l1.167,2.5c0.484,2.117,1.729,4.544,2.219,6.661l2.134,5.124c0.894,3.9,3.25,8,4.155,11.9l1.167,2.5-0.2.114q0.4,0.7.8,1.395l-0.2.114,0.683,1.2-0.2.114q0.341,0.6.683,1.2l-0.2.114,1.651,3.814-0.2.114q0.341,0.6.683,1.2l-0.2.114q0.342,0.6.683,1.2l-0.2.114q0.342,0.6.683,1.2c0.9,3.9,3.249,8,4.154,11.9q1.068,2.561,2.135,5.123c0.9,3.9,3.248,8,4.154,11.9l1.167,2.5-0.2.114,1.65,3.814c0.8,3.452,2.868,7.138,3.671,10.589l1.167,2.505c0.5,2.171,1.824,4.675,2.333,6.86l1.167,2.5c0.386,1.667,1.346,3.684,1.735,5.351l0.684,1.2,3.556,10.389,0.2-.114,1.653-5.438-0.228-.4,0.456-1.054c-0.076-.132-0.151-0.265-0.227-0.4l0.285-.427c-0.048-.237-0.1-0.475-0.143-0.712l0.2-.114-0.228-.4,0.285-.427c-0.085-.3-0.171-0.608-0.256-0.911l0.285-.427q-0.384-3.217-.767-6.434-0.228-.4-0.455-0.8l0.2-.114q-0.228-.4-0.455-0.8l0.2-.114q-0.228-.4-0.455-0.8l0.2-.114-0.683-1.195,0.2-.114q-0.4-.7-0.8-1.395l0.2-.114q-0.513-.9-1.025-1.793l0.2-.114-1.138-1.992,0.2-.114-1.138-1.992,0.2-.114-1.139-1.993,0.2-.114-1.139-1.992,0.2-.114q-0.57-1-1.139-1.992l0.2-.114-2.077-4.1c-0.655-2.675-2.779-5.651-3.444-8.34l-1.138-1.992,0.2-.114-1.138-1.993,0.2-.114L313,119.8l0.2-.114q-0.57-1-1.139-1.993l0.2-.113q-0.569-1-1.138-1.993l0.2-.114-1.138-1.992,0.2-.114-1.138-1.992,0.2-.114-1.139-1.993,0.2-.114-1.139-1.992,0.2-.114q-0.57-1-1.139-1.992l0.2-.114-1.138-1.993,0.2-.114-1.138-1.992,0.2-.114q-0.512-.9-1.025-1.793l0.2-.114-1.139-1.992,0.2-.114-1.139-1.992,0.2-.114L300.9,92.612l0.2-.114-1.138-1.992,0.2-.114L299.026,88.4l0.2-.114-1.139-1.992,0.2-.114-1.139-1.992,0.2-.114q-0.57-1-1.139-1.992l0.2-.114c-0.038-.066-0.076-0.133-0.113-0.2q-0.513-.9-1.025-1.793l0.2-.114-1.138-1.992,0.2-.114-1.138-1.992,0.2-.114-1.139-1.992,0.2-.114-1.139-1.992,0.2-.114q-0.57-1-1.139-1.992l0.2-.114-1.138-1.992,0.2-.114-1.024-1.793,0.2-.114-1.139-1.992,0.2-.114-1.139-1.992,0.2-.114-1.139-1.992,0.2-.114L285.052,57l0.2-.114L284.113,54.9l0.2-.114-1.138-1.992,0.2-.114-0.911-1.594ZM174.715,172.653l-8.884-6.288-0.341-.6-0.2.114-0.228-.4-0.2.114-0.341-.6-0.2.114-0.228-.4-0.2.114-7.8-7.171q-1.053-1.38-2.107-2.761a19.379,19.379,0,0,1-4.867-8.054l-0.57-1,0.2-.114-0.342-.6,0.2-.114-0.228-.4,0.2-.114q-0.169-.3-0.341-0.6l0.2-.114-0.228-.4,0.285-.427c-0.075-.133-0.151-0.265-0.227-0.4l0.285-.427-0.228-.4,0.456-1.053c-0.01-.171-0.019-0.342-0.028-0.513l0.4-.228c0.019-.275.039-0.55,0.058-0.825q0.483-.542.968-1.082l-0.114-.2,0.4-.228-0.114-.2,0.8-.456-0.114-.2a16.2,16.2,0,0,1,4.472-2.82l0.114,0.2,0.8-.456,0.113,0.2,0.6-.342,0.113,0.2,0.6-.341,0.114,0.2,0.4-.228,0.114,0.2,0.6-.342,0.427,0.285,0.912-.257,0.427,0.285,0.4-.228,1.993,0.711,1.139,0.142,0.228,0.4,0.513-.028,0.227,0.4,0.513-.029q0.384,0.442.769,0.883l0.2-.114,0.228,0.4,0.2-.114,0.456,0.8,0.2-.114c0.809,0.763,1.012,2.553,1.907,2.875l-0.228-.4c0.384-.7.11-1.437,0.4-2.078a15.92,15.92,0,0,1,3.248-4.5,17.854,17.854,0,0,1,5.212-2.45l0.114,0.2,0.4-.228,0.114,0.2,2.136-.427,0.427,0.284,0.4-.228,0.74,0.37,0.4-.228,0.74,0.37,1.453,0.227c1.84,0.843,4.823,2.827,5.466,5.863q0.3,0.755.6,1.508l-0.2.114,0.285,1.424-0.2.114,0.256,0.91-0.285.428,0.228,0.4c-0.124.247-.247,0.494-0.371,0.74l0.228,0.4-0.456,1.053,0.228,0.4c-0.124.246-.247,0.493-0.371,0.74l-0.4,2.078-0.4.228q-0.156.883-.314,1.765l-0.4.228q-0.072.57-.143,1.139l-0.484.541c0.009,0.171.018,0.342,0.028,0.513l-0.4.227c0.01,0.171.019,0.342,0.028,0.513l-0.4.228q-0.028.413-.058,0.825l-0.4.228c0.009,0.171.019,0.342,0.028,0.513l-0.4.228c0.01,0.17.019,0.341,0.029,0.512l-0.485.541,0.114,0.2-0.684.655c0.01,0.171.019,0.342,0.029,0.513l-0.684.655c0.009,0.171.019,0.341,0.028,0.512l-0.683.655c0.009,0.171.018,0.342,0.028,0.513l-0.4.227,0.114,0.2-0.4.228-0.171.626-0.4.228c0.01,0.171.019,0.341,0.029,0.512l-2.394,3.218,0.114,0.2-0.4.228,0.114,0.2-0.4.228c0.037,0.067.075,0.133,0.113,0.2L179.7,166.1l0.114,0.2-0.6.342,0.114,0.2-0.4.228,0.114,0.2-0.4.228,0.113,0.2q-0.341.328-.683,0.655l0.114,0.2-0.6.342,0.114,0.2q-0.342.327-.683,0.655l0.113,0.2-0.6.342,0.114,0.2-0.4.228,0.114,0.2Zm58.047-19.692c-0.9-1.063-2.411-1.551-3.417-2.277l-0.341-.6-0.2.114-1.082-.968-0.2.114-0.228-.4-0.2.114-0.342-.6-0.2.114L225.9,147.9l-0.2.114-0.342-.6-0.2.114-0.655-.683-0.2.114-0.342-.6-0.2.114-0.228-.4-0.2.114-0.342-.6-0.2.114-0.228-.4-0.2.114-7.687-6.972-1.224-1.679-0.2.114-0.456-.8-0.2.114-0.683-1.195-0.2.114q-0.341-.6-0.683-1.2l-0.2.114-1.139-1.992-0.2.114-1.822-3.188,0.2-.114-0.911-1.594,0.2-.114-0.711-1.708,0.2-.114-0.228-.4,0.2-.114-0.342-.6,0.2-.114-0.228-.4,0.285-.427-0.228-.4,0.285-.427-0.228-.4L206.827,121l0.057-.825,0.4-.228c-0.009-.171-0.019-0.342-0.028-0.513l0.684-.655-0.114-.2,0.683-.655-0.113-.2,0.6-.342a9.7,9.7,0,0,1,6.494-3.447l0.6-.342,0.114,0.2,0.912-.256,0.114,0.2,0.911-.256,0.427,0.284,0.4-.228,0.74,0.37,0.4-.228,0.427,0.285,1.452,0.227,0.228,0.4,0.513-.028,0.228,0.4,0.512-.029,0.228,0.4,0.2-.114,0.655,0.683,0.2-.114,0.883,1.082,0.2-.114c0.863,0.789,1.071,2.731,2.021,3.073l-0.227-.4,0.37-.74q-0.114-.2-0.227-0.4l0.456-1.053-0.114-.2,0.4-.227q0.03-.414.058-0.826l0.4-.228-0.113-.2,0.683-.655-0.114-.2,1.083-.883-0.114-.2,0.8-.455-0.114-.2a16.236,16.236,0,0,1,4.7-2.421l0.114,0.2,0.6-.342,0.114,0.2,0.6-.342,0.114,0.2,0.6-.342,0.114,0.2,0.4-.227,0.114,0.2,0.4-.228c3.014,0.128,8.883,1.774,9.937,6.743l0.6,1.509-0.2.114,0.285,1.423-0.2.114c0.086,0.3.171,0.607,0.256,0.911l-0.284.427q0.113,0.2.227,0.4l-0.37.74,0.228,0.4q-0.271.684-.542,1.367l0.228,0.4-0.285.428q-0.158.882-.314,1.765l-0.4.228-0.4,2.078-0.4.228-0.057.825-0.4.228q-0.072.57-.143,1.139l-0.4.228c0.01,0.171.019,0.342,0.029,0.512l-0.4.228c0.009,0.171.019,0.342,0.028,0.513l-0.4.228c0.009,0.17.018,0.341,0.028,0.512l-0.4.228c0.01,0.171.019,0.342,0.028,0.512l-0.4.228c0.009,0.171.019,0.342,0.028,0.513l-0.4.228c0.01,0.17.019,0.341,0.028,0.512l-0.683.655c0.009,0.171.019,0.342,0.028,0.512l-0.684.655c0.01,0.171.019,0.342,0.029,0.513l-0.969,1.082c0.01,0.171.019,0.342,0.028,0.512l-0.4.228c0.038,0.067.076,0.133,0.113,0.2l-0.4.227,0.114,0.2-0.4.228-0.171.626-0.4.228c0.009,0.171.019,0.341,0.028,0.512l-0.968,1.082,0.113,0.2-0.4.227c0.038,0.067.076,0.133,0.113,0.2L238.6,145.13l0.114,0.2-0.6.342,0.113,0.2-0.4.228,0.113,0.2-0.4.228,0.114,0.2-0.969,1.083,0.114,0.2-0.6.342,0.113,0.2-0.683.655,0.114,0.2-0.6.342,0.114,0.2-0.683.655c0.037,0.067.075,0.133,0.113,0.2l-0.6.342,0.114,0.2Q233.489,152.15,232.762,152.961Zm-81.257,109.6a5.02,5.02,0,0,1-.912,2.107c-0.02.275-.039,0.551-0.058,0.826l-0.4.228q-0.03.412-.058,0.825l-0.4.228c0.009,0.171.018,0.342,0.028,0.513q-0.243.27-.484,0.541-0.072.569-.143,1.138l-0.4.228-0.057.826-0.4.228c0.009,0.171.019,0.341,0.028,0.512-0.161.181-.323,0.361-0.484,0.541l-0.057.826-0.4.228-0.057.825-0.4.228-0.057.826-0.4.228-0.057.825-0.4.228-0.057.826-0.4.228c0.009,0.171.019,0.341,0.028,0.512l-0.2.114c0.009,0.171.019,0.342,0.028,0.513l-0.4.227q-0.071.57-.142,1.139l-0.4.228q-0.072.57-.143,1.139l-0.4.228q-0.071.569-.142,1.139l-0.4.227q-0.072.57-.143,1.139l-0.4.228c0.01,0.171.019,0.342,0.029,0.513l-0.2.113c0.01,0.171.019,0.342,0.029,0.513l-0.4.228q-0.072.568-.143,1.139l-0.4.227q-0.07.57-.143,1.139l-0.4.228q-0.072.57-.143,1.139l-0.4.228q-0.071.569-.143,1.139l-0.4.227c-0.019.276-.039,0.551-0.058,0.826l-0.4.228q-0.072.569-.143,1.139l-0.4.228,0.114,0.2-0.285.427,0.683,1.195c-0.128.677,0.736,1.288,0.939,2.107l-0.2.114,1.138,1.992c0.335,1.347,1.564,3.165,1.793,4.526l0.4-.228c0.015-1.165.668-1.893,0.969-2.933q0.329-1.509.656-3.018l0.4-.227c-0.009-.171-0.019-0.342-0.028-0.513q0.27-.682.541-1.367,0.2-1.038.4-2.078l0.4-.228q0.458-1.978.913-3.957l0.4-.228,0.57-2.7c0.124-.246.247-0.493,0.371-0.74l-0.114-.2,0.4-.228,0.912-3.958,0.4-.227q0.456-1.978.913-3.958l0.4-.228q0.414-1.821.827-3.644l0.4-.228-0.114-.2,0.456-1.054q0.285-1.352.571-2.7l0.4-.228q0.2-1.039.4-2.079l0.4-.227q0.241-1.2.485-2.392l0.4-.228q0.029-.412.058-0.825l0.627-1.68-0.2.114-0.114-.2Zm-36.15,28.852,0.228,0.4,0.2-.114-0.228-.4Zm0.142,0.711,1,3.131,0.2-.114-0.113-.2,0.2-.114-0.228-.4,0.2-.114-1.053-2.306Z"/>
</svg>
