<svg xmlns="http://www.w3.org/2000/svg" width="227.36" height="91" viewBox="0 0 812 325">
  <defs>
    <style>
      .cls-1 {
        fill: #db3f29;
        fill-rule: evenodd;
      }
    </style>
  </defs>
  <path id="Herz" class="cls-1" d="M216.54,323.719c-13.041,6.774-45.592-36.021-76.979-51.147-37.826-18.231-70.582-3.742-102.318-28.91C-0.971,213.357-4.462,156.834,2.282,122.624,15.9,53.559,86.313-8.954,166.183.632,229.206,8.2,273.377,56.946,288.794,105.524c12.963,40.848,12.765,102.572-21.577,131.467-10.1,8.5-24.276,9.986-34.64,23.826C215.59,283.5,228.407,317.554,216.54,323.719ZM165.862,12.386c57.5,7.344,94.677,55.384,108.561,91.086a134.333,134.333,0,0,1,4.983,15.657c5.784,22.775,14.151,79.4-18.924,109.919-11.528,10.636-27.635,11.49-38.49,27.322-13.161,19.195-5.29,47.847-14.433,51.465-8.047,3.183-34.1-26.459-41.7-32.087a134.9,134.9,0,0,0-36.886-19.7c-27.016-9.167-47.237-1.86-70.564-13.661C22.958,224.455,10.333,180.263,9.659,152.8,7.892,80.8,83.364,1.85,165.862,12.386ZM223.917,10.8c1.286-2.01,39.268,12.106,67.035,47.335,16.485,20.915,30.227,51.061,33.037,95.941,1.666,26.594-3.638,50.183-8.339,60.679-7.476,16.688-19.535,31.45-33.358,42.57-6.333,5.1-18.844,9.726-27.584,19.378-17.084,18.868-16.749,46.806-20.527,46.7-1.75-.049-3.028-5.717-3.849-10.8-3.293-20.373.231-35.391,8.66-45.747a47.311,47.311,0,0,1,9.943-8.895c9.829-6.644,21.441-12.5,29.188-19.061,7.516-6.362,19.7-25.775,24.7-53.689,2.015-11.261,2.418-23.278.962-38.123-3.506-35.751-13.44-62.835-26.622-83.551C254.733,28.288,222.739,12.638,223.917,10.8Zm-129.9,91.176c8.433-6.171,21.75-9.287,31.754-4.13,11.193,5.77,14.736,22.2,17.641,21.6,2.965-.606.164-18.613,7.7-31.769,3.18-5.555,9.964-14.245,20.206-16.2,14.1-2.693,25.989,8.508,29.83,12.707,15.314,16.746,12.1,41.369,9.3,59.408-6.622,42.723-12.884,69.564-24.376,74.021-10.873,4.216-29.7-7.4-58.376-26.368-26.211-17.339-44.735-30.9-47.149-52.736C79.788,131.678,79.379,112.683,94.015,101.974Z"/>
  <path id="MEHR_INHALT" data-name="MEHR INHALT" class="cls-1" d="M449.977,6l-32,71.5-32-71.5h-12.25V92.5H385.1V27.874L413.977,92.5h8L450.727,28V92.5H462.1V6H449.977Zm78.249,8.625V5.249H481.351V92.5h46.875V83.124h-35.5v-30h31.75V43.749h-31.75V14.624h35.5Zm73-9.25v38.25H556.849V5.374H545.474V92.5h11.375V53h44.375V92.5H612.6V5.374H601.224ZM691.472,92.5L669.6,56q10.374-2.25,15.563-9.125A25.645,25.645,0,0,0,690.347,31a25.443,25.443,0,0,0-3.375-13.125,23.511,23.511,0,0,0-10.187-9.125Q669.97,5.374,660.1,5.374H631.972V92.5h11.375V56.874H657.1L677.847,92.5h13.625Zm-48.125-77.75H660.1q9.375,0,13.938,4.25T678.6,31q0,7.626-4.625,12.188T660.1,47.749h-16.75v-33ZM373.727,155.374V242.5H385.1V155.374H373.727Zm99.248-.125H461.6V224.5l-45.75-69.25H404.475V242.5H415.85V173.124L461.6,242.5h11.375v-87.25Zm75.123,0.125v38.25H503.723v-38.25H492.348V242.5h11.375V203H548.1v39.5h11.375V155.374H548.1ZM637.347,242.5h12l-31.375-86.625H604.847l-31.5,86.625h12l7-19.375h38ZM595.6,213.874l15.75-44,15.75,44H595.6Zm78.874-58.5H663.1V242.5h41.875v-9.25h-30.5V155.374Zm37.249,0v9.25H735.6V242.5H746.97V164.624h23.75v-9.25h-59Z"/>
  <path id="Text._Marke._Social." data-name="Text. Marke. Social." class="cls-1" d="M365.5,289.479v2.9h9.75v32.05h3.5v-32.05h9.7v-2.9H365.5Zm53.2,19.9A13.05,13.05,0,0,0,417.124,303a11.757,11.757,0,0,0-4.5-4.575,13.341,13.341,0,0,0-6.825-1.7,14.034,14.034,0,0,0-6.95,1.7,11.822,11.822,0,0,0-4.75,4.9,15.656,15.656,0,0,0-1.7,7.45,15.314,15.314,0,0,0,1.725,7.425,12.18,12.18,0,0,0,4.775,4.9,13.767,13.767,0,0,0,6.9,1.725,13.068,13.068,0,0,0,8.225-2.525,11.562,11.562,0,0,0,4.275-6.525h-3.7a7.746,7.746,0,0,1-3.075,4.45,9.639,9.639,0,0,1-5.725,1.65,10.39,10.39,0,0,1-4.8-1.125,8.827,8.827,0,0,1-3.55-3.325,10.984,10.984,0,0,1-1.5-5.3H418.6Q418.7,311.179,418.7,309.379Zm-3.55-.1h-19.2a9.988,9.988,0,0,1,3.05-7.05,9.538,9.538,0,0,1,6.65-2.5,10.588,10.588,0,0,1,4.8,1.1,8.271,8.271,0,0,1,3.475,3.25A9.7,9.7,0,0,1,415.149,309.279Zm28.2,15.15-8.8-13.8,8.7-13.5H439.6l-6.75,10.85-6.95-10.85h-3.95l8.7,13.65-8.8,13.65h3.7l6.8-11,7.05,11h3.95Zm16.8-24.35v-2.95h-7.5v-6.85H449.1v6.85h-3.8v2.95h3.8v16.95q0,3.951,1.8,5.675t5.5,1.725h3.75v-3h-3.2a4.675,4.675,0,0,1-3.35-.95,4.85,4.85,0,0,1-.95-3.45v-16.95h7.5Zm6.349,24.6a2.373,2.373,0,0,0,1.775-.75,2.559,2.559,0,0,0,.725-1.85,2.477,2.477,0,0,0-.725-1.825,2.415,2.415,0,0,0-1.775-.725,2.479,2.479,0,0,0-2.55,2.55,2.559,2.559,0,0,0,.725,1.85A2.43,2.43,0,0,0,466.5,324.679Zm52.6-34.75-13.35,29.9-13.35-29.9h-3.7v34.5h3.5v-27.45l12.3,27.45h2.55l12.3-27.55v27.55h3.5v-34.5H519.1Zm10.1,20.8a15.724,15.724,0,0,0,1.675,7.4,12.11,12.11,0,0,0,4.65,4.95,12.912,12.912,0,0,0,6.675,1.75A12.12,12.12,0,0,0,548.922,323a10.962,10.962,0,0,0,4.125-4.625v6.05h3.5v-27.3h-3.5v6a10.485,10.485,0,0,0-4.075-4.6,12.25,12.25,0,0,0-6.725-1.8,13.159,13.159,0,0,0-6.725,1.725,11.991,11.991,0,0,0-4.65,4.9A15.576,15.576,0,0,0,529.2,310.729Zm23.85,0.05a12.018,12.018,0,0,1-1.35,5.8,9.63,9.63,0,0,1-3.675,3.85,10.024,10.024,0,0,1-5.125,1.35,10.218,10.218,0,0,1-5.2-1.325,9.3,9.3,0,0,1-3.625-3.85,12.455,12.455,0,0,1-1.325-5.875,12.273,12.273,0,0,1,1.325-5.875,9.211,9.211,0,0,1,3.625-3.775,10.386,10.386,0,0,1,5.2-1.3,10.024,10.024,0,0,1,5.125,1.35,9.637,9.637,0,0,1,3.675,3.85A12.021,12.021,0,0,1,553.047,310.779Zm15-8.8v-4.85h-3.5v27.3h3.5v-15.25q0-4.8,2.3-6.85a8.83,8.83,0,0,1,6.1-2.05h0.95v-3.65a11.3,11.3,0,0,0-5.825,1.4A8.56,8.56,0,0,0,568.046,301.979Zm34.1,22.45-13.05-13.7,12.95-13.6h-4.9l-11,12.2v-21.9h-3.5v37h3.5v-12.25l11.25,12.25h4.75Zm29.2-15.05A13.05,13.05,0,0,0,629.771,303a11.757,11.757,0,0,0-4.5-4.575,13.341,13.341,0,0,0-6.825-1.7,14.034,14.034,0,0,0-6.95,1.7,11.816,11.816,0,0,0-4.75,4.9,15.644,15.644,0,0,0-1.7,7.45,15.314,15.314,0,0,0,1.725,7.425,12.174,12.174,0,0,0,4.775,4.9,13.767,13.767,0,0,0,6.9,1.725,13.07,13.07,0,0,0,8.225-2.525,11.562,11.562,0,0,0,4.275-6.525h-3.7a7.746,7.746,0,0,1-3.075,4.45,9.641,9.641,0,0,1-5.725,1.65,10.384,10.384,0,0,1-4.8-1.125,8.827,8.827,0,0,1-3.55-3.325,10.984,10.984,0,0,1-1.5-5.3h22.65Q631.345,311.179,631.346,309.379Zm-3.55-.1H608.6a9.983,9.983,0,0,1,3.05-7.05,9.538,9.538,0,0,1,6.65-2.5,10.588,10.588,0,0,1,4.8,1.1,8.277,8.277,0,0,1,3.475,3.25A9.7,9.7,0,0,1,627.8,309.279Zm10.55,15.4a2.375,2.375,0,0,0,1.775-.75,2.563,2.563,0,0,0,.725-1.85,2.481,2.481,0,0,0-.725-1.825,2.416,2.416,0,0,0-1.775-.725,2.479,2.479,0,0,0-2.55,2.55,2.555,2.555,0,0,0,.725,1.85A2.429,2.429,0,0,0,638.346,324.679Zm32.8,0.1a12.877,12.877,0,0,0,6.1-1.35,9.495,9.495,0,0,0,3.85-3.55,9,9,0,0,0,1.3-4.65,8.206,8.206,0,0,0-1.45-5.1,8.977,8.977,0,0,0-3.55-2.825,42.457,42.457,0,0,0-5.5-1.875,42.35,42.35,0,0,1-4.675-1.5,7.318,7.318,0,0,1-2.875-2.05,5.279,5.279,0,0,1-1.15-3.55,5.537,5.537,0,0,1,2.1-4.575,9.3,9.3,0,0,1,10.65,0,6.293,6.293,0,0,1,2.35,3.825h3.8a8.93,8.93,0,0,0-3.425-6.125,12.175,12.175,0,0,0-7.825-2.375,13.588,13.588,0,0,0-5.85,1.2,9.375,9.375,0,0,0-3.95,3.325,8.568,8.568,0,0,0-1.4,4.825,8.279,8.279,0,0,0,1.45,5.15,8.817,8.817,0,0,0,3.5,2.8,40.979,40.979,0,0,0,5.55,1.85,44.423,44.423,0,0,1,4.7,1.475,7.064,7.064,0,0,1,2.85,2.05,5.468,5.468,0,0,1,1.15,3.625A5.894,5.894,0,0,1,676.77,320a8.217,8.217,0,0,1-5.625,1.825,8.109,8.109,0,0,1-5.85-1.925,7.022,7.022,0,0,1-2.25-4.475h-3.7a8.791,8.791,0,0,0,1.6,4.8,9.929,9.929,0,0,0,4.125,3.35A14.476,14.476,0,0,0,671.145,324.779Zm29.949,0.05a14.33,14.33,0,0,0,7-1.725,12.448,12.448,0,0,0,4.95-4.925,16.263,16.263,0,0,0,.025-14.825,12.385,12.385,0,0,0-4.9-4.9,14.19,14.19,0,0,0-6.975-1.725,14.048,14.048,0,0,0-6.95,1.725,12.592,12.592,0,0,0-4.9,4.9,14.8,14.8,0,0,0-1.8,7.425,14.957,14.957,0,0,0,1.775,7.425,12.463,12.463,0,0,0,4.85,4.9A13.907,13.907,0,0,0,701.094,324.829Zm0-3.05a10.321,10.321,0,0,1-4.975-1.225,9.069,9.069,0,0,1-3.65-3.7,14.108,14.108,0,0,1,0-12.15,9.034,9.034,0,0,1,3.675-3.7,10.817,10.817,0,0,1,10,0,9.192,9.192,0,0,1,3.7,3.7,12.179,12.179,0,0,1,1.4,6.075,12,12,0,0,1-1.425,6.075,9.348,9.348,0,0,1-3.725,3.7A10.467,10.467,0,0,1,701.094,321.779Zm18.55-11a15.49,15.49,0,0,0,1.7,7.425,12.107,12.107,0,0,0,4.7,4.9,13.492,13.492,0,0,0,6.85,1.725,13.173,13.173,0,0,0,8.3-2.55,11.454,11.454,0,0,0,4.25-6.75h-3.75a7.7,7.7,0,0,1-3.025,4.675,9.62,9.62,0,0,1-5.775,1.675,9.831,9.831,0,0,1-4.95-1.25,8.731,8.731,0,0,1-3.475-3.75,13.309,13.309,0,0,1-1.275-6.1,13.154,13.154,0,0,1,1.275-6.075,8.767,8.767,0,0,1,3.475-3.725,9.842,9.842,0,0,1,4.95-1.25,9.627,9.627,0,0,1,5.775,1.675,7.68,7.68,0,0,1,3.025,4.625h3.75a11.326,11.326,0,0,0-4.225-6.8,13.336,13.336,0,0,0-8.325-2.5,13.492,13.492,0,0,0-6.85,1.725,12.113,12.113,0,0,0-4.7,4.9A15.5,15.5,0,0,0,719.644,310.779Zm34-18.8a2.455,2.455,0,0,0,1.8-.75,2.513,2.513,0,0,0,.75-1.85,2.433,2.433,0,0,0-.75-1.825,2.6,2.6,0,0,0-3.6,0,2.433,2.433,0,0,0-.75,1.825,2.513,2.513,0,0,0,.75,1.85A2.455,2.455,0,0,0,753.644,291.979Zm-1.75,5.15v27.3h3.5v-27.3h-3.5Zm9.849,13.6a15.724,15.724,0,0,0,1.675,7.4,12.11,12.11,0,0,0,4.65,4.95,12.912,12.912,0,0,0,6.675,1.75A12.12,12.12,0,0,0,781.468,323a10.962,10.962,0,0,0,4.125-4.625v6.05h3.5v-27.3h-3.5v6a10.485,10.485,0,0,0-4.075-4.6,12.25,12.25,0,0,0-6.725-1.8,13.159,13.159,0,0,0-6.725,1.725,11.991,11.991,0,0,0-4.65,4.9A15.576,15.576,0,0,0,761.743,310.729Zm23.85,0.05a12.018,12.018,0,0,1-1.35,5.8,9.63,9.63,0,0,1-3.675,3.85,10.024,10.024,0,0,1-5.125,1.35,10.218,10.218,0,0,1-5.2-1.325,9.3,9.3,0,0,1-3.625-3.85,12.455,12.455,0,0,1-1.325-5.875,12.273,12.273,0,0,1,1.325-5.875,9.211,9.211,0,0,1,3.625-3.775,10.386,10.386,0,0,1,5.2-1.3,10.024,10.024,0,0,1,5.125,1.35,9.637,9.637,0,0,1,3.675,3.85A12.021,12.021,0,0,1,785.593,310.779Zm11.5-23.35v37h3.5v-37h-3.5Zm12.05,37.25a2.375,2.375,0,0,0,1.775-.75,2.559,2.559,0,0,0,.725-1.85,2.477,2.477,0,0,0-.725-1.825,2.416,2.416,0,0,0-1.775-.725,2.479,2.479,0,0,0-2.55,2.55,2.555,2.555,0,0,0,.725,1.85A2.43,2.43,0,0,0,809.142,324.679Z"/>
</svg>
