<svg xmlns="http://www.w3.org/2000/svg" width="270" height="108.27" viewBox="0 0 1000 401">
  <defs>
    <style>
      .cls-1 {
        fill: #de4f3c;
        fill-rule: evenodd;
      }
    </style>
  </defs>
  <path id="Logo_1" data-name="Logo 1" class="cls-1" d="M390,364.517c-1.373,5.922-6.05,9.925-9.859,13.547q-0.615,1.231-1.232,2.463h-2.465l-2.464,3.694-7.394,2.463v1.232l-8.627,1.231c-2.507.78-10.424,2.583-14.788,1.232l-29.576-9.852h-6.161c-13.6-4.425-30.756-6.688-44.364-11.084l-12.324-1.231V366.98l-11.091-1.231v-1.232h-4.929v-1.231h-6.162v-1.231l-11.091-1.232v-1.231h-6.161V358.36h-6.162v-1.231L194.054,355.9v-1.231h-4.929v-1.232L176.8,352.2c-12.031-3.858-27.241-6.058-39.434-9.852h-6.162v-1.232l-8.626-1.231v1.231c-4.443,1.183-6.732,4.766-9.859,7.389v1.232h-2.465l-8.626,9.852L96.7,363.286v1.231H94.235l-14.788,16.01H76.982l-3.7,4.926c-5.125,5.092-10.868,11.1-17.253,14.777v-9.851h1.232l1.232-16.01H56.033l-3.7,4.926H49.871l-3.7,4.926H43.709l-3.7,4.926H37.548l-1.232,2.463L30.154,395.3v-7.388h1.232v-7.389c1.431-4.771,2.74-11.926,3.7-17.241-4.985,1.038-6.137,3.766-11.091,4.926,0.35-4.82,2.465-7.674,3.7-11.083l1.232-8.621h1.232v-4.926l7.394-22.166c-10.985-1.929-17.14-6.933-23.414-13.547l-2.465-1.231v-2.463l-3.7-2.463v-2.463H6.739l-1.232-4.926H4.275l-1.232-7.389C1.707,283.178-1.217,272.2.578,266c2-6.9,2.917-16.652,4.929-23.4v-7.389H6.739v-7.389H7.972v-7.388H9.2v-7.389c6.183-20.547,6.19-45.931,12.323-66.5l1.232-14.778h1.232v-7.389c3.355-11.164,4.064-25.769,7.394-36.944l4.929-35.713c5.741-16.785,19-33.558,41.9-33.25V16.009h1.232l7.394-8.62h2.465l1.232-2.463,7.394-2.463V1.231H100.4V0h25.879V1.231h3.7V2.463h3.7V3.694h3.7V4.926l20.949,4.926v1.231h3.7v1.232h3.7v1.232h3.7v1.231h3.7v1.232h4.93v1.232h3.7v1.232h3.7V19.7h3.7v1.231h3.7v1.232l16.02,3.694v1.232h4.929v1.232h3.7v1.231h3.7v1.231h3.7v1.232h3.7V33.25l16.021,3.694v1.232h4.929v1.231h3.7v1.232h3.7V41.87h3.7V43.1h3.7v1.231l17.253,1.232c16.452,4.8,37.75,3.859,54.222,8.62h9.859v1.231h8.626v1.232h8.627V57.88h9.858l36.97,6.157v1.231l7.394,2.463,1.233,2.463H420.8l4.93,6.157,2.464,1.231v2.463l2.465,1.231v2.463l2.465,1.231v2.463h1.232q1.232,5.541,2.465,11.083h1.232v2.463l6.162,3.7v2.463l3.7,2.463v2.462h1.232q0.617,2.463,1.232,4.926h1.233q0.615,3.695,1.232,7.389h1.232v6.158h1.233c3.144,10.906-3.853,28.034-6.162,34.481v4.926h-1.232v3.694h-1.233v4.926c-7.607,21.042-13.437,45.42-20.949,66.5q-1.233,14.777-2.465,29.556c-4.21,14.629-1.867,34.675-6.162,49.259q-0.615,6.156-1.232,12.314h-1.232v3.695h-1.233l-2.464,7.389-2.465,1.231v2.463l-6.162,4.926C398.67,359.528,396.086,363.226,390,364.517ZM84.376,19.7l110.91,16.009h8.627v1.231h9.858v1.232l17.253,1.231V38.176c-4.808-.369-7.705-2.346-11.091-3.694l-8.626-1.232V32.018h-3.7V30.787h-3.7V29.556h-3.7V28.324h-4.93V27.093h-3.7V25.861h-3.7V24.63h-3.7V23.4h-3.7V22.167h-4.929V20.935h-3.7V19.7h-3.7V18.472h-3.7V17.241h-3.7V16.009h-4.929V14.778h-3.7V13.546h-3.7V12.315h-3.7V11.083h-4.93V9.852h-3.7V8.62h-3.7V7.389h-3.7V6.157h-3.7V4.926C109.925-.484,87.19,9.26,84.376,19.7ZM850.888,7.389h19.717V43.1a10.311,10.311,0,0,0,4.929-2.463V39.407l14.788-4.926,17.253,1.231v1.231h2.465v1.232h3.7q0.615,1.231,1.232,2.463h2.465q1.848,2.463,3.7,4.926L923.6,46.8v2.463l2.465,1.232v2.463h1.232l1.233,7.389h1.232v61.574H911.272V66.5H910.04V62.805h-1.233V60.342l-2.464-1.231c-2.28-3.189,1.328-2.252-3.7-3.694-3.785-5.784-15.167-3.287-22.182-2.463v1.231l-3.7,1.231-6.162,9.852v56.648H850.888V7.389ZM47.406,317.721l-11.091,66.5h1.232l2.465-3.694h2.465l3.7-4.926h2.465l3.7-4.926H54.8l1.232-2.463h1.232l1.232-2.463h2.465l3.7-4.926h2.465l3.7-4.926h2.465l3.7-4.926h2.465l3.7-4.926h2.465l2.465-3.694h2.465L93,338.656h2.465q0.616-1.23,1.232-2.463l3.7-1.231q0.615-1.231,1.232-2.463c1.979-1.515,5.063-1.159,8.626-1.231,2.805,2.37,7.124,1.145,11.091,2.463v1.231h6.162c12.175,3.842,27.327,5.964,39.435,9.852H173.1v1.231h6.162v1.232l11.091,1.231v1.232h4.929v1.231L207.61,352.2v1.231l11.091,1.232V355.9h4.929v1.232h6.162v1.231h6.161c24.756,7.977,54.084,10.562,78.87,18.472l12.323,1.232V379.3l11.091,1.232v1.231h4.929v1.232c4.932,1.5,18.07.393,22.182-1.232v-1.231h3.7l1.233-2.463h2.464q1.233-1.848,2.465-3.695h2.465l2.464-2.463v-2.463l3.7-2.463v-2.463h1.233l2.464-7.388h1.233v-3.695H390q1.231-10.467,2.465-20.935c6.835-22.913,6.746-50.963,13.555-73.889q1.233-11.082,2.465-22.166c3.332-11.173,4.077-25.766,7.394-36.945v-7.388c1.906-6.4,3.032-15.766,4.929-22.167v-7.389c6.877-23.088,6.058-43.5-6.161-60.342l-3.7-2.463V98.518H408.48l-2.465-3.694L387.53,88.666h-6.161V87.435h-4.93V86.2h-6.161V84.972h-6.162V83.741h-4.929V82.509L348.1,81.278V80.046l-12.324-1.231V77.583l-11.091-1.231V75.12h-4.929V73.889H313.59V72.657L302.5,71.426V70.194l-12.323-1.231V67.731L279.085,66.5V65.268h-4.929V64.037h-6.162V62.805L256.9,61.574V60.342h-6.162V59.111h-4.929V57.88H239.65V56.648h-6.161V55.417h-4.93V54.185l-12.323-1.231c-22.732-7.314-49.954-9.975-72.708-17.241l-23.414-3.694V30.787h-6.162V29.556h-4.929V28.324h-6.162C97.3,26.545,78.492,20.584,69.588,23.4V24.63L58.5,28.324l-2.465,3.694-7.394,6.157v2.463L46.174,41.87l-2.465,7.389H42.477v3.695H41.245v6.157H40.012V66.5c-3.327,11.174-4.077,25.766-7.394,36.944v7.389c-3.324,11.176-4.076,25.766-7.394,36.944l-1.232,14.778C20.677,173.734,19.911,188.32,16.6,199.5v7.389c-2.6,8.809-3.558,20.748-6.162,29.556v7.389H9.2v7.388H7.972v7.389H6.739v8.621c-0.519,1.833-2.3,7.384-1.232,11.083C11.835,300.205,20.55,316.484,47.406,317.721Zm687.642-195.8H716.563V81.278c0-6.146.608-12.68-1.232-17.241H714.1V60.342h-1.233l-4.929-6.157c-2.068-1.422-2.79-.029-4.929-2.463H689.452v1.232l-6.162,1.231q-1.848,2.463-3.7,4.926h-1.232l-3.7,11.083v51.722H656.179V66.5h-1.232V62.805h-1.233V60.342l-2.464-1.231c-2.28-3.189,1.328-2.252-3.7-3.694-3.785-5.784-15.167-3.287-22.182-2.463v1.231l-3.7,1.231-6.162,9.852v56.648H595.795v-86.2h19.717V43.1h1.232c1.076-1.355,7.046-5.474,8.627-6.157h3.7c15.972-5.987,35.1,1.383,40.667,13.546l8.626-9.852h2.465q0.615-1.231,1.232-2.463h3.7V36.944h2.465V35.713l17.252-1.231v1.231h6.162v1.231h3.7v1.232H717.8l9.858,7.389C738.656,61,735.33,95.822,735.048,121.916ZM834.867,86.2H769.554c1.258,7.75,6.248,16.761,13.555,18.472,5.242,5.256,20.14,2.027,24.647-1.232l4.929-7.389H832.4c-0.689,7.627-4.543,10.678-8.627,14.778l-4.929,6.157h-2.465q-0.615,1.232-1.232,2.463h-3.7v1.232h-2.465v1.231h-4.929c-14.773,4.648-31.059-1.425-39.435-7.389q-1.848-2.462-3.7-4.925H759.7v-2.463l-2.465-1.232v-2.463H756v-2.463h-1.232V98.518h-1.233V96.055H752.3V91.129h-1.232V80.046h-1.233V78.815h1.233V66.5H752.3q0.616-3.694,1.232-7.389h1.233q0.615-2.463,1.232-4.926h1.232V51.722h1.233c1.762-2.21,2.781-2.944,3.7-6.157a10.125,10.125,0,0,0,4.929-2.463V41.87h2.465q0.615-1.231,1.232-2.463c2.791-1.71,6.472-1.25,9.859-2.463V35.713l18.485-1.231v1.231l11.091,1.231v1.232h2.464v1.231h2.465v1.232h2.465q0.615,1.231,1.232,2.463h2.465q1.848,2.463,3.7,4.926h1.232v2.463l2.465,1.231v2.463l2.464,1.231V57.88H832.4q0.615,4.31,1.232,8.62h1.232V86.2Zm160.2-51.722v19.7c-7.692-.126-11.817,1.329-17.253,2.463l-3.7,4.926h-1.232l-1.233,6.157h-1.232v54.185H950.707v-86.2h19.717v9.852h1.232C975.673,38.49,984.412,34.867,995.071,34.481ZM164.478,35.713c2.82,2.369,7.118,1.14,11.091,2.463v1.231h6.162c12.011,3.9,27.41,5.977,39.434,9.852h6.162v1.232h4.929v1.231h6.162v1.232h6.162v1.231h4.929v1.231h6.162c24.691,8.013,54.173,10.54,78.869,18.472l17.253,2.463v1.231h6.161v1.231h4.93v1.231h6.161v1.231h6.162v1.231h4.929v1.231H386.3v1.231l14.788,2.463v1.231l4.929,1.232v1.231h2.465q0.616,1.231,1.232,2.463h2.465l3.7,4.926,2.465,1.232v2.463l3.7,2.463c7.394,11.242,9.7,32.062,4.929,48.027q-0.617,7.389-1.232,14.778c-6.186,20.545-6.177,45.937-12.324,66.5q-1.231,11.082-2.464,22.166c-4.06,13.52-4.593,30.8-8.627,44.334q-0.615,8-1.232,16.009h-1.232v7.389h-1.233v7.389h-1.232v7.388a84.878,84.878,0,0,0-3.7,18.473h1.232l7.394-8.621,2.465-1.231v-2.463l2.465-1.232q0.615-3.078,1.232-6.157h1.232v-2.463h1.233v-4.926c2.944-9.007,2.288-22.688,4.929-32.018V285.7h1.232V273.388h1.233V261.073h1.232V248.759H420.8V236.444h1.233V224.129h1.232V211.814H424.5V199.5h1.233V187.185h1.232V174.87H428.2V162.555h1.233V150.24h1.232V137.926h1.232V125.611c2.376-8.375,1.858-26.108-1.232-33.25H429.43L428.2,87.435h-1.232V84.972L424.5,83.741V81.278l-4.929-3.694-2.465-3.694c-14.876-10.537-44.284-7.882-64.081-13.546h-9.859c-16.4-4.717-37.779-3.876-54.222-8.62l-18.485-1.231c-10.628-3.058-25.148-3.126-35.738-6.157h-9.859V43.1h-8.626V41.87h-9.859V40.639h-8.626C189.142,38.142,174.5,36.048,164.478,35.713Zm67.778,3.694c0.607,0.526,1.542,2.282,3.7,1.232V39.407h-3.7ZM815.15,71.426q-0.616-4.925-1.232-9.852l-7.394-6.157V54.185c-2.055-1.424-2.824.018-4.93-2.463-8.314-.532-15.749-1.856-22.182,2.463l-2.464,3.694-3.7,2.463q-1.849,5.541-3.7,11.083h45.6ZM438.056,107.139c0.108,28.814-6.59,54.177-7.394,81.277-0.189,6.384-4.17,27.351-1.232,30.787q1.848-8.619,3.7-17.241h1.232q1.232-6.156,2.465-12.314h1.232v-4.926h1.232v-3.7h1.233V176.1h1.232q0.617-4.309,1.232-8.62h1.233v-3.694h1.232v-3.695h1.232l1.233-8.62h1.232v-7.389C453.048,130.687,445.475,113.287,438.056,107.139Zm-331.5,50.49c4.028-.141,10.227-0.7,12.324,1.232h2.464l1.233,2.463,3.7,1.231v2.463l2.464,1.232,1.233,7.388h1.232l2.465-3.694c2.381-1.547,12.556-2.115,14.788,0h2.464l1.233,2.463,3.7,1.231V176.1l2.464,1.232v3.694h1.233v6.158h-1.233q-0.615,2.462-1.232,4.926h-1.232v2.463L149.69,199.5q-0.617,1.232-1.232,2.463h-2.465q-1.231,1.848-2.465,3.7h-2.464l-1.233,2.463-7.394,2.463q-0.615,1.232-1.232,2.463H128.74v1.231h-2.464v1.232h-2.465v1.231h-3.7c-3.216,1.413-3.457,3.2-8.626,3.695-7.607-17.668-16.259-34.128-12.324-56.648Zm93.658,16.009h1.232v1.232h6.162V176.1h2.464l1.233,2.463h2.464L215,182.259l2.464,1.231v4.926H218.7v1.232c7.237-3.382,11.248-4.305,20.949-2.463,2.4,3.972,7.59,7.082,8.627,12.314,0.429,2.165-1.117,2.027-1.233,2.463v4.926h-1.232v2.463l-3.7,2.463v2.463l-2.465,2.463h-2.464l-3.7,4.926h-2.465q-0.617,1.231-1.232,2.463l-3.7,1.231v1.232l-4.93,1.231v1.232H218.7v1.231h-2.465v1.232h-2.465v1.231h-2.464v1.232l-4.93,1.231v1.232l-6.161,1.231v-1.231c-3.53-3.057-2.919-6.495-4.93-11.084h-1.232V222.9h-1.232V219.2h-1.233V216.74h-1.232q-0.617-4.31-1.232-8.62c-2.117-6.327-4.907-13.4-2.465-20.935v-4.926h1.232V179.8l3.7-3.695h2.465V174.87h6.162v-1.232Zm385.72,34.482h-2.465q-0.615,1.231-1.232,2.463l-12.323-1.232-2.465-3.694h-1.232v-2.463h-1.233c-2.372-6.66,4.072-14.8,7.394-16.009h8.627v1.231h2.464c2.156,1.412,7.513,10.223,4.93,16.009l-2.465,1.232v2.463ZM286.479,190.879c3.554,0.027,8.124.755,9.859,2.463,4.933,1.29,6.527,4.443,8.626,8.62H306.2v6.158h1.233c2.506-4.644,13.692-8.3,18.485-3.695,5.339,1.364,6.3,5.648,9.858,8.621V222.9c-2.444,2.13-1.041,2.865-2.464,4.925l-2.465,1.232-7.394,8.62h-2.465q-0.615,1.231-1.232,2.463l-3.7,1.232V242.6H313.59v1.232h-2.464l-1.233,2.463-7.394,2.463v1.231l-13.555,4.926v-1.232c-2.343-1.994-7.315-12.686-8.627-16.009v-3.694h-1.232v-3.695h-1.232v-3.694H276.62V222.9h-1.232V216.74h-1.232c-3-10.469,2.153-21.666,8.626-23.4v-1.231h3.7v-1.232Zm421.458,1.232h18.485v36.944h1.232c2.924-4.591,20.632-12.927,30.809-9.852v1.232h4.929v1.231h3.7V222.9l4.929,1.231v1.231h2.465l1.232,2.463,4.93,3.695v2.463h1.232q1.232,3.695,2.465,7.389h1.232q0.617,11.082,1.232,22.166v43.1H768.321V266c0-6.146.608-12.679-1.232-17.24h-1.232v-3.695h-1.233l-4.929-6.157c-2.068-1.422-2.79-.029-4.929-2.463H741.21v1.231l-6.162,1.232-3.7,4.926h-1.232q-0.617,2.461-1.232,4.926h-1.233v6.157c-3.754,12.458-1.249,36.6-1.232,51.722H707.937V192.111Zm204.567,0h18.485V306.638H912.5V192.111Zm43.132,7.388h19.717v20.936h19.718v16.009H975.353v51.722l3.7,1.231c2.527,2.321,11.367,1.355,16.021,1.232v16.009H971.656c-2.735-.889-5.195-2.925-8.626-3.694l-6.162-8.621v-6.157c-3.754-12.459-1.248-36.6-1.232-51.722h-9.859V220.435h9.859V199.5ZM686.987,306.638H668.5V253.684c-0.932-3.069-2.933-6.362-3.7-9.851l-4.929-3.695v-1.231c-2.068-1.427-2.825.025-4.929-2.463H640.159v1.231l-4.93,1.232-3.7,4.926H630.3V246.3h-1.232v2.463h-1.233v4.925H626.6v52.954H608.118v-86.2H626.6v8.62h1.232c2.4-4.061,3.4-2.78,7.394-4.926V222.9l4.93-1.232v-1.231h6.161V219.2c3.932-1.123,18.542,1.4,20.95,2.463V222.9h2.465v1.231H672.2l2.465,3.694h2.465C690.585,238.552,687.324,281.39,686.987,306.638Zm184.85-86.2h18.485v86.2H871.837v-9.852h-1.232c-1.9,3.039-1.356.757-3.7,2.463l-2.465,3.695c-6.28,4.125-14.235,4.993-24.646,4.925H832.4v-1.231h-3.7v-1.231h-2.465v-1.232l-4.929-1.231-1.233-2.463h-2.464l-3.7-4.926-2.465-1.232V291.86l-2.465-1.231-2.464-7.389h-1.233v-2.463h-1.232q-0.616-6.772-1.232-13.546l-1.233-4.926h1.233V251.221h1.232q0.617-3.693,1.232-7.388h1.233q0.615-2.463,1.232-4.926h1.232v-2.463l4.93-3.695q0.615-1.846,1.232-3.694h2.465l2.464-3.695,7.394-2.462v-1.232l9.859-1.231V219.2l17.253,1.232v1.231h3.7V222.9h2.464v1.231h2.465q0.616,1.232,1.232,2.463h2.465v1.231l4.929,3.695V220.435Zm-304.386,0h18.485v86.2H567.451v-86.2ZM828.706,242.6a10.509,10.509,0,0,1-2.465,4.926h-1.232c-3.152,4.9-4.72,15.605-2.465,22.167v4.926h1.232c2.356,11.785,13.312,17.559,28.344,17.24v-1.231l6.162-1.232q0.615-1.231,1.232-2.463h2.465V285.7l3.7-2.463v-2.463l2.464-1.232c1.444-2.217-.01-2.779,2.465-4.925q0.616-8,1.232-16.01h-1.232q-0.617-4.31-1.232-8.62c-3.68-2.489-.565-1.143-2.465-3.694l-2.465-1.232c-4.626-4.836-7.6-8.553-17.252-8.62H839.8v1.231l-6.162,1.232v1.231A10.473,10.473,0,0,1,828.706,242.6Zm-788.694,86.2c-0.785,10.409-6.214,18.288-7.394,28.324h1.232c1.4-1.4,0-.491,2.465-1.232l4.929-27.092H40.012Zm64.082,7.388c-2.235,3.312-5.339,3.837-8.627,6.158L93,346.045H90.538l-3.7,4.926H84.376l-3.7,4.926H78.215l-3.7,4.926H72.053l-3.7,4.926H65.891v1.231l-2.465,1.232V379.3H62.194v8.621h1.232l9.859-11.084H75.75l14.788-16.009H93l3.7-4.926,19.717-17.241v-1.231h-4.929v-1.232h-7.394Zm820.734,23.4v-6.158a13.055,13.055,0,0,1,4.929-1.231c1.348,2.559,1.985,2.18,2.465,6.157A19.347,19.347,0,0,1,924.828,359.592Zm-208.265-6.158h6.162v24.63h1.232l9.859-12.315h7.394c-0.987,3.917-11.438,14.1-14.788,16.009v1.232h1.232l14.788,17.24h-7.394c-2.045-3.624-8.711-10.24-12.323-12.314V400.23h-6.162v-46.8Zm264.952,0h4.929v46.8h-4.929v-46.8ZM449.147,355.9h29.576v4.926H466.4V400.23h-4.93V360.823H449.147V355.9Zm151.577,0h6.162l2.464,7.389h1.233v3.694h1.232v2.463h1.232v2.463h1.233v2.463h1.232v3.695h1.232l4.93,13.546c1.4-1.04.179,0.156,1.232-1.231h1.232v-3.695h1.233v-2.463H626.6v-2.463h1.232V379.3h1.233V375.6H630.3v-2.463h1.232l1.233-4.926H634v-3.695h1.232v-2.462h1.233c2.7-4.958-.414-5.753,7.394-6.158V400.23h-4.93c0.127-6.152,1.35-27.908-1.232-30.787-0.477,5.471-3.037,7.456-4.929,11.084l-1.233,6.157H630.3l-4.929,13.546h-4.93l-6.161-14.777h-1.233v-3.695h-1.232V379.3h-1.232v-2.463H609.35q-0.615-3.078-1.232-6.157h-1.232V400.23h-6.162V355.9Zm218.123,6.158c-0.546,3.049-1.132,4.52-1.232,8.62,1.526,0.757,1.817,2.066,2.464,2.463h2.465v1.231c7.226,3.314,14.987.954,17.253,9.852,3.417,3.6-.379,8.852-1.233,12.315-6.166,2.8-8.613,3.734-18.485,3.694-3.063-3.4-5.887-1.783-7.394-7.389h-1.232v-4.925h6.162v3.694c5.019,2.913,4.627,3.784,13.555,3.694,2.106-3.617,3.563-3.525,3.7-9.851-1.4-1.4-.491,0-1.232-2.463l-17.253-4.926v-1.232c-2.266-1.754-2.847-1.506-3.7-4.926h-1.232v-7.389h1.232v-3.694c3.1-5.31,12.064-5.372,20.95-4.926,2.431,3.7,3.482,1.159,4.929,6.158H839.8v3.694h1.232v1.231h-6.162l-2.464-4.925c-1-.871-0.739.914-2.465-1.232A49.521,49.521,0,0,0,818.847,362.055Zm-266.184-4.926h4.929v8.62h9.859v4.926h-9.859v22.166c3.109,1.649,4.319,2.451,9.859,2.463v4.926h-9.859V399c-3.028-.775-2.145-0.5-3.7-2.463h-1.232V370.675h-4.929v-4.926h4.929v-8.62Zm-36.97,28.324H488.582q0.615,3.078,1.232,6.157c1.309,0.718,1.978,2.173,2.465,2.463h2.464V395.3H504.6c1.774-3.035,3.867-3.433,4.929-7.388h6.162c-0.8,4.7-2.838,8.716-7.394,9.851-3.484,4.11-13.29,2.3-18.485,1.232l-3.7-4.926h-1.232c-1.428-2.067.025-2.823-2.465-4.926-0.142-8.5,1.218-12.487,2.465-18.472,3.989-2.21,4.869-4.555,11.091-4.926,3.427-3.243,9.943.4,13.555,1.231C513.835,374.274,515.754,372.547,515.693,385.453Zm165.133-19.7h4.929V400.23h-4.929V395.3h-1.233c-1.86,3.009-11.625,7.56-18.485,4.926V399h-2.464v-1.232l-3.7-1.231-1.233-3.695h-1.232v-3.694H651.25c-3.093-9.7,2.693-20.655,8.626-22.167,1.33-1.415,7.322-3.695,11.091-2.463v1.232h3.7v1.231h2.465v1.232l3.7,2.463v-4.926Zm30.808-1.232v6.158c-4.112.033-5.579,0.647-8.626,1.231l-1.233,3.695c-2.4,2.651-1.343,19.16-1.232,24.629h-6.162V365.749h6.162v2.463C704.106,366.316,705.916,364.779,711.634,364.517Zm66.546,20.936H749.836v1.231h1.233v3.695l2.464,1.231,1.233,2.463c2.545,1.636,7,1.285,11.091,1.231,1.247-1.635,3.756-2.223,4.929-3.694q0.617-1.846,1.232-3.694h4.93c-0.266,5.99-1.317,4.168-2.465,8.62l-3.7,1.231V399h-2.465v1.231H754.766V399H752.3v-1.232l-3.7-1.231q-0.617-1.846-1.232-3.695h-1.233v-2.462h-1.232v-6.158c-0.106-8.98,1.659-15.47,8.626-17.241,2.333-2.457.642-.029,3.7-1.231,6.08-2.392,9.221-.006,14.788,1.231,1.494,2.621,2.776,2.681,3.7,6.158C778.3,375.645,778.276,380.212,778.18,385.453Zm81.334-20.936,12.323,1.232c1.9,3.009,1.5.765,3.7,2.463l1.233,2.463H878c1.407,1.967,0,2.834,2.465,4.926,0.357,11.424-.394,18.2-7.394,22.166-2.992,3.063-9.866,2.6-16.021,2.463-3.3-3.666-7.032-2.57-8.626-8.62-2.913-2.835-2.594-8.905-2.465-14.778,2.468-2.115,1.041-2.871,2.465-4.926l4.929-3.694V366.98l6.162-1.231v-1.232Zm55.455,3.695c0.94,3.891,2.744,4.5,3.7,8.62H912.5q-0.615-1.846-1.232-3.694c-2.222-2.723-6.354-3.4-11.091-3.695v1.232h-3.7v1.231h-1.232c-0.678,1.137-2.242,2.089-2.465,2.463v2.463h-1.232c-1.794,4.926,1.908,16.2,3.7,17.241h2.464V395.3h9.859q0.616-1.23,1.232-2.463h2.465q0.616-2.462,1.232-4.925h6.162c-0.8,4.906-2.528,7.783-6.162,9.851-1.624,1.758-11.42,4.066-16.02,2.463V399h-3.7v-1.232c-2.548-1.917-4.031-2.412-4.929-6.157-5.145-4.888-1.212-14.237,0-19.7,3.038-1.772,3.435-3.864,7.394-4.926,1.391-1.467,7.24-3.642,11.091-2.463v1.232h4.929q0.616,1.231,1.232,2.463h2.465Zm51.758-2.463h6.162V400.23h-6.162V395.3H965.5c-3.444,6.173-15.939,6.691-22.182,2.463v-1.231l-3.7-2.463V391.61h-1.233q-0.615-6.772-1.232-13.546h1.232l1.233-6.158c3.038-1.772,3.435-3.864,7.394-4.926,2.32-2.481.63-.034,3.7-1.231,7.116-2.779,11.048.883,16.02,3.694v-3.694Zm-447.337,0h6.162c1.612,3.95,4.279,9.893,8.626,11.083a13.217,13.217,0,0,1,2.465-6.157h1.232c3.084-4.463.54-4.982,8.626-4.926v1.231l-2.464,1.232-1.233,4.926-2.464,1.231v2.463l-2.465,1.232v2.463c-0.618,1.142-2.154.477-2.465,2.463l2.465,1.231q0.616,2.463,1.232,4.926l2.465,1.232v2.462l2.465,1.232v2.463h1.232q0.616,1.846,1.232,3.694H540.34q-3.7-6.156-7.394-12.314c-1.4,1.039-.18-0.157-1.233,1.231-5.231,4.625-3.272,10.936-13.555,11.083V399c2.675-2.209,8.881-12.138,9.858-16.009C529.084,379.859,520.791,371.533,519.39,365.749Zm405.438,0h6.161V400.23h-6.161V365.749ZM488.582,380.527h22.182V379.3h-1.233q-0.615-3.078-1.232-6.157c-4.462-2.142-5.977-4.334-11.091-2.463h-3.7v1.231l-4.929,3.695v4.926Zm177.456-11.084v1.232h-3.7l-3.7,4.926h-1.233V379.3c-1.974,5.347.113,7,1.233,12.315,5.314,2.92,4.612,3.721,13.555,3.694,3.422-3.988,7-3.587,7.394-11.083,1.628-2.111-.457-6.318-1.232-9.852C674.212,372.1,672.558,369.784,666.038,369.443Zm83.8,11.084h22.182V375.6c-3.109-1.892-7.141-8.211-13.555-6.158v1.232l-4.93,1.231C752.187,374.942,750.651,376.833,749.836,380.527Zm104.749,12.314h2.464q0.617,1.231,1.233,2.463h9.858v-1.231h2.465q0.616-1.231,1.232-2.463h1.233c1.741-2.605,2.4-8.022,2.464-12.315H874.3V375.6l-4.929-3.695v-1.231l-8.627-1.232c-3.063,3.4-5.887,1.783-7.394,7.389C849.507,380.872,853.755,389.423,854.585,392.841Zm98.586-23.4v1.232l-6.161,1.231c-5.943,12.047-5.9,23.887,12.323,23.4,1.637-1.988,3.511-2.548,4.929-4.925C973.242,382.077,962.242,370.011,953.171,369.443ZM577.31,400.23h-6.162q-0.617-2.462-1.232-4.926c2.561-1.347,2.182-1.983,6.161-2.463A19.3,19.3,0,0,1,577.31,400.23Zm205.8-7.389h4.93A15.628,15.628,0,0,1,789.271,399a15.662,15.662,0,0,1-6.162,1.231,13.036,13.036,0,0,1-1.232-4.926C783.28,393.9,782.368,395.3,783.109,392.841Zm210.729,0h4.93A15.628,15.628,0,0,1,1000,399a15.662,15.662,0,0,1-6.162,1.231C992.425,396.566,992.5,396.487,993.838,392.841Z"/>
</svg>
